<?xml version="1.0" standalone="no"?>
<!DOCTYPE svg PUBLIC "-//W3C//DTD SVG 1.1//EN" "http://www.w3.org/Graphics/SVG/1.1/DTD/svg11.dtd" >
<svg>
<metadata>
Created by FontForge 20120731 at Wed Jul  3 14:30:59 2019
 By www
 The digitally encoded machine readable software for producing the
 Typefaces licensed to you is copyrighted (c) 1988, 1995, 1998, 2002 Adobe Systems.
 All Rights Reserved. This software is the property of Adobe Systems
 Incorporated and its licensors, and may not be reproduced, used, 
 displayed, modified, disclosed or transferred without the express 
 written approval of Adobe.
 
 The digitally encoded machine readable outline data for producing the Typefaces 
 provided as part of your laser printer is copyrighted (c) 1981, 1998, 2002 Heidelberger Druckmaschinen AG. 
 All rights reserved. This data is the property of Heidelberger Druckmaschinen AG, 
 and may not be reproduced, used, displayed, modified, disclosed or transferred 
 without the express written approval of Heidelberger Druckmaschinen AG. 
</metadata>
<defs>
<font id="ClarendonLTStd-Bold" horiz-adv-x="611" >
  <font-face 
    font-family="Clarendon LT Std"
    font-weight="700"
    font-stretch="normal"
    units-per-em="1000"
    panose-1="2 4 8 4 5 5 5 2 2 4"
    ascent="663"
    descent="-337"
    x-height="468"
    cap-height="663"
    bbox="-167 -250 1000 940"
    underline-thickness="50"
    underline-position="-50"
    stemh="80"
    stemv="166"
    unicode-range="U+0020-FB02"
  />
<missing-glyph horiz-adv-x="500" 
d="M0 0v700h500v-700h-500zM250 395l170 255h-340zM280 350l170 -255v510zM80 50h340l-170 255zM50 605v-510l170 255z" />
    <glyph glyph-name="f_i" unicode="fi" horiz-adv-x="667" 
d="M258 376v-253c0 -28 7 -43 36 -43h24v-80h-300v80h38c29 0 36 15 36 43v253h-74v80h74v58c0 147 140 169 265 169c68 0 209 -23 209 -107c0 -52 -34 -76 -90 -76c-42 0 -72 22 -72 59c0 17 5 38 20 49c-29 8 -57 9 -87 9c-58 0 -79 -44 -79 -98v-63h326v-333
c0 -28 7 -43 36 -43h31v-80h-292v80h23c29 0 36 15 36 43v210c0 28 -7 43 -36 43h-124z" />
    <glyph glyph-name="f_l" unicode="fl" horiz-adv-x="667" 
d="M92 123v253h-74v80h74v39c0 122 74 188 220 188h272v-560c0 -28 7 -43 36 -43h29v-80h-292v80h25c29 0 36 15 36 43v375c-29 6 -56 21 -56 60c0 36 30 50 59 57v2h-52c-81 0 -111 -41 -111 -99v-62h85v-80h-85v-253c0 -28 7 -43 36 -43h24v-80h-300v80h38
c29 0 36 15 36 43z" />
    <glyph glyph-name=".notdef" horiz-adv-x="500" 
d="M0 0v700h500v-700h-500zM250 395l170 255h-340zM280 350l170 -255v510zM80 50h340l-170 255zM50 605v-510l170 255z" />
    <glyph glyph-name="space" unicode=" " horiz-adv-x="305" 
 />
    <glyph glyph-name="exclam" unicode="!" horiz-adv-x="333" 
d="M215 205h-97c0 117 -45 277 -45 346c0 63 15 132 96 132c76 0 91 -69 91 -132c0 -69 -45 -229 -45 -346zM170 153c45 0 84 -38 84 -84s-39 -83 -84 -83s-83 37 -83 83s38 84 83 84z" />
    <glyph glyph-name="quotedbl" unicode="&#x22;" horiz-adv-x="333" 
d="M128 602l-20 -204c-1 -8 -10 -31 -31 -31s-30 23 -31 31l-20 204c-2 25 -6 81 51 81s53 -56 51 -81zM307 602l-20 -204c-1 -8 -10 -31 -31 -31s-30 23 -31 31l-20 204c-2 25 -6 81 51 81s53 -56 51 -81z" />
    <glyph glyph-name="numbersign" unicode="#" 
d="M509 252l-4 -82h-75l-22 -170h-87l24 170h-79l-24 -170h-86l23 170h-73l4 82h81l15 100h-74l3 82h82l23 171h86l-23 -171h78l24 171h87l-24 -171h67l-4 -82h-74l-14 -100h66zM370 352h-78l-14 -100h79z" />
    <glyph glyph-name="dollar" unicode="$" 
d="M267 400v151c-46 0 -85 -20 -85 -80c0 -37 35 -57 85 -71zM347 212v-158c41 4 91 29 91 82c0 42 -37 62 -91 76zM267 54v176c-157 34 -240 64 -240 194c0 137 124 196 240 196v87h80v-87c85 -4 223 -42 223 -142c0 -54 -35 -78 -86 -78c-41 0 -77 28 -77 73
c0 23 16 44 38 51c-26 18 -63 27 -98 27v-171c113 -26 246 -70 246 -199c0 -149 -141 -189 -246 -196v-110h-80v110c-113 0 -249 29 -249 148c0 51 43 83 91 83c42 0 83 -26 83 -67c0 -38 -26 -56 -64 -61c26 -28 99 -34 139 -34z" />
    <glyph glyph-name="percent" unicode="%" horiz-adv-x="833" 
d="M183 -15l414 635h60l-417 -635h-57zM630 307c-37 0 -57 -25 -57 -134s20 -133 57 -133s57 24 57 133s-20 134 -57 134zM203 565c-37 0 -57 -25 -57 -134s20 -133 57 -133s57 24 57 133s-20 134 -57 134zM630 362c121 0 166 -83 166 -189s-45 -188 -166 -188
s-166 82 -166 188s45 189 166 189zM203 620c121 0 166 -83 166 -189s-45 -188 -166 -188s-166 82 -166 188s45 189 166 189z" />
    <glyph glyph-name="ampersand" unicode="&#x26;" horiz-adv-x="889" 
d="M253 309c-39 -25 -53 -60 -53 -105c0 -70 61 -124 129 -124c28 0 58 9 81 25c-63 59 -110 133 -157 204zM412 544c0 36 -20 51 -54 51c-31 0 -47 -26 -47 -54c0 -19 23 -64 36 -79c38 17 65 37 65 82zM750 231h90v-42c0 -130 -56 -209 -192 -209c-60 0 -119 19 -168 55
c-61 -42 -138 -55 -192 -55c-184 0 -251 104 -251 221c0 113 70 160 164 203c-19 27 -32 61 -32 116c0 94 75 163 171 163c103 0 172 -58 172 -151c0 -68 -52 -128 -110 -157c42 -55 79 -118 129 -166l20 24c18 22 35 52 35 68c0 19 -19 25 -38 25h-36v88h287v-88
c-55 0 -77 -2 -90 -22l-115 -170c16 -22 42 -49 85 -49c51 0 71 49 71 109v37z" />
    <glyph glyph-name="quoteright" unicode="&#x2019;" horiz-adv-x="278" 
d="M62 410v49c43 12 78 29 84 78c-10 -7 -22 -7 -33 -7c-38 0 -62 28 -62 65c0 55 30 88 86 88c57 0 90 -49 90 -102c0 -101 -72 -156 -165 -171z" />
    <glyph glyph-name="parenleft" unicode="(" horiz-adv-x="389" 
d="M363 683v-82c-113 -17 -162 -111 -162 -355c0 -232 49 -338 165 -355v-83c-236 0 -349 218 -349 437s113 438 346 438z" />
    <glyph glyph-name="parenright" unicode=")" horiz-adv-x="389" 
d="M26 -192v82c113 17 162 111 162 355c0 232 -49 338 -165 355v83c236 0 349 -218 349 -437s-113 -438 -346 -438z" />
    <glyph glyph-name="asterisk" unicode="*" horiz-adv-x="500" 
d="M251 683c27 0 47 -17 47 -45c0 -38 -46 -92 -39 -138c56 37 68 77 94 96c8 6 20 10 31 10c23 0 46 -16 46 -51c0 -34 -31 -44 -68 -49c-36 -5 -76 -5 -95 -19c18 -18 58 -20 94 -27c35 -7 67 -14 67 -49c0 -25 -13 -47 -41 -47c-56 0 -50 51 -128 107
c-7 -46 39 -100 39 -138c0 -28 -20 -45 -47 -45s-47 17 -47 45c0 38 46 92 37 138c-78 -56 -72 -107 -128 -107c-28 0 -41 22 -41 47c0 35 32 42 67 49c36 7 76 9 94 27c-37 29 -163 0 -163 68c0 36 25 51 48 51c11 0 21 -4 29 -10c26 -19 38 -59 94 -96
c9 46 -37 100 -37 138c0 28 20 45 47 45z" />
    <glyph glyph-name="plus" unicode="+" horiz-adv-x="600" 
d="M244 289v179h111v-179h178v-111h-178v-178h-111v178h-178v111h178z" />
    <glyph glyph-name="comma" unicode="," horiz-adv-x="305" 
d="M71 -137v55c50 9 86 35 98 86c-14 -3 -26 -8 -41 -8c-39 0 -70 27 -70 67c0 51 30 90 84 90c66 0 104 -45 104 -109c0 -98 -82 -169 -175 -181z" />
    <glyph glyph-name="hyphen" unicode="-" horiz-adv-x="333" 
d="M297 164h-262v140h262v-140z" />
    <glyph glyph-name="period" unicode="." horiz-adv-x="305" 
d="M152 153c45 0 84 -38 84 -84s-39 -83 -84 -83s-83 37 -83 83s38 84 83 84z" />
    <glyph glyph-name="slash" unicode="/" horiz-adv-x="278" 
d="M-34 -20l235 703h111l-235 -703h-111z" />
    <glyph glyph-name="zero" unicode="0" 
d="M305 620c206 0 281 -140 281 -318s-75 -317 -281 -317s-281 139 -281 317s75 318 281 318zM208 302c0 -174 21 -237 97 -237s97 63 97 237s-21 238 -97 238s-97 -64 -97 -238z" />
    <glyph glyph-name="one" unicode="1" 
d="M269 605h130v-473c0 -28 14 -48 44 -48h62v-84h-389v84h66c30 0 44 20 44 48v309h-108v84h25c58 0 100 19 126 80z" />
    <glyph glyph-name="two" unicode="2" 
d="M115 0h-87v42c0 250 336 227 336 391c0 71 -57 107 -122 107c-49 0 -109 -27 -122 -80c12 6 27 8 39 8c38 0 66 -37 66 -71c0 -32 -15 -80 -95 -80c-60 0 -102 43 -102 104c0 144 144 199 267 199c124 0 253 -55 253 -198c0 -240 -316 -164 -407 -306l2 -2
c41 29 77 38 128 38c33 0 58 -6 83 -11s49 -12 80 -12c46 0 50 47 50 81h85v-49c0 -115 -59 -176 -175 -176c-46 0 -85 14 -121 28s-68 28 -101 28c-32 0 -53 -12 -57 -41z" />
    <glyph glyph-name="three" unicode="3" 
d="M243 277v80c63 0 119 13 119 87c0 70 -58 96 -120 96c-41 0 -73 -7 -102 -38c46 0 83 -16 83 -67c0 -49 -46 -71 -90 -71c-52 0 -89 37 -89 90c0 127 138 166 242 166c102 0 260 -29 260 -160c0 -83 -59 -118 -133 -132v-2c85 -22 151 -55 151 -156
c0 -150 -122 -185 -271 -185c-127 0 -263 24 -263 165c0 65 36 102 100 102c46 0 84 -31 84 -79c0 -49 -37 -71 -83 -71c17 -22 73 -37 99 -37c73 0 150 22 150 111s-62 101 -137 101z" />
    <glyph glyph-name="four" unicode="4" 
d="M126 267h182v192zM12 183v95l313 327h156v-338h98v-84h-98v-51c0 -28 14 -48 44 -48h54v-84h-381v84h66c30 0 44 20 44 48v51h-296z" />
    <glyph glyph-name="five" unicode="5" 
d="M72 306l23 314c35 -5 70 -9 105 -12c34 -2 69 -3 104 -3s82 4 123 8c41 3 76 7 85 7c12 0 19 -7 19 -18c0 -72 -137 -123 -265 -123c-35 0 -68 5 -92 14l-3 -91c40 25 85 33 131 33c139 0 255 -73 255 -222c0 -156 -131 -228 -272 -228c-111 0 -250 37 -250 171
c0 55 40 97 95 97c50 0 89 -27 89 -80c0 -45 -36 -68 -78 -70c22 -23 57 -38 89 -38c102 0 143 56 143 152c0 74 -33 129 -115 129c-32 0 -63 -7 -90 -40h-96z" />
    <glyph glyph-name="six" unicode="6" 
d="M311 290c-51 0 -82 -36 -82 -113s31 -112 82 -112s82 35 82 112s-31 113 -82 113zM218 380v-55c54 37 87 45 153 45c112 0 206 -66 206 -183c0 -142 -126 -202 -254 -202c-197 0 -289 111 -289 291c0 205 95 344 313 344c79 0 205 -40 205 -127c0 -62 -36 -87 -99 -87
c-43 0 -78 29 -78 66c0 31 12 45 39 59c-17 11 -33 15 -51 15c-103 0 -145 -74 -145 -166z" />
    <glyph glyph-name="seven" unicode="7" 
d="M134 605v-68h6c38 51 77 69 144 69c74 0 129 -38 182 -38c25 0 43 12 43 37h77v-18c0 -167 -210 -266 -210 -543v-44h-184v25c0 270 138 281 264 449l-2 2c-34 -20 -71 -24 -108 -24c-21 0 -45 4 -69 8s-47 8 -65 8c-44 0 -78 -40 -78 -113v-29h-85v279h85z" />
    <glyph glyph-name="eight" unicode="8" 
d="M337 216l-115 42c-39 -14 -73 -58 -73 -91c0 -87 82 -108 154 -108c53 0 123 18 123 82c0 29 -17 49 -89 75zM366 388l26 16c25 15 37 34 37 65c0 62 -67 77 -117 77c-46 0 -106 -11 -106 -68c0 -22 13 -39 37 -47zM312 620c97 0 237 -30 237 -151
c0 -65 -48 -95 -103 -114c81 -32 135 -81 135 -174c0 -153 -137 -196 -281 -196c-109 0 -271 23 -271 165c0 80 43 123 116 149c-50 25 -94 70 -94 129c0 154 131 192 261 192z" />
    <glyph glyph-name="nine" unicode="9" 
d="M299 540c-51 0 -82 -36 -82 -113s31 -112 82 -112s82 35 82 112s-31 113 -82 113zM393 246v34c-54 -37 -87 -45 -153 -45c-120 0 -207 63 -207 183c0 142 127 202 255 202c200 0 289 -136 289 -291c0 -205 -103 -344 -311 -344h-1c-80 0 -206 27 -206 127
c0 62 40 87 87 87c55 0 90 -29 90 -66c0 -31 -12 -45 -39 -59c17 -11 33 -15 51 -15c103 0 145 74 145 187z" />
    <glyph glyph-name="colon" unicode=":" horiz-adv-x="305" 
d="M152 153c45 0 84 -38 84 -84s-39 -83 -84 -83s-83 37 -83 83s38 84 83 84zM152 443c45 0 84 -38 84 -84s-39 -83 -84 -83s-83 37 -83 83s38 84 83 84z" />
    <glyph glyph-name="semicolon" unicode=";" horiz-adv-x="305" 
d="M71 -137v55c50 9 86 35 98 86c-14 -3 -26 -8 -41 -8c-39 0 -70 27 -70 67c0 51 30 90 84 90c66 0 104 -45 104 -109c0 -98 -82 -169 -175 -181zM155 443c45 0 84 -38 84 -84s-39 -83 -84 -83s-83 37 -83 83s38 84 83 84z" />
    <glyph glyph-name="less" unicode="&#x3c;" horiz-adv-x="600" 
d="M554 88v-115l-508 214v94l508 214v-115l-352 -146z" />
    <glyph glyph-name="equal" unicode="=" horiz-adv-x="600" 
d="M533 388v-111h-467v111h467zM533 191v-111h-467v111h467z" />
    <glyph glyph-name="greater" unicode="&#x3e;" horiz-adv-x="600" 
d="M46 88l352 146l-352 146v115l508 -214v-94l-508 -214v115z" />
    <glyph glyph-name="question" unicode="?" horiz-adv-x="556" 
d="M301 207h-99c1 32 3 53 9 71c27 80 118 122 118 221c0 59 -54 89 -107 89c-54 0 -98 -28 -108 -83c14 7 29 11 44 11c42 0 70 -34 70 -74c0 -53 -36 -80 -87 -80c-70 0 -103 58 -103 122c0 125 113 199 229 199c97 0 241 -51 241 -185c0 -74 -49 -124 -98 -160
c-51 -37 -106 -59 -109 -131zM251 153c45 0 84 -38 84 -84s-39 -83 -84 -83s-83 37 -83 83s38 84 83 84z" />
    <glyph glyph-name="at" unicode="@" horiz-adv-x="800" 
d="M500 390c0 42 -8 65 -38 65c-44 0 -111 -73 -111 -166c0 -52 21 -85 41 -85c49 0 94 54 108 186zM524 469l10 33h78l-59 -240c-2 -7 -2 -15 -2 -23c0 -24 9 -49 29 -49c41 0 93 109 93 192c0 111 -98 223 -255 223c-103 0 -247 -73 -247 -265c0 -180 132 -282 257 -282
c90 0 144 17 202 48l10 -62c-62 -36 -131 -64 -211 -64c-266 0 -383 184 -383 356c0 199 171 347 372 347c189 0 335 -128 335 -300c0 -104 -68 -243 -189 -243c-68 0 -93 58 -92 74h-2c-6 -16 -56 -73 -117 -73c-40 0 -98 30 -98 124c0 90 64 253 201 253
c48 0 55 -25 68 -49z" />
    <glyph glyph-name="A" unicode="A" horiz-adv-x="778" 
d="M282 663h200l167 -500c20 -61 34 -75 69 -75h34v-88h-365v88h30c30 0 55 4 55 15c0 10 -1 21 -5 36l-21 72h-204l-12 -40c-11 -35 -15 -50 -15 -64c0 -16 35 -19 62 -19h29v-88h-294v88h34c35 0 49 14 69 75zM342 514l-71 -215h145l-72 215h-2z" />
    <glyph glyph-name="B" unicode="B" horiz-adv-x="722" 
d="M109 128v407c0 25 -14 40 -39 40h-57v88h431c144 0 212 -65 212 -155c0 -89 -62 -138 -143 -157v-2c85 -26 175 -51 175 -171c0 -128 -76 -178 -270 -178h-404v88h56c25 0 39 15 39 40zM297 300v-212h67c71 0 127 20 127 106s-56 106 -127 106h-67zM297 575v-187h55
c68 0 116 21 116 94s-48 93 -116 93h-55z" />
    <glyph glyph-name="C" unicode="C" horiz-adv-x="722" 
d="M566 616l20 56h90v-272h-93c0 103 -56 190 -169 190c-111 0 -171 -80 -171 -258c0 -158 39 -259 179 -259c105 0 161 87 161 180h93c-3 -184 -112 -273 -297 -273c-207 0 -353 118 -353 352c0 212 146 351 340 351c50 0 156 -25 200 -67z" />
    <glyph glyph-name="D" unicode="D" horiz-adv-x="778" 
d="M110 128v407c0 25 -14 40 -39 40h-60v88h363c227 0 374 -99 374 -337c0 -228 -144 -326 -380 -326h-356v88h59c25 0 39 15 39 40zM298 575v-487h46c132 0 192 46 192 244s-60 243 -192 243h-46z" />
    <glyph glyph-name="E" unicode="E" horiz-adv-x="722" 
d="M118 128v407c0 25 -14 40 -39 40h-62v88h665v-254h-93c0 144 -56 166 -184 166h-99v-191h31c58 0 79 23 79 85v22h83v-302h-83v24c0 37 -14 83 -50 83h-60v-208h122c105 0 161 22 161 183h93v-271h-664v88h61c25 0 39 15 39 40z" />
    <glyph glyph-name="F" unicode="F" horiz-adv-x="722" 
d="M410 0h-389v88h61c25 0 39 15 39 40v407c0 25 -14 40 -39 40h-62v88h665v-254h-93c0 144 -56 166 -184 166h-99v-191h31c57 0 79 26 79 68v39h83v-302h-83v39c0 42 -22 68 -79 68h-31v-168c0 -25 14 -40 39 -40h62v-88z" />
    <glyph glyph-name="G" unicode="G" horiz-adv-x="778" 
d="M771 350v-88h-46c-25 0 -39 -15 -39 -40v-230h-87l-22 49c-58 -45 -132 -61 -197 -61c-208 0 -354 118 -354 342c0 226 141 361 354 361c58 0 130 -19 180 -67l20 56h90v-272h-93c-3 99 -62 190 -163 190c-116 0 -171 -86 -171 -259s55 -256 171 -256c38 0 84 15 84 62
v85c0 25 -14 40 -39 40h-52v88h364z" />
    <glyph glyph-name="H" unicode="H" horiz-adv-x="833" 
d="M306 388h220v157c0 20 -14 30 -39 30h-42v88h370v-88h-62c-25 0 -39 -15 -39 -40v-410c0 -26 14 -37 39 -37h61v-88h-368v88h41c25 0 39 6 39 33v179h-220v-177c0 -24 14 -35 39 -35h41v-88h-368v88h61c25 0 39 15 39 40v420c0 17 -14 27 -39 27h-62v88h370v-88h-42
c-25 0 -39 -9 -39 -43v-144z" />
    <glyph glyph-name="I" unicode="I" horiz-adv-x="444" 
d="M417 663v-88h-62c-25 0 -39 -4 -39 -40v-407c0 -25 14 -40 39 -40h61v-88h-388v88h61c25 0 39 15 39 40v421c0 17 -14 26 -39 26h-62v88h390z" />
    <glyph glyph-name="J" unicode="J" 
d="M197 663h390v-88h-62c-25 0 -39 -8 -39 -25v-342c0 -143 -68 -228 -233 -228c-137 0 -252 55 -252 184c0 66 35 125 107 125c54 0 98 -31 98 -88s-40 -82 -75 -82c-16 0 -31 3 -41 11h-2c16 -45 61 -57 105 -57c78 0 105 56 105 135v339c0 19 -14 28 -39 28h-62v88z" />
    <glyph glyph-name="K" unicode="K" horiz-adv-x="833" 
d="M440 663h352v-88c-62 0 -87 -2 -113 -25l-148 -130l168 -274c31 -51 52 -58 76 -58h35v-88h-372v88h36c19 0 39 2 39 11c0 10 -9 26 -18 40l-99 161l-103 -87v-85c0 -25 14 -40 39 -40h51v-88h-368v88h51c25 0 39 15 39 40v407c0 25 -14 40 -39 40h-52v88h370v-88h-52
c-25 0 -39 -15 -39 -40v-188l122 106c57 49 113 94 113 103c0 18 -25 19 -49 19h-39v88z" />
    <glyph glyph-name="L" unicode="L" horiz-adv-x="667" 
d="M642 0h-629v88h61c25 0 39 15 39 40v407c0 25 -14 40 -39 40h-62v88h390v-88h-62c-25 0 -39 -15 -39 -40v-447h109c120 0 139 77 139 185h93v-273z" />
    <glyph glyph-name="M" unicode="M" horiz-adv-x="1000" 
d="M19 663h362l115 -407h2l118 407h356v-88h-55c-25 0 -39 -15 -39 -40v-407c0 -25 14 -40 39 -40h55v-88h-363v88h42c25 0 39 15 39 40v422h-2l-157 -550h-146l-156 560h-2v-432c0 -25 14 -40 39 -40h42v-88h-289v88h60c25 0 39 15 39 40v407c0 25 -14 40 -39 40h-60v88z
" />
    <glyph glyph-name="N" unicode="N" horiz-adv-x="833" 
d="M343 663l259 -457h2v329c0 25 -14 40 -39 40h-61v88h308v-88h-60c-25 0 -39 -15 -39 -40v-535h-202l-278 493h-2v-365c0 -25 14 -40 39 -40h61v-88h-309v88h61c25 0 39 15 39 40v407c0 25 -14 40 -39 40h-62v88h322z" />
    <glyph glyph-name="O" unicode="O" horiz-adv-x="778" 
d="M389 590c-100 0 -146 -84 -146 -259s46 -258 146 -258s146 83 146 258s-46 259 -146 259zM389 683c220 0 363 -135 363 -352s-143 -351 -363 -351s-363 134 -363 351s143 352 363 352z" />
    <glyph glyph-name="P" unicode="P" horiz-adv-x="722" 
d="M118 128v407c0 25 -14 40 -39 40h-62v88h419c164 0 261 -51 261 -188s-97 -189 -281 -189h-110v-158c0 -25 14 -40 39 -40h67v-88h-394v88h61c25 0 39 15 39 40zM306 575v-201h86c70 0 117 38 117 100s-45 101 -101 101h-102z" />
    <glyph glyph-name="Q" unicode="Q" horiz-adv-x="833" 
d="M398 313c52 0 101 -29 146 -68c4 25 6 54 6 86c0 175 -46 259 -146 259s-146 -84 -146 -259c0 -50 4 -92 11 -125h2c9 66 47 107 127 107zM304 141c0 -52 60 -68 103 -68c40 0 69 9 94 41c-41 47 -83 85 -134 85c-36 0 -63 -20 -63 -58zM783 170h55
c0 -192 -60 -218 -135 -218c-45 0 -83 27 -116 67c-52 -26 -113 -39 -183 -39c-220 0 -363 134 -363 351s143 352 363 352s363 -135 363 -352c0 -89 -24 -163 -69 -222c17 -17 29 -22 42 -22c24 0 43 25 43 83z" />
    <glyph glyph-name="R" unicode="R" horiz-adv-x="833" 
d="M306 575v-187h96c74 0 111 16 111 96c0 74 -43 91 -135 91h-72zM118 128v407c0 25 -14 40 -39 40h-62v88h461c140 0 223 -55 223 -162c0 -95 -64 -138 -151 -150v-2c75 -21 117 -45 117 -127v-105c0 -19 7 -34 34 -34c26 0 33 31 33 62v40h67v-34
c0 -97 -34 -171 -163 -171c-95 0 -159 47 -159 164v82c0 60 -10 74 -91 74h-82v-172c0 -25 14 -40 39 -40h62v-88h-389v88h61c25 0 39 15 39 40z" />
    <glyph glyph-name="S" unicode="S" horiz-adv-x="667" 
d="M606 672v-246h-92c-15 105 -108 164 -196 164c-58 0 -112 -19 -112 -86c0 -126 433 -25 433 -310c0 -160 -138 -214 -276 -214c-77 0 -155 16 -218 62l-26 -53h-84v262h93c13 -105 100 -178 218 -178c52 0 115 29 115 86c0 143 -433 27 -433 314c0 165 149 210 287 210
c68 0 133 -22 190 -58l18 47h83z" />
    <glyph glyph-name="T" unicode="T" horiz-adv-x="722" 
d="M122 409h-93v254h664v-254h-93c0 102 -30 166 -145 166v-447c0 -25 14 -40 39 -40h60v-88h-388v88h62c25 0 39 15 39 40v447c-115 0 -145 -64 -145 -166z" />
    <glyph glyph-name="U" unicode="U" horiz-adv-x="778" 
d="M15 575v88h390v-88h-62c-25 0 -39 -15 -39 -40v-353c0 -64 35 -109 116 -109c116 0 136 51 136 175v287c0 25 -14 40 -39 40h-59v88h305v-88h-59c-25 0 -39 -15 -39 -40v-321c0 -148 -79 -234 -265 -234c-176 0 -284 56 -284 224v331c0 25 -14 40 -39 40h-62z" />
    <glyph glyph-name="V" unicode="V" horiz-adv-x="778" 
d="M23 663h377v-88h-64c-20 0 -31 -7 -31 -21c0 -17 10 -44 16 -63l105 -328h2l106 328c6 19 16 46 15 63c1 14 -10 21 -30 21h-57v88h292v-88h-24c-44 0 -60 -12 -77 -62l-173 -513h-178l-174 513c-17 50 -33 62 -84 62h-21v88z" />
    <glyph glyph-name="W" unicode="W" horiz-adv-x="1000" 
d="M19 575v88h303v-88h-27c-20 0 -30 -5 -30 -25c0 -15 9 -39 13 -55l91 -339h2l88 307l-18 59c-10 33 -27 53 -52 53h-21v88h318v-88h-45c-20 0 -30 -5 -30 -25c0 -15 9 -39 13 -55l85 -328h2l83 328c5 20 11 41 11 58c0 14 -16 22 -26 22h-45v88h246v-88h-12
c-31 0 -54 -13 -70 -72l-130 -503h-185l-76 279h-2l-80 -279h-186l-133 471c-22 79 -43 104 -74 104h-13z" />
    <glyph glyph-name="X" unicode="X" horiz-adv-x="778" 
d="M327 0h-308v88c55 0 82 1 126 55l139 172l-163 226c-24 34 -57 34 -88 34v88h354v-88h-39c-11 0 -22 -3 -22 -14c0 -9 4 -17 10 -26l72 -104l82 104c7 8 10 17 10 26c0 11 -11 14 -22 14h-37v88h287v-88h-28c-26 0 -48 -8 -76 -42l-138 -171l173 -237
c21 -29 50 -37 72 -37h27v-88h-371v88h48c14 0 24 2 24 13c0 8 -4 17 -15 32l-83 115l-91 -115c-11 -14 -15 -24 -15 -32c0 -11 10 -13 24 -13h48v-88z" />
    <glyph glyph-name="Y" unicode="Y" horiz-adv-x="778" 
d="M23 663h381v-88h-41c-19 0 -31 -4 -31 -16c0 -11 10 -26 15 -34l88 -137l89 137c5 8 15 23 15 34c0 12 -11 16 -31 16h-41v88h288v-88h-21c-36 0 -56 -7 -69 -27l-178 -281v-139c0 -25 14 -40 39 -40h68v-88h-400v88h66c25 0 39 15 39 40v139l-158 252
c-27 42 -43 56 -97 56h-21v88z" />
    <glyph glyph-name="Z" unicode="Z" horiz-adv-x="667" 
d="M29 0v91l385 484h-107c-137 0 -174 -45 -174 -165h-93v253h591v-90l-385 -485h116c138 0 174 49 174 183h93v-271h-600z" />
    <glyph glyph-name="bracketleft" unicode="[" horiz-adv-x="389" 
d="M354 -174h-298v837h298v-84h-125v-669h125v-84z" />
    <glyph glyph-name="backslash" unicode="\" horiz-adv-x="278" 
d="M77 683l235 -703h-111l-235 703h111z" />
    <glyph glyph-name="bracketright" unicode="]" horiz-adv-x="389" 
d="M35 -174v84h125v669h-125v84h298v-837h-298z" />
    <glyph glyph-name="asciicircum" unicode="^" horiz-adv-x="600" 
d="M189 240h-116l174 365h106l174 -365h-117l-110 248z" />
    <glyph glyph-name="underscore" unicode="_" horiz-adv-x="500" 
d="M0 -75h500v-50h-500v50z" />
    <glyph glyph-name="quoteleft" unicode="&#x2018;" horiz-adv-x="278" 
d="M216 683v-49c-43 -12 -78 -29 -84 -78c10 7 22 7 33 7c38 0 62 -28 62 -65c0 -55 -30 -88 -86 -88c-57 0 -90 49 -90 102c0 101 72 156 165 171z" />
    <glyph glyph-name="a" unicode="a" 
d="M324 163v68c-48 -28 -129 -34 -129 -96c0 -41 26 -56 57 -56c57 0 72 42 72 84zM542 171h55v-55c0 -100 -38 -131 -149 -131c-48 0 -95 23 -111 71c-41 -49 -89 -71 -154 -71c-95 0 -154 37 -154 139c0 189 297 78 297 209c0 66 -42 88 -97 88c-27 0 -55 -4 -79 -19v-2
c30 -4 63 -20 63 -55c0 -44 -39 -63 -79 -63c-47 0 -87 27 -87 74c0 111 151 127 232 127c137 0 211 -32 211 -178v-186c0 -29 3 -40 19 -40c22 0 33 13 33 69v23z" />
    <glyph glyph-name="b" unicode="b" 
d="M62 0v540c0 28 -7 43 -36 43h-46v80h248v-249c37 42 84 69 129 69c150 0 206 -117 206 -249s-56 -249 -206 -249c-63 0 -119 22 -154 77l-29 -62h-112zM307 397c-56 0 -79 -61 -79 -163s23 -163 79 -163s79 61 79 163s-23 163 -79 163z" />
    <glyph glyph-name="c" unicode="c" horiz-adv-x="500" 
d="M378 162h99c-4 -128 -95 -177 -207 -177c-149 0 -248 82 -248 249s120 249 248 249c107 0 207 -52 207 -162c0 -53 -33 -98 -89 -98c-48 0 -88 20 -88 73c0 46 32 73 77 73c-18 22 -49 34 -80 34c-51 0 -98 -51 -98 -166s29 -166 98 -166c52 0 76 45 81 91z" />
    <glyph glyph-name="d" unicode="d" 
d="M276 78c56 0 79 62 79 160s-23 159 -79 159s-79 -61 -79 -159s23 -160 79 -160zM363 0v73h-2c-29 -61 -81 -88 -145 -88c-151 0 -196 127 -196 249s45 249 196 249c60 0 116 -23 137 -67l2 2v139c0 28 -7 43 -36 43h-41v80h243v-557c0 -28 7 -43 36 -43h39v-80h-233z" />
    <glyph glyph-name="e" unicode="e" horiz-adv-x="556" 
d="M531 211h-330c0 -70 16 -140 100 -140c35 0 92 27 101 86h116c-16 -120 -133 -172 -241 -172c-171 0 -253 95 -253 249c0 155 110 249 253 249c163 0 254 -116 254 -272zM203 291h151v26c0 51 -27 86 -75 86c-49 0 -76 -35 -76 -86v-26z" />
    <glyph glyph-name="f" unicode="f" horiz-adv-x="389" 
d="M18 456h74v24c0 142 61 203 189 203c70 0 165 -26 165 -110c0 -38 -30 -77 -69 -77c-38 0 -70 26 -70 66c0 26 16 45 40 48v2c-12 2 -24 5 -37 5c-47 0 -52 -41 -52 -82v-79h84v-80h-84v-253c0 -28 7 -43 36 -43h41v-80h-322v80h43c29 0 36 15 36 43v253h-74v80z" />
    <glyph glyph-name="g" unicode="g" horiz-adv-x="667" 
d="M283 422c-44 0 -58 -51 -58 -125s14 -124 58 -124s58 50 58 124s-14 125 -58 125zM203 63h203c86 0 175 -21 175 -125c0 -125 -136 -150 -292 -150c-144 0 -252 24 -252 98c0 47 45 68 84 75v2c-38 13 -76 46 -76 90c0 60 33 81 86 102c-47 33 -68 80 -68 152
c0 120 117 176 222 176c54 0 106 -18 152 -45c31 27 68 45 110 45c55 0 109 -34 109 -94c0 -46 -28 -72 -74 -72c-33 0 -55 25 -55 57c0 22 12 37 28 50c-22 4 -52 18 -86 -21c18 -30 35 -67 35 -103c0 -131 -106 -189 -230 -189c-34 0 -70 4 -102 17
c-10 -3 -20 -14 -20 -29c0 -25 35 -36 51 -36zM161 -104c0 -29 67 -41 151 -41s151 12 151 41c0 35 -67 41 -151 41s-151 -6 -151 -41z" />
    <glyph glyph-name="h" unicode="h" horiz-adv-x="667" 
d="M16 663h235v-272h2c44 64 91 92 172 92c114 0 152 -66 152 -170v-190c0 -28 7 -43 36 -43h38v-80h-297v80h21c29 0 36 15 36 43v172c0 58 -9 98 -77 98c-46 0 -75 -43 -75 -85v-185c0 -28 7 -43 36 -43h24v-80h-302v80h40c29 0 36 15 36 43v417c0 28 -7 43 -36 43h-41v80
z" />
    <glyph glyph-name="i" unicode="i" horiz-adv-x="389" 
d="M278 468v-345c0 -28 7 -43 36 -43h41v-80h-322v80h43c29 0 36 15 36 43v222c0 28 -7 43 -36 43h-46v80h248zM191 683c49 0 87 -38 87 -87s-38 -87 -87 -87s-87 38 -87 87s38 87 87 87z" />
    <glyph glyph-name="j" unicode="j" horiz-adv-x="389" 
d="M134 -101v446c0 28 -7 43 -36 43h-46v80h248v-507c0 -126 -75 -173 -195 -173c-66 0 -156 23 -156 105c0 44 27 73 71 73c38 0 69 -18 69 -59c0 -24 -11 -39 -32 -50c11 -5 28 -9 46 -9c23 0 31 23 31 51zM213 683c49 0 87 -38 87 -87s-38 -87 -87 -87s-87 38 -87 87
s38 87 87 87z" />
    <glyph glyph-name="k" unicode="k" horiz-adv-x="667" 
d="M90 123v417c0 28 -7 43 -36 43h-36v80h238v-411l125 100c13 10 16 21 16 25c0 8 -10 11 -22 11h-50v80h292v-80h-26c-27 0 -37 -4 -52 -16l-85 -68l123 -198c12 -19 25 -26 47 -26h25v-80h-303v80h28c16 0 20 5 20 13c0 7 -3 14 -8 22l-54 90l-76 -64v-18
c0 -34 7 -43 36 -43h16v-80h-291v80h37c29 0 36 15 36 43z" />
    <glyph glyph-name="l" unicode="l" horiz-adv-x="389" 
d="M278 663v-540c0 -28 7 -43 36 -43h41v-80h-322v80h43c29 0 36 15 36 43v417c0 28 -7 43 -36 43h-46v80h248z" />
    <glyph glyph-name="m" unicode="m" horiz-adv-x="944" 
d="M17 468h232v-80h2c37 62 90 95 164 95c63 0 113 -29 136 -89c35 55 92 89 158 89c103 0 152 -53 152 -147v-213c0 -28 7 -43 36 -43h34v-80h-287v80h15c29 0 36 15 36 43v184c0 35 -17 86 -63 86c-54 0 -72 -31 -72 -75v-215c0 -19 5 -23 36 -23h13v-80h-265v80h14
c29 0 36 12 36 43v184c0 50 -6 86 -63 86c-54 0 -72 -43 -72 -90v-200c0 -14 7 -23 36 -23h16v-80h-297v80h43c29 0 36 15 36 43v222c0 28 -7 43 -36 43h-40v80z" />
    <glyph glyph-name="n" unicode="n" horiz-adv-x="667" 
d="M16 468h235v-77h2c44 64 91 92 172 92c114 0 152 -66 152 -170v-190c0 -28 7 -43 36 -43h38v-80h-297v80h21c29 0 36 15 36 43v172c0 58 -9 98 -77 98c-46 0 -75 -43 -75 -85v-185c0 -28 7 -43 36 -43h24v-80h-302v80h40c29 0 36 15 36 43v222c0 28 -7 43 -36 43h-41v80z
" />
    <glyph glyph-name="o" unicode="o" horiz-adv-x="556" 
d="M278 483c149 0 258 -89 258 -249s-109 -249 -258 -249s-258 89 -258 249s109 249 258 249zM278 403c-60 0 -81 -51 -81 -169s21 -169 81 -169s81 51 81 169s-21 169 -81 169z" />
    <glyph glyph-name="p" unicode="p" 
d="M311 390c-56 0 -79 -62 -79 -160s23 -159 79 -159s79 61 79 159s-23 160 -79 160zM224 468v-73h2c29 61 81 88 145 88c151 0 196 -127 196 -249s-45 -249 -196 -249c-60 0 -116 23 -137 67l-2 -2v-139c0 -28 7 -43 36 -43h41v-80h-317v80h38c29 0 36 15 36 43v434
c0 28 -7 43 -36 43h-39v80h233z" />
    <glyph glyph-name="q" unicode="q" 
d="M280 390c-56 0 -79 -62 -79 -160s23 -159 79 -159s79 61 79 159s-23 160 -79 160zM367 395v73h233v-80h-39c-29 0 -36 -15 -36 -43v-434c0 -28 7 -43 36 -43h38v-80h-317v80h41c29 0 36 15 36 43v139l-2 2c-21 -44 -77 -67 -137 -67c-151 0 -196 127 -196 249
s45 249 196 249c64 0 116 -27 145 -88h2z" />
    <glyph glyph-name="r" unicode="r" horiz-adv-x="500" 
d="M16 388v80h236v-80h2c20 48 58 95 117 95c62 0 114 -48 114 -114c0 -43 -33 -89 -80 -89c-42 0 -80 20 -80 66c0 34 19 55 52 61c-10 10 -19 11 -32 11c-52 0 -86 -67 -86 -116v-179c0 -28 7 -43 36 -43h41v-80h-320v80h41c29 0 36 15 36 43v222c0 28 -7 43 -36 43h-41z
" />
    <glyph glyph-name="s" unicode="s" horiz-adv-x="556" 
d="M41 168h82c4 -29 24 -55 50 -74c26 -18 58 -29 86 -29c29 0 85 0 85 44c0 84 -310 33 -310 216c0 120 124 158 224 158c53 0 109 -16 155 -42l12 30h69v-150h-76c-10 29 -28 48 -51 62s-50 20 -79 20c-23 0 -77 -5 -77 -39c0 -86 310 -21 310 -216
c0 -121 -111 -163 -214 -163c-62 0 -124 9 -176 45l-15 -34h-75v172z" />
    <glyph glyph-name="t" unicode="t" horiz-adv-x="444" 
d="M153 654h99v-186h123v-80h-123v-275c0 -21 11 -38 34 -38c38 0 48 27 48 73v78h80v-89c0 -98 -48 -152 -168 -152c-103 0 -160 50 -160 152v251h-67v80c100 0 126 103 134 186z" />
    <glyph glyph-name="u" unicode="u" horiz-adv-x="667" 
d="M641 0h-230v77h-2c-44 -64 -91 -92 -172 -92c-114 0 -152 49 -152 157v203c0 28 -7 43 -36 43h-33v80h235v-295c0 -71 0 -98 77 -98c46 0 75 43 75 85v185c0 28 -7 43 -36 43h-44v80h246v-345c0 -28 7 -43 36 -43h36v-80z" />
    <glyph glyph-name="v" unicode="v" 
d="M21 388v80h300v-80h-36c-17 0 -31 -3 -31 -15s4 -22 7 -30l75 -238h2l79 235c3 10 5 19 5 29c0 16 -14 19 -31 19h-28v80h227v-80h-25c-24 0 -41 -19 -51 -48l-120 -340h-185l-114 340c-10 29 -25 48 -56 48h-18z" />
    <glyph glyph-name="w" unicode="w" horiz-adv-x="889" 
d="M18 388v80h285v-80h-18c-20 0 -35 -4 -35 -18c0 -4 1 -8 2 -13l66 -245h2l73 245c2 5 2 9 2 13c0 14 -15 18 -35 18h-18v80h276v-80h-23c-20 0 -35 -4 -35 -18c0 -4 1 -8 2 -13l72 -251h2l65 237c3 10 4 20 4 27c0 14 -15 18 -35 18h-14v80h214v-80h-32
c-21 0 -37 -12 -52 -62l-98 -326h-178l-67 228h-2l-70 -228h-178l-92 327c-15 54 -41 61 -62 61h-21z" />
    <glyph glyph-name="x" unicode="x" horiz-adv-x="667" 
d="M361 468v-80h-21c-12 0 -25 -1 -25 -10c0 -5 6 -14 11 -20l50 -55l51 45c11 10 17 18 17 28c0 12 -16 12 -31 12h-10v80h241v-80h-22c-22 0 -45 -13 -71 -35l-122 -104l119 -133c20 -22 41 -36 62 -36h41v-80h-341v80h21c15 0 28 1 28 14c0 5 -7 14 -13 20l-52 54
l-66 -66c-5 -6 -8 -10 -8 -14c0 -7 12 -8 25 -8h24v-80h-246v80h27c21 0 44 11 69 34l123 114l-122 127c-19 20 -37 33 -63 33h-20v80h324z" />
    <glyph glyph-name="y" unicode="y" 
d="M364 468h223v-80h-19c-39 0 -48 -23 -59 -50l-133 -324c-52 -126 -104 -226 -211 -226c-84 0 -150 37 -150 129c0 53 34 85 86 85c39 0 75 -24 75 -66s-18 -64 -53 -64c-9 0 -20 1 -28 4c3 -24 38 -26 57 -26c61 0 86 64 108 120l-158 356c-15 37 -25 62 -51 62h-32v80
h303v-80h-33c-22 0 -33 -3 -33 -19c0 -6 2 -12 6 -21l82 -185h2l71 182c4 10 6 20 6 27c0 9 -8 16 -30 16h-29v80z" />
    <glyph glyph-name="z" unicode="z" horiz-adv-x="500" 
d="M472 380l-258 -300h90c56 0 86 26 86 84v53h80v-217h-442v97l252 291h-93c-53 0 -68 -22 -68 -71v-45h-80v196h433v-88z" />
    <glyph glyph-name="braceleft" unicode="{" horiz-adv-x="389" 
d="M79 -50v180c0 65 -20 96 -75 116c55 19 75 50 75 115v180c0 121 80 142 264 142v-50c-66 -7 -91 -46 -91 -116v-141c0 -71 -15 -111 -94 -130v-2c79 -18 94 -58 94 -129v-141c0 -70 25 -109 91 -116v-50c-184 0 -264 21 -264 142z" />
    <glyph glyph-name="bar" unicode="|" horiz-adv-x="222" 
d="M55 750h111v-1000h-111v1000z" />
    <glyph glyph-name="braceright" unicode="}" horiz-adv-x="389" 
d="M310 541v-180c0 -65 20 -96 75 -116c-55 -19 -75 -50 -75 -115v-180c0 -121 -80 -142 -264 -142v50c66 7 91 46 91 116v141c0 71 15 111 94 130v2c-79 18 -94 58 -94 129v141c0 70 -25 109 -91 116v50c184 0 264 -21 264 -142z" />
    <glyph glyph-name="asciitilde" unicode="~" horiz-adv-x="600" 
d="M495 327l36 -96c-30 -42 -63 -86 -125 -86c-40 0 -71 17 -104 34s-67 34 -113 34c-44 0 -68 -37 -84 -72l-36 96c22 42 58 86 125 86c37 0 78 -17 115 -34c38 -17 73 -34 98 -34c40 0 65 37 88 72z" />
    <glyph glyph-name="exclamdown" unicode="&#xa1;" horiz-adv-x="333" 
d="M118 266h97c0 -117 45 -277 45 -346c0 -63 -15 -132 -96 -132c-76 0 -91 69 -91 132c0 69 45 229 45 346zM163 318c-45 0 -84 38 -84 84s39 83 84 83s83 -37 83 -83s-38 -84 -83 -84z" />
    <glyph glyph-name="cent" unicode="&#xa2;" 
d="M381 235l-77 -151c11 -10 24 -13 39 -13c52 0 76 45 81 91h99c-4 -128 -95 -177 -212 -177c-19 0 -38 2 -55 5l-56 -109h-68l65 126c-80 33 -129 105 -129 210c0 163 87 266 255 266c37 0 74 -7 106 -22l46 90h68l-63 -124c27 -26 43 -61 43 -106c0 -75 -45 -98 -89 -98
c-21 0 -40 4 -53 12zM260 131l86 169c2 44 33 69 77 69c-18 22 -49 34 -77 34c-82 0 -101 -89 -101 -155c0 -37 1 -82 15 -117z" />
    <glyph glyph-name="sterling" unicode="&#xa3;" 
d="M65 -15l-40 104c63 30 99 79 99 139v34h-94v74h73c-17 31 -24 65 -24 98c0 135 126 186 242 186c97 0 249 -32 249 -155c0 -60 -36 -88 -88 -88c-43 0 -81 24 -81 69c0 58 35 52 35 65c0 26 -62 29 -81 29c-53 0 -103 -32 -103 -89c0 -41 13 -73 25 -115h121v-74h-116
c-7 -56 -42 -103 -89 -130l7 -8c45 22 65 31 115 31c26 0 50 -9 74 -17s46 -17 67 -17c42 0 49 41 49 62v22h80v-29c0 -97 -29 -191 -143 -191c-47 0 -88 12 -126 25s-73 25 -111 25c-55 0 -96 -24 -140 -50z" />
    <glyph glyph-name="fraction" unicode="&#x2044;" horiz-adv-x="167" 
d="M-167 -15l439 635h62l-437 -635h-64z" />
    <glyph glyph-name="yen" unicode="&#xa5;" 
d="M558 396v-74h-142l-28 -54h170v-74h-171v-66c0 -25 12 -40 33 -40h57v-88h-334v88h55c21 0 32 15 32 40v66h-171v74h170l-28 54h-142v74h103l-64 123c-22 42 -35 56 -80 56h-18v88h318v-88h-34c-16 0 -26 -4 -26 -16c0 -11 8 -26 12 -34l74 -137l74 137c4 8 13 23 13 34
c0 12 -9 16 -26 16h-34v88h240v-88h-18c-39 0 -50 -15 -72 -56l-65 -123h102z" />
    <glyph glyph-name="florin" unicode="&#x192;" 
d="M229 344h-125v74h138c19 135 75 265 234 265c60 0 125 -29 125 -97c0 -40 -28 -71 -69 -71s-67 18 -67 61c0 20 15 38 34 42v2c-9 2 -17 3 -26 3c-46 0 -59 -26 -63 -106l-5 -99h134v-74h-143l-35 -296c-16 -133 -66 -260 -224 -260c-55 0 -134 19 -134 88
c0 41 28 80 72 80c37 0 67 -19 67 -59c0 -22 -14 -43 -37 -42c5 -5 16 -7 23 -7c49 0 60 41 68 134z" />
    <glyph glyph-name="section" unicode="&#xa7;" 
d="M203 212l97 -44c20 -9 49 -18 72 -18c43 0 74 29 74 72c0 40 -41 66 -74 79l-82 31c-22 8 -43 13 -57 13c-43 0 -69 -34 -69 -70c0 -31 16 -52 39 -63zM292 683c78 0 219 -20 219 -124c0 -45 -30 -72 -74 -72c-38 0 -71 18 -71 60c0 19 11 35 26 47c-21 14 -51 21 -78 21
c-55 0 -110 -14 -110 -78c0 -115 345 -76 345 -280c0 -75 -43 -119 -110 -145c55 -32 89 -77 89 -142c0 -131 -117 -182 -231 -182c-90 0 -205 37 -205 144c0 41 30 74 75 74c34 0 70 -16 70 -62c0 -27 -14 -52 -39 -61c24 -19 54 -27 85 -27c59 0 134 10 134 86
c0 142 -356 78 -356 294c0 75 40 126 113 148c-44 23 -81 73 -81 123c0 114 91 176 199 176z" />
    <glyph glyph-name="currency" unicode="&#xa4;" 
d="M40 155l59 59c-30 33 -47 85 -47 141s15 113 47 144l-59 59l64 64l58 -58c30 27 89 45 146 45c54 0 109 -18 135 -43l59 59l69 -69l-57 -57c27 -29 43 -86 43 -142s-16 -111 -45 -145l57 -57l-61 -61l-59 59c-30 -31 -86 -49 -142 -49c-60 0 -115 17 -147 47l-58 -58z
M439 356c0 78 -61 141 -135 141s-134 -63 -134 -141s60 -140 134 -140s135 62 135 140z" />
    <glyph glyph-name="quotesingle" unicode="'" horiz-adv-x="222" 
d="M162 602l-20 -204c-1 -8 -10 -31 -31 -31s-30 23 -31 31l-20 204c-2 25 -6 81 51 81s53 -56 51 -81z" />
    <glyph glyph-name="quotedblleft" unicode="&#x201c;" horiz-adv-x="500" 
d="M197 683v-49c-43 -12 -78 -29 -84 -78c10 7 22 7 33 7c38 0 62 -28 62 -65c0 -55 -30 -88 -86 -88c-57 0 -90 49 -90 102c0 101 72 156 165 171zM457 683v-49c-43 -12 -78 -29 -84 -78c10 7 22 7 33 7c38 0 62 -28 62 -65c0 -55 -30 -88 -86 -88c-57 0 -90 49 -90 102
c0 101 72 156 165 171z" />
    <glyph glyph-name="guillemotleft" unicode="&#xab;" horiz-adv-x="500" 
d="M158 403h86l-16 -37c-10 -23 -51 -101 -51 -132s41 -109 51 -132l16 -37h-86l-42 61c-13 19 -63 77 -63 108s50 89 63 108zM362 403h86l-16 -37c-10 -23 -51 -101 -51 -132s41 -109 51 -132l16 -37h-86l-42 61c-13 19 -63 77 -63 108s50 89 63 108z" />
    <glyph glyph-name="guilsinglleft" unicode="&#x2039;" horiz-adv-x="278" 
d="M148 403h86l-16 -37c-10 -23 -51 -101 -51 -132s41 -109 51 -132l16 -37h-86l-42 61c-13 19 -63 77 -63 108s50 89 63 108z" />
    <glyph glyph-name="guilsinglright" unicode="&#x203a;" horiz-adv-x="278" 
d="M130 65h-86l16 37c10 23 51 101 51 132s-41 109 -51 132l-16 37h86l42 -61c13 -19 63 -77 63 -108s-50 -89 -63 -108z" />
    <glyph glyph-name="fi" unicode="&#xfb01;" horiz-adv-x="667" 
d="M258 376v-253c0 -28 7 -43 36 -43h24v-80h-300v80h38c29 0 36 15 36 43v253h-74v80h74v58c0 147 140 169 265 169c68 0 209 -23 209 -107c0 -52 -34 -76 -90 -76c-42 0 -72 22 -72 59c0 17 5 38 20 49c-29 8 -57 9 -87 9c-58 0 -79 -44 -79 -98v-63h326v-333
c0 -28 7 -43 36 -43h31v-80h-292v80h23c29 0 36 15 36 43v210c0 28 -7 43 -36 43h-124z" />
    <glyph glyph-name="fl" unicode="&#xfb02;" horiz-adv-x="667" 
d="M92 123v253h-74v80h74v39c0 122 74 188 220 188h272v-560c0 -28 7 -43 36 -43h29v-80h-292v80h25c29 0 36 15 36 43v375c-29 6 -56 21 -56 60c0 36 30 50 59 57v2h-52c-81 0 -111 -41 -111 -99v-62h85v-80h-85v-253c0 -28 7 -43 36 -43h24v-80h-300v80h38
c29 0 36 15 36 43z" />
    <glyph glyph-name="endash" unicode="&#x2013;" horiz-adv-x="500" 
d="M500 179h-500v110h500v-110z" />
    <glyph glyph-name="dagger" unicode="&#x2020;" 
d="M273 265v77c-59 0 -92 -38 -148 -38c-43 0 -66 28 -66 68c0 41 23 65 66 67c56 3 89 -37 147 -37c1 67 -40 132 -40 199c0 49 23 82 74 82c50 0 73 -33 73 -82c0 -67 -41 -132 -40 -199c58 0 91 40 147 37c43 -2 66 -26 66 -67c0 -40 -23 -68 -66 -68
c-56 0 -89 38 -148 38v-77c0 -73 41 -290 41 -384c0 -56 -22 -93 -73 -93c-52 0 -74 37 -74 93c0 94 41 311 41 384z" />
    <glyph glyph-name="daggerdbl" unicode="&#x2021;" 
d="M306 683c41 0 74 -27 74 -69c0 -58 -40 -119 -40 -174c28 0 51 10 73 20c23 9 45 19 73 17c43 -2 66 -26 66 -67c0 -40 -23 -68 -66 -68c-28 0 -50 10 -73 19c-22 10 -45 19 -73 19c0 -50 13 -102 44 -145c-31 -42 -44 -94 -44 -137c28 0 51 10 73 20c23 9 45 19 73 17
c43 -2 66 -26 66 -67c0 -40 -23 -68 -66 -68c-28 0 -50 10 -73 19c-22 10 -45 19 -73 19c0 -62 40 -123 40 -181c0 -42 -33 -69 -74 -69s-74 27 -74 69c0 58 40 119 40 179c-29 0 -52 -9 -74 -19c-23 -9 -45 -19 -73 -19c-43 0 -66 28 -66 68c0 41 23 65 66 67
c28 2 50 -8 73 -17c22 -10 45 -20 74 -20c0 45 -12 96 -42 139c30 44 42 95 42 147c-29 0 -52 -9 -74 -19c-23 -9 -45 -19 -73 -19c-43 0 -66 28 -66 68c0 41 23 65 66 67c28 2 50 -8 73 -17c22 -10 45 -20 74 -20c0 53 -40 114 -40 172c0 42 33 69 74 69z" />
    <glyph glyph-name="periodcentered" unicode="&#xb7;" horiz-adv-x="305" 
d="M231 234c0 -44 -36 -79 -79 -79c-44 0 -78 35 -78 79c0 43 34 78 78 78c43 0 79 -35 79 -78z" />
    <glyph glyph-name="paragraph" unicode="&#xb6;" horiz-adv-x="620" 
d="M568 663v-33c-30 0 -67 -16 -67 -70v-713h-114v783h-55v-783h-114v427c-89 0 -147 82 -147 194s58 195 147 195h350z" />
    <glyph glyph-name="bullet" unicode="&#x2022;" horiz-adv-x="500" 
d="M250 498c92 0 166 -73 166 -166s-74 -166 -166 -166s-166 73 -166 166s74 166 166 166z" />
    <glyph glyph-name="quotesinglbase" unicode="&#x201a;" horiz-adv-x="278" 
d="M62 -120v49c43 12 78 29 84 78c-10 -7 -22 -7 -33 -7c-38 0 -62 28 -62 65c0 55 30 88 86 88c57 0 90 -49 90 -102c0 -101 -72 -156 -165 -171z" />
    <glyph glyph-name="quotedblbase" unicode="&#x201e;" horiz-adv-x="500" 
d="M303 -120v49c43 12 78 29 84 78c-10 -7 -22 -7 -33 -7c-38 0 -62 28 -62 65c0 55 30 88 86 88c57 0 90 -49 90 -102c0 -101 -72 -156 -165 -171zM43 -120v49c43 12 78 29 84 78c-10 -7 -22 -7 -33 -7c-38 0 -62 28 -62 65c0 55 30 88 86 88c57 0 90 -49 90 -102
c0 -101 -72 -156 -165 -171z" />
    <glyph glyph-name="quotedblright" unicode="&#x201d;" horiz-adv-x="500" 
d="M303 410v49c43 12 78 29 84 78c-10 -7 -22 -7 -33 -7c-38 0 -62 28 -62 65c0 55 30 88 86 88c57 0 90 -49 90 -102c0 -101 -72 -156 -165 -171zM43 410v49c43 12 78 29 84 78c-10 -7 -22 -7 -33 -7c-38 0 -62 28 -62 65c0 55 30 88 86 88c57 0 90 -49 90 -102
c0 -101 -72 -156 -165 -171z" />
    <glyph glyph-name="guillemotright" unicode="&#xbb;" horiz-adv-x="500" 
d="M342 65h-86l16 37c10 23 51 101 51 132s-41 109 -51 132l-16 37h86l42 -61c13 -19 63 -77 63 -108s-50 -89 -63 -108zM138 65h-86l16 37c10 23 51 101 51 132s-41 109 -51 132l-16 37h86l42 -61c13 -19 63 -77 63 -108s-50 -89 -63 -108z" />
    <glyph glyph-name="ellipsis" unicode="&#x2026;" horiz-adv-x="1000" 
d="M166 153c45 0 84 -38 84 -84s-39 -83 -84 -83s-83 37 -83 83s38 84 83 84zM499 153c45 0 84 -38 84 -84s-39 -83 -84 -83s-83 37 -83 83s38 84 83 84zM832 153c45 0 84 -38 84 -84s-39 -83 -84 -83s-83 37 -83 83s38 84 83 84z" />
    <glyph glyph-name="perthousand" unicode="&#x2030;" horiz-adv-x="1000" 
d="M152 -15h-55l408 635h59zM161 572c-31 0 -56 -30 -56 -127s25 -127 56 -127s56 30 56 127s-25 127 -56 127zM496 287c-31 0 -56 -30 -56 -127s25 -127 56 -127s56 30 56 127s-25 127 -56 127zM161 620c104 0 153 -91 153 -175s-49 -175 -153 -175s-153 91 -153 175
s49 175 153 175zM496 335c104 0 153 -91 153 -175s-49 -175 -153 -175s-153 91 -153 175s49 175 153 175zM839 287c-31 0 -56 -30 -56 -127s25 -127 56 -127s56 30 56 127s-25 127 -56 127zM839 335c104 0 153 -91 153 -175s-49 -175 -153 -175s-153 91 -153 175
s49 175 153 175z" />
    <glyph glyph-name="questiondown" unicode="&#xbf;" horiz-adv-x="556" 
d="M255 264h99c-1 -32 -3 -53 -9 -71c-27 -80 -118 -122 -118 -221c0 -59 54 -89 107 -89c54 0 98 28 108 83c-14 -7 -29 -11 -44 -11c-42 0 -70 34 -70 74c0 53 36 80 87 80c70 0 103 -58 103 -122c0 -125 -113 -199 -229 -199c-97 0 -241 51 -241 185c0 74 49 124 98 160
c51 37 106 59 109 131zM305 318c-45 0 -84 38 -84 84s39 83 84 83s83 -37 83 -83s-38 -84 -83 -84z" />
    <glyph glyph-name="grave" unicode="`" horiz-adv-x="333" 
d="M251 543h-72l-118 69c-32 19 -61 35 -61 75c0 31 28 53 58 53c55 0 79 -44 108 -83z" />
    <glyph glyph-name="acute" unicode="&#xb4;" horiz-adv-x="333" 
d="M153 543h-72l85 114c29 39 53 83 108 83c30 0 58 -22 58 -53c0 -40 -29 -56 -61 -75z" />
    <glyph glyph-name="circumflex" unicode="&#x2c6;" horiz-adv-x="333" 
d="M167 635l-107 -92h-78l122 180h125l123 -180h-79z" />
    <glyph glyph-name="tilde" unicode="&#x2dc;" horiz-adv-x="333" 
d="M311 704h55c-13 -64 -48 -146 -126 -146c-36 0 -70 13 -99 27c-30 13 -55 26 -73 26c-27 0 -42 -23 -47 -48h-52c7 79 51 145 133 145c27 0 57 -13 86 -26s56 -26 75 -26c27 0 42 23 48 48z" />
    <glyph glyph-name="macron" unicode="&#xaf;" horiz-adv-x="333" 
d="M344 581h-353v88h353v-88z" />
    <glyph glyph-name="breve" unicode="&#x2d8;" horiz-adv-x="333" 
d="M4 712h58c1 -56 47 -81 104 -81c49 0 96 25 105 81h58c-8 -103 -58 -169 -163 -169c-111 0 -165 66 -162 169z" />
    <glyph glyph-name="dotaccent" unicode="&#x2d9;" horiz-adv-x="333" 
d="M166 705c44 0 79 -36 79 -79c0 -44 -35 -79 -79 -79s-79 35 -79 79c0 43 35 79 79 79z" />
    <glyph glyph-name="dieresis" unicode="&#xa8;" horiz-adv-x="333" 
d="M57 705c44 0 79 -36 79 -79c0 -44 -35 -79 -79 -79s-79 35 -79 79c0 43 35 79 79 79zM277 705c44 0 79 -36 79 -79c0 -44 -35 -79 -79 -79s-79 35 -79 79c0 43 35 79 79 79z" />
    <glyph glyph-name="ring" unicode="&#x2da;" horiz-adv-x="333" 
d="M166 767c62 0 113 -50 113 -112s-51 -112 -113 -112s-113 50 -113 112s51 112 113 112zM166 707c-29 0 -53 -24 -53 -52c0 -29 24 -52 53 -52c28 0 53 23 53 52c0 28 -25 52 -53 52z" />
    <glyph glyph-name="cedilla" unicode="&#xb8;" horiz-adv-x="333" 
d="M42 -205l17 44c15 -5 46 -13 71 -13c23 0 42 10 42 36c0 20 -14 36 -34 36c-10 0 -20 -3 -29 -6l-16 9l46 99h46l-28 -62c14 4 28 5 42 5c43 0 87 -23 87 -72c0 -78 -93 -94 -153 -94c-25 0 -68 9 -91 18z" />
    <glyph glyph-name="hungarumlaut" unicode="&#x2dd;" horiz-adv-x="333" 
d="M274 533h-71l76 163c13 28 36 66 79 66c35 0 58 -20 58 -50c0 -28 -17 -49 -42 -75zM65 533h-71l76 163c13 28 36 66 79 66c35 0 58 -20 58 -50c0 -28 -17 -49 -42 -75z" />
    <glyph glyph-name="ogonek" unicode="&#x2db;" horiz-adv-x="333" 
d="M258 21v-15c-49 -17 -142 -60 -142 -122c0 -31 24 -47 48 -47c35 0 68 22 96 40l22 -40c-45 -33 -98 -62 -156 -62c-59 0 -114 35 -114 98c0 94 173 139 246 148z" />
    <glyph glyph-name="caron" unicode="&#x2c7;" horiz-adv-x="333" 
d="M60 723l107 -92l106 92h79l-123 -180h-125l-122 180h78z" />
    <glyph glyph-name="emdash" unicode="&#x2014;" horiz-adv-x="1000" 
d="M1000 179h-1000v110h1000v-110z" />
    <glyph glyph-name="AE" unicode="&#xc6;" horiz-adv-x="1000" 
d="M395 575l-116 -240h141v240h-25zM420 247h-183l-63 -136c-2 -5 -3 -9 -3 -13c0 -6 9 -10 21 -10h52v-88h-253v88c33 0 64 23 78 52l193 390c7 15 15 30 15 37c0 8 -25 8 -32 8h-47v88h766v-254h-93c0 144 -41 166 -114 166h-160v-191h22c57 0 79 21 79 68v39h83v-302h-83
v39c0 42 -15 68 -79 68h-22v-208h117c126 0 157 22 157 183h93v-271h-632v88h49c25 0 39 15 39 40v119z" />
    <glyph glyph-name="ordfeminine" unicode="&#xaa;" horiz-adv-x="367" 
d="M192 428v41c-32 -17 -84 -21 -84 -58c0 -25 17 -34 37 -34c37 0 47 26 47 51zM333 433h36v-33c0 -60 -25 -79 -97 -79c-31 0 -62 14 -72 43c-27 -30 -58 -43 -100 -43c-62 0 -100 22 -100 83c0 114 193 47 193 126c0 39 -27 53 -63 53c-18 0 -36 -3 -51 -12v-2
c19 -1 40 -11 40 -32c0 -26 -25 -38 -51 -38c-30 0 -56 16 -56 45c0 66 98 76 150 76c89 0 138 -19 138 -107v-112c0 -17 1 -24 12 -24c14 0 21 8 21 42v14z" />
    <glyph glyph-name="Lslash" unicode="&#x141;" horiz-adv-x="667" 
d="M418 445v-88l-117 -29v-240h109c120 0 139 77 139 185h93v-273h-629v88h61c25 0 39 15 39 40v154l-101 -25v88l101 25v165c0 25 -14 40 -39 40h-62v88h390v-88h-62c-25 0 -39 -15 -39 -40v-119z" />
    <glyph glyph-name="Oslash" unicode="&#xd8;" horiz-adv-x="778" 
d="M248 243l261 261c-22 58 -62 86 -120 86c-100 0 -146 -84 -146 -259c0 -33 2 -62 5 -88zM156 48l-80 -81l-54 50l81 81c-50 59 -77 138 -77 233c0 217 143 352 363 352c92 0 170 -24 231 -68l77 77l52 -51l-75 -75c50 -59 78 -139 78 -235c0 -217 -143 -351 -363 -351
c-94 0 -174 24 -233 68zM529 421l-261 -261c23 -59 63 -87 121 -87c100 0 146 83 146 258c0 34 -2 64 -6 90z" />
    <glyph glyph-name="OE" unicode="&#x152;" horiz-adv-x="1000" 
d="M438 149v363c0 51 -18 70 -71 70c-97 0 -147 -88 -147 -251c0 -189 50 -252 147 -252c53 0 71 19 71 70zM788 485v-294h-83v37c0 42 -22 68 -53 68h-41v-208h109c102 0 147 22 147 184h93v-272h-431c-27 0 -55 -2 -82 -5c-27 -2 -54 -5 -82 -5c-215 0 -344 124 -344 340
c0 192 129 343 344 343c28 0 55 -2 82 -5c27 -2 55 -5 82 -5h431v-257h-93c0 147 -47 169 -175 169h-81v-193h24c52 0 70 26 70 68v35h83z" />
    <glyph glyph-name="ordmasculine" unicode="&#xba;" horiz-adv-x="334" 
d="M168 620c97 0 167 -54 167 -150s-70 -149 -167 -149s-168 53 -168 149s71 150 168 150zM168 572c-39 0 -53 -31 -53 -102c0 -70 14 -101 53 -101s52 31 52 101c0 71 -13 102 -52 102z" />
    <glyph glyph-name="ae" unicode="&#xe6;" horiz-adv-x="833" 
d="M318 163v68l-51 -23c-45 -20 -78 -46 -78 -77c0 -37 26 -52 57 -52c56 0 72 42 72 84zM482 291h151v26c0 51 -27 86 -75 86c-49 0 -76 -35 -76 -86v-26zM809 211h-327c0 -93 42 -132 96 -132c58 0 92 23 101 78h116c-16 -120 -121 -172 -227 -172c-76 0 -169 16 -203 87
c-55 -57 -108 -87 -188 -87c-95 0 -154 38 -154 140c0 193 307 75 307 216c0 49 -52 80 -107 80c-27 0 -55 -3 -79 -17v-2c30 -5 63 -21 63 -56c0 -44 -39 -63 -79 -63c-44 0 -87 24 -87 74c0 113 151 127 232 127c40 0 98 -14 150 -43c31 28 91 42 125 42
c200 0 261 -116 261 -272z" />
    <glyph glyph-name="dotlessi" unicode="&#x131;" horiz-adv-x="389" 
d="M278 468v-345c0 -28 7 -43 36 -43h41v-80h-322v80h43c29 0 36 15 36 43v222c0 28 -7 43 -36 43h-46v80h248z" />
    <glyph glyph-name="lslash" unicode="&#x142;" horiz-adv-x="389" 
d="M367 477v-74l-89 -33v-247c0 -28 7 -43 36 -43h41v-80h-322v80h43c29 0 36 15 36 43v186l-94 -35v74l94 35v157c0 28 -7 43 -36 43h-46v80h248v-219z" />
    <glyph glyph-name="oslash" unicode="&#xf8;" horiz-adv-x="556" 
d="M199 204l145 149c-12 35 -33 50 -66 50c-60 0 -81 -51 -81 -169c0 -12 0 -23 2 -30zM357 266l-146 -149c12 -36 33 -52 67 -52c60 0 81 51 81 169c0 12 0 24 -2 32zM57 -40l-51 46l65 67c-32 41 -51 95 -51 161c0 160 109 249 258 249c59 0 112 -14 153 -41l63 65l51 -48
l-61 -63c33 -41 52 -95 52 -162c0 -160 -109 -249 -258 -249c-60 0 -113 14 -155 42z" />
    <glyph glyph-name="oe" unicode="&#x153;" horiz-adv-x="889" 
d="M289 403c-60 0 -81 -51 -81 -169s21 -169 81 -169s81 51 81 169s-21 169 -81 169zM548 291h151v26c0 51 -27 86 -75 86c-49 0 -76 -35 -76 -86v-26zM871 211h-324c-1 -70 16 -140 100 -140c58 0 92 27 101 86h116c-16 -120 -124 -172 -241 -172c-59 0 -109 10 -159 59
c-47 -47 -112 -59 -176 -59c-162 0 -258 89 -258 249s119 249 258 249c62 0 126 -19 176 -57c55 47 98 57 163 57c169 0 244 -116 244 -272z" />
    <glyph glyph-name="germandbls" unicode="&#xdf;" 
d="M83 123v348c0 153 99 212 243 212c96 0 230 -29 230 -149c0 -84 -63 -117 -138 -127v-2c125 -23 173 -99 173 -212c0 -119 -81 -208 -174 -208c-101 0 -131 51 -131 117v66h73v-60c0 -21 0 -43 27 -43c23 0 28 40 28 146c0 101 -25 147 -112 147v80c63 0 88 22 88 85
c0 51 -19 79 -73 79c-52 0 -68 -37 -68 -82v-520h-230v80h28c29 0 36 15 36 43z" />
    <glyph glyph-name="onesuperior" unicode="&#xb9;" horiz-adv-x="366" 
d="M155 611h84v-284c0 -17 9 -29 29 -29h40v-50h-253v50h43c20 0 29 12 29 29v186h-70v50h16c38 0 65 11 82 48z" />
    <glyph glyph-name="logicalnot" unicode="&#xac;" horiz-adv-x="600" 
d="M422 100v177h-356v111h467v-288h-111z" />
    <glyph glyph-name="mu" unicode="&#xb5;" horiz-adv-x="667" 
d="M641 80v-80h-230v77h-2c-41 -60 -86 -89 -158 -91v-198h-235v80h32c26 0 37 18 37 48v429c0 28 -7 43 -36 43h-33v80h235v-295c0 -71 0 -98 77 -98c46 0 75 43 75 85v185c0 28 -7 43 -36 43h-44v80h246v-345c0 -28 7 -43 36 -43h36z" />
    <glyph glyph-name="trademark" unicode="&#x2122;" horiz-adv-x="1000" 
d="M259 636v-310c0 -29 0 -38 51 -40v-27h-224v27c51 2 51 11 51 40v310h-42c-38 0 -56 -29 -62 -61h-27v88h384v-88h-27c-6 32 -24 61 -62 61h-42zM663 260l-128 274h-2v-174c0 -57 0 -72 51 -74v-27h-135v27c50 2 50 17 50 74v222c0 34 -41 54 -72 54v27h163l127 -263
l138 263h139v-27c-51 0 -51 -11 -51 -40v-270c0 -29 0 -38 51 -40v-27h-224v27c51 2 51 11 51 40v208h-2l-140 -274h-16z" />
    <glyph glyph-name="Eth" unicode="&#xd0;" horiz-adv-x="778" 
d="M11 300v88h99v147c0 25 -14 40 -39 40h-60v88h363c227 0 374 -99 374 -337c0 -228 -144 -326 -380 -326h-356v88h59c25 0 39 15 39 40v172h-99zM416 388v-88h-118v-212h46c132 0 192 46 192 244s-60 243 -192 243h-46v-187h118z" />
    <glyph glyph-name="onehalf" unicode="&#xbd;" horiz-adv-x="916" 
d="M199 -15l437 635h60l-435 -635h-62zM180 611h84v-284c0 -17 9 -29 29 -29h40v-50h-253v50h43c20 0 29 12 29 29v186h-70v50h16c38 0 65 11 82 48zM585 0h-57v25c0 150 219 136 219 235c0 42 -37 64 -80 64c-32 0 -71 -16 -79 -48c8 4 18 5 25 5c25 0 43 -22 43 -43
c0 -19 -9 -48 -61 -48c-39 0 -67 26 -67 63c0 86 94 119 174 119s164 -33 164 -119c0 -144 -205 -98 -264 -183l1 -2c27 18 50 23 83 23c22 0 38 -3 54 -6s32 -8 52 -8c30 0 33 29 33 49h55v-29c0 -69 -38 -106 -114 -106c-30 0 -55 8 -79 17c-23 8 -44 17 -65 17
s-35 -8 -37 -25z" />
    <glyph glyph-name="plusminus" unicode="&#xb1;" horiz-adv-x="600" 
d="M244 363v105h111v-105h178v-111h-178v-104h-111v104h-178v111h178zM66 0v111h467v-111h-467z" />
    <glyph glyph-name="Thorn" unicode="&#xde;" horiz-adv-x="722" 
d="M306 450v-201h54c108 0 149 38 149 100s-41 101 -149 101h-54zM400 161h-94v-161h-288v88h61c25 0 39 15 39 40v407c0 25 -14 40 -39 40h-62v88h289v-124h94c200 0 297 -52 297 -189s-97 -189 -297 -189z" />
    <glyph glyph-name="onequarter" unicode="&#xbc;" horiz-adv-x="916" 
d="M528 110v57l203 196h102v-203h63v-50h-63v-31c0 -17 9 -29 28 -29h35v-50h-247v50h43c19 0 28 12 28 29v31h-192zM602 160h116v115zM225 -15l437 635h60l-435 -635h-62zM180 611h84v-284c0 -17 9 -29 29 -29h40v-50h-253v50h43c20 0 29 12 29 29v186h-70v50h16
c38 0 65 11 82 48z" />
    <glyph glyph-name="divide" unicode="&#xf7;" horiz-adv-x="600" 
d="M533 178h-467v111h467v-111zM300 508c45 0 84 -38 84 -84s-39 -83 -84 -83s-83 37 -83 83s38 84 83 84zM300 126c45 0 84 -38 84 -84s-39 -83 -84 -83s-83 37 -83 83s38 84 83 84z" />
    <glyph glyph-name="brokenbar" unicode="&#xa6;" horiz-adv-x="222" 
d="M55 675h111v-350h-111v350zM55 175h111v-350h-111v350z" />
    <glyph glyph-name="degree" unicode="&#xb0;" horiz-adv-x="400" 
d="M200 389c50 0 84 38 84 88s-34 88 -84 88s-84 -38 -84 -88s34 -88 84 -88zM200 620c80 0 143 -63 143 -143s-63 -143 -143 -143s-143 63 -143 143s63 143 143 143z" />
    <glyph glyph-name="thorn" unicode="&#xfe;" 
d="M311 390c-56 0 -79 -62 -79 -160s23 -159 79 -159s79 61 79 159s-23 160 -79 160zM224 663v-268h2c29 61 81 88 145 88c151 0 196 -127 196 -249s-45 -249 -196 -249c-60 0 -116 23 -137 67l-2 -2v-139c0 -28 7 -43 36 -43h41v-80h-317v80h38c29 0 36 15 36 43v629
c0 28 -7 43 -36 43h-39v80h233z" />
    <glyph glyph-name="threequarters" unicode="&#xbe;" horiz-adv-x="916" 
d="M237 -15l437 635h60l-435 -635h-62zM165 414v48c41 0 77 8 77 52c0 42 -37 58 -78 58c-26 0 -47 -4 -66 -23c30 0 54 -9 54 -40c0 -29 -30 -43 -59 -43c-33 0 -57 23 -57 54c0 77 89 100 157 100c66 0 169 -17 169 -96c0 -50 -38 -71 -87 -79v-2c56 -13 99 -32 99 -93
c0 -90 -80 -111 -177 -111c-82 0 -170 14 -170 99c0 39 23 61 65 61c29 0 54 -18 54 -47c0 -30 -24 -43 -54 -43c11 -13 48 -22 65 -22c47 0 97 13 97 67c0 53 -40 60 -89 60zM523 110v57l203 196h102v-203h63v-50h-63v-31c0 -17 9 -29 28 -29h35v-50h-247v50h43
c19 0 28 12 28 29v31h-192zM597 160h116v115z" />
    <glyph glyph-name="twosuperior" unicode="&#xb2;" horiz-adv-x="366" 
d="M64 248h-57v25c0 150 219 136 219 235c0 42 -37 64 -80 64c-32 0 -71 -16 -79 -48c8 4 18 5 25 5c25 0 43 -22 43 -43c0 -19 -9 -48 -61 -48c-39 0 -67 26 -67 63c0 86 94 119 174 119s164 -33 164 -119c0 -144 -205 -98 -264 -183l1 -2c27 18 50 23 83 23
c22 0 38 -3 54 -6s32 -8 52 -8c30 0 33 29 33 49h55v-29c0 -69 -38 -106 -114 -106c-30 0 -55 8 -79 17c-23 8 -44 17 -65 17s-35 -8 -37 -25z" />
    <glyph glyph-name="registered" unicode="&#xae;" horiz-adv-x="800" 
d="M234 507v21h206c62 0 108 -31 108 -100c0 -40 -27 -84 -75 -98l56 -84c19 -27 38 -54 56 -80v-14h-98c-29 0 -62 106 -96 164h-19v-101c0 -26 0 -35 41 -37v-26h-179v26c41 2 41 11 41 37v255c0 27 0 35 -41 37zM372 502v-160h22c42 0 49 49 49 83c0 57 -15 76 -44 77
h-27zM400 -20c-200 0 -344 151 -344 351s144 352 344 352s344 -152 344 -352s-144 -351 -344 -351zM400 43c151 0 254 126 254 288c0 161 -103 289 -254 289s-254 -128 -254 -289c0 -162 103 -288 254 -288z" />
    <glyph glyph-name="minus" unicode="&#x2212;" horiz-adv-x="600" 
d="M533 178h-467v111h467v-111z" />
    <glyph glyph-name="eth" unicode="&#xf0;" horiz-adv-x="556" 
d="M278 403c-60 0 -81 -51 -81 -169s21 -169 81 -169s81 51 81 169s-21 169 -81 169zM104 621l92 45c28 -13 55 -27 80 -42l85 40l52 -51l-73 -33c125 -96 196 -222 196 -346c0 -160 -109 -249 -258 -249s-258 89 -258 249s109 249 258 249c3 0 13 0 20 -1
c-15 20 -32 39 -56 54l-88 -40l-48 48l74 35c-26 16 -49 28 -76 42z" />
    <glyph glyph-name="multiply" unicode="&#xd7;" horiz-adv-x="600" 
d="M225 234l-152 150l75 76l152 -150l151 149l76 -75l-152 -150l152 -150l-75 -75l-152 150l-152 -150l-75 75z" />
    <glyph glyph-name="threesuperior" unicode="&#xb3;" horiz-adv-x="366" 
d="M158 414v48c41 0 77 8 77 52c0 42 -37 58 -78 58c-26 0 -47 -4 -66 -23c30 0 54 -9 54 -40c0 -29 -30 -43 -59 -43c-33 0 -57 23 -57 54c0 77 89 100 157 100c66 0 169 -17 169 -96c0 -50 -38 -71 -87 -79v-2c56 -13 99 -32 99 -93c0 -90 -80 -111 -177 -111
c-82 0 -170 14 -170 99c0 39 23 61 65 61c29 0 54 -18 54 -47c0 -30 -24 -43 -54 -43c11 -13 48 -22 65 -22c47 0 97 13 97 67c0 53 -40 60 -89 60z" />
    <glyph glyph-name="copyright" unicode="&#xa9;" horiz-adv-x="800" 
d="M400 -20c-200 0 -344 151 -344 351s144 352 344 352s344 -152 344 -352s-144 -351 -344 -351zM400 43c151 0 254 126 254 288c0 161 -103 289 -254 289s-254 -128 -254 -289c0 -162 103 -288 254 -288zM544 260h23l-15 -77c-2 -12 -12 -15 -30 -21
c-15 -5 -59 -21 -104 -21c-136 0 -215 73 -215 202c0 85 46 196 224 196c50 0 75 -9 101 -18c16 -5 22 -13 22 -22v-70h-23c-15 39 -43 84 -97 84c-66 0 -96 -65 -96 -164c0 -101 17 -182 93 -182c49 0 90 36 117 93z" />
    <glyph glyph-name="Aacute" unicode="&#xc1;" horiz-adv-x="778" 
d="M282 663h200l167 -500c20 -61 34 -75 69 -75h34v-88h-365v88h30c30 0 55 4 55 15c0 10 -1 21 -5 36l-21 72h-204l-12 -40c-11 -35 -15 -50 -15 -64c0 -16 35 -19 62 -19h29v-88h-294v88h34c35 0 49 14 69 75zM342 514l-71 -215h145l-72 215h-2zM366 716h-72l85 114
c29 39 53 83 108 83c30 0 58 -22 58 -53c0 -40 -29 -56 -61 -75z" />
    <glyph glyph-name="Acircumflex" unicode="&#xc2;" horiz-adv-x="778" 
d="M282 663h200l167 -500c20 -61 34 -75 69 -75h34v-88h-365v88h30c30 0 55 4 55 15c0 10 -1 21 -5 36l-21 72h-204l-12 -40c-11 -35 -15 -50 -15 -64c0 -16 35 -19 62 -19h29v-88h-294v88h34c35 0 49 14 69 75zM342 514l-71 -215h145l-72 215h-2zM380 808l-107 -92h-78
l122 180h125l123 -180h-79z" />
    <glyph glyph-name="Adieresis" unicode="&#xc4;" horiz-adv-x="778" 
d="M282 663h200l167 -500c20 -61 34 -75 69 -75h34v-88h-365v88h30c30 0 55 4 55 15c0 10 -1 21 -5 36l-21 72h-204l-12 -40c-11 -35 -15 -50 -15 -64c0 -16 35 -19 62 -19h29v-88h-294v88h34c35 0 49 14 69 75zM342 514l-71 -215h145l-72 215h-2zM270 878
c44 0 79 -36 79 -79c0 -44 -35 -79 -79 -79s-79 35 -79 79c0 43 35 79 79 79zM490 878c44 0 79 -36 79 -79c0 -44 -35 -79 -79 -79s-79 35 -79 79c0 43 35 79 79 79z" />
    <glyph glyph-name="Agrave" unicode="&#xc0;" horiz-adv-x="778" 
d="M282 663h200l167 -500c20 -61 34 -75 69 -75h34v-88h-365v88h30c30 0 55 4 55 15c0 10 -1 21 -5 36l-21 72h-204l-12 -40c-11 -35 -15 -50 -15 -64c0 -16 35 -19 62 -19h29v-88h-294v88h34c35 0 49 14 69 75zM342 514l-71 -215h145l-72 215h-2zM464 716h-72l-118 69
c-32 19 -61 35 -61 75c0 31 28 53 58 53c55 0 79 -44 108 -83z" />
    <glyph glyph-name="Aring" unicode="&#xc5;" horiz-adv-x="778" 
d="M282 663h200l167 -500c20 -61 34 -75 69 -75h34v-88h-365v88h30c30 0 55 4 55 15c0 10 -1 21 -5 36l-21 72h-204l-12 -40c-11 -35 -15 -50 -15 -64c0 -16 35 -19 62 -19h29v-88h-294v88h34c35 0 49 14 69 75zM342 514l-71 -215h145l-72 215h-2zM379 940
c62 0 113 -50 113 -112s-51 -112 -113 -112s-113 50 -113 112s51 112 113 112zM379 880c-29 0 -53 -24 -53 -52c0 -29 24 -52 53 -52c28 0 53 23 53 52c0 28 -25 52 -53 52z" />
    <glyph glyph-name="Atilde" unicode="&#xc3;" horiz-adv-x="778" 
d="M282 663h200l167 -500c20 -61 34 -75 69 -75h34v-88h-365v88h30c30 0 55 4 55 15c0 10 -1 21 -5 36l-21 72h-204l-12 -40c-11 -35 -15 -50 -15 -64c0 -16 35 -19 62 -19h29v-88h-294v88h34c35 0 49 14 69 75zM342 514l-71 -215h145l-72 215h-2zM524 877h55
c-13 -64 -48 -146 -126 -146c-36 0 -70 13 -99 27c-30 13 -55 26 -73 26c-27 0 -42 -23 -47 -48h-52c7 79 51 145 133 145c27 0 57 -13 86 -26s56 -26 75 -26c27 0 42 23 48 48z" />
    <glyph glyph-name="Ccedilla" unicode="&#xc7;" horiz-adv-x="722" 
d="M583 253h93c-3 -170 -96 -259 -258 -270l-20 -45c14 4 28 5 42 5c43 0 87 -23 87 -72c0 -78 -93 -94 -153 -94c-25 0 -68 9 -91 18l17 44c15 -5 46 -13 71 -13c23 0 42 10 42 36c0 20 -14 36 -34 36c-10 0 -20 -3 -29 -6l-16 9l37 80c-203 2 -345 120 -345 351
c0 212 146 351 340 351c50 0 156 -25 200 -67l20 56h90v-272h-93c0 103 -56 190 -169 190c-111 0 -171 -80 -171 -258c0 -158 39 -259 179 -259c105 0 161 87 161 180z" />
    <glyph glyph-name="Eacute" unicode="&#xc9;" horiz-adv-x="722" 
d="M118 128v407c0 25 -14 40 -39 40h-62v88h665v-254h-93c0 144 -56 166 -184 166h-99v-191h31c58 0 79 23 79 85v22h83v-302h-83v24c0 37 -14 83 -50 83h-60v-208h122c105 0 161 22 161 183h93v-271h-664v88h61c25 0 39 15 39 40zM357 716h-72l85 114c29 39 53 83 108 83
c30 0 58 -22 58 -53c0 -40 -29 -56 -61 -75z" />
    <glyph glyph-name="Ecircumflex" unicode="&#xca;" horiz-adv-x="722" 
d="M118 128v407c0 25 -14 40 -39 40h-62v88h665v-254h-93c0 144 -56 166 -184 166h-99v-191h31c58 0 79 23 79 85v22h83v-302h-83v24c0 37 -14 83 -50 83h-60v-208h122c105 0 161 22 161 183h93v-271h-664v88h61c25 0 39 15 39 40zM371 808l-107 -92h-78l122 180h125
l123 -180h-79z" />
    <glyph glyph-name="Edieresis" unicode="&#xcb;" horiz-adv-x="722" 
d="M118 128v407c0 25 -14 40 -39 40h-62v88h665v-254h-93c0 144 -56 166 -184 166h-99v-191h31c58 0 79 23 79 85v22h83v-302h-83v24c0 37 -14 83 -50 83h-60v-208h122c105 0 161 22 161 183h93v-271h-664v88h61c25 0 39 15 39 40zM261 878c44 0 79 -36 79 -79
c0 -44 -35 -79 -79 -79s-79 35 -79 79c0 43 35 79 79 79zM481 878c44 0 79 -36 79 -79c0 -44 -35 -79 -79 -79s-79 35 -79 79c0 43 35 79 79 79z" />
    <glyph glyph-name="Egrave" unicode="&#xc8;" horiz-adv-x="722" 
d="M118 128v407c0 25 -14 40 -39 40h-62v88h665v-254h-93c0 144 -56 166 -184 166h-99v-191h31c58 0 79 23 79 85v22h83v-302h-83v24c0 37 -14 83 -50 83h-60v-208h122c105 0 161 22 161 183h93v-271h-664v88h61c25 0 39 15 39 40zM455 716h-72l-118 69
c-32 19 -61 35 -61 75c0 31 28 53 58 53c55 0 79 -44 108 -83z" />
    <glyph glyph-name="Iacute" unicode="&#xcd;" horiz-adv-x="444" 
d="M417 663v-88h-62c-25 0 -39 -4 -39 -40v-407c0 -25 14 -40 39 -40h61v-88h-388v88h61c25 0 39 15 39 40v421c0 17 -14 26 -39 26h-62v88h390zM200 716h-72l85 114c29 39 53 83 108 83c30 0 58 -22 58 -53c0 -40 -29 -56 -61 -75z" />
    <glyph glyph-name="Icircumflex" unicode="&#xce;" horiz-adv-x="444" 
d="M417 663v-88h-62c-25 0 -39 -4 -39 -40v-407c0 -25 14 -40 39 -40h61v-88h-388v88h61c25 0 39 15 39 40v421c0 17 -14 26 -39 26h-62v88h390zM214 808l-107 -92h-78l122 180h125l123 -180h-79z" />
    <glyph glyph-name="Idieresis" unicode="&#xcf;" horiz-adv-x="444" 
d="M417 663v-88h-62c-25 0 -39 -4 -39 -40v-407c0 -25 14 -40 39 -40h61v-88h-388v88h61c25 0 39 15 39 40v421c0 17 -14 26 -39 26h-62v88h390zM104 878c44 0 79 -36 79 -79c0 -44 -35 -79 -79 -79s-79 35 -79 79c0 43 35 79 79 79zM324 878c44 0 79 -36 79 -79
c0 -44 -35 -79 -79 -79s-79 35 -79 79c0 43 35 79 79 79z" />
    <glyph glyph-name="Igrave" unicode="&#xcc;" horiz-adv-x="444" 
d="M417 663v-88h-62c-25 0 -39 -4 -39 -40v-407c0 -25 14 -40 39 -40h61v-88h-388v88h61c25 0 39 15 39 40v421c0 17 -14 26 -39 26h-62v88h390zM298 716h-72l-118 69c-32 19 -61 35 -61 75c0 31 28 53 58 53c55 0 79 -44 108 -83z" />
    <glyph glyph-name="Ntilde" unicode="&#xd1;" horiz-adv-x="833" 
d="M343 663l259 -457h2v329c0 25 -14 40 -39 40h-61v88h308v-88h-60c-25 0 -39 -15 -39 -40v-535h-202l-278 493h-2v-365c0 -25 14 -40 39 -40h61v-88h-309v88h61c25 0 39 15 39 40v407c0 25 -14 40 -39 40h-62v88h322zM561 877h55c-13 -64 -48 -146 -126 -146
c-36 0 -70 13 -99 27c-30 13 -55 26 -73 26c-27 0 -42 -23 -47 -48h-52c7 79 51 145 133 145c27 0 57 -13 86 -26s56 -26 75 -26c27 0 42 23 48 48z" />
    <glyph glyph-name="Oacute" unicode="&#xd3;" horiz-adv-x="778" 
d="M389 590c-100 0 -146 -84 -146 -259s46 -258 146 -258s146 83 146 258s-46 259 -146 259zM389 683c220 0 363 -135 363 -352s-143 -351 -363 -351s-363 134 -363 351s143 352 363 352zM376 716h-72l85 114c29 39 53 83 108 83c30 0 58 -22 58 -53c0 -40 -29 -56 -61 -75z
" />
    <glyph glyph-name="Ocircumflex" unicode="&#xd4;" horiz-adv-x="778" 
d="M389 590c-100 0 -146 -84 -146 -259s46 -258 146 -258s146 83 146 258s-46 259 -146 259zM389 683c220 0 363 -135 363 -352s-143 -351 -363 -351s-363 134 -363 351s143 352 363 352zM390 808l-107 -92h-78l122 180h125l123 -180h-79z" />
    <glyph glyph-name="Odieresis" unicode="&#xd6;" horiz-adv-x="778" 
d="M389 590c-100 0 -146 -84 -146 -259s46 -258 146 -258s146 83 146 258s-46 259 -146 259zM389 683c220 0 363 -135 363 -352s-143 -351 -363 -351s-363 134 -363 351s143 352 363 352zM280 878c44 0 79 -36 79 -79c0 -44 -35 -79 -79 -79s-79 35 -79 79c0 43 35 79 79 79
zM500 878c44 0 79 -36 79 -79c0 -44 -35 -79 -79 -79s-79 35 -79 79c0 43 35 79 79 79z" />
    <glyph glyph-name="Ograve" unicode="&#xd2;" horiz-adv-x="778" 
d="M389 590c-100 0 -146 -84 -146 -259s46 -258 146 -258s146 83 146 258s-46 259 -146 259zM389 683c220 0 363 -135 363 -352s-143 -351 -363 -351s-363 134 -363 351s143 352 363 352zM474 716h-72l-118 69c-32 19 -61 35 -61 75c0 31 28 53 58 53c55 0 79 -44 108 -83z
" />
    <glyph glyph-name="Otilde" unicode="&#xd5;" horiz-adv-x="778" 
d="M389 590c-100 0 -146 -84 -146 -259s46 -258 146 -258s146 83 146 258s-46 259 -146 259zM389 683c220 0 363 -135 363 -352s-143 -351 -363 -351s-363 134 -363 351s143 352 363 352zM534 877h55c-13 -64 -48 -146 -126 -146c-36 0 -70 13 -99 27c-30 13 -55 26 -73 26
c-27 0 -42 -23 -47 -48h-52c7 79 51 145 133 145c27 0 57 -13 86 -26s56 -26 75 -26c27 0 42 23 48 48z" />
    <glyph glyph-name="Scaron" unicode="&#x160;" horiz-adv-x="667" 
d="M606 672v-246h-92c-15 105 -108 164 -196 164c-58 0 -112 -19 -112 -86c0 -126 433 -25 433 -310c0 -160 -138 -214 -276 -214c-77 0 -155 16 -218 62l-26 -53h-84v262h93c13 -105 100 -178 218 -178c52 0 115 29 115 86c0 143 -433 27 -433 314c0 165 149 210 287 210
c68 0 133 -22 190 -58l18 47h83zM250 896l107 -92l106 92h79l-123 -180h-125l-122 180h78z" />
    <glyph glyph-name="Uacute" unicode="&#xda;" horiz-adv-x="778" 
d="M15 575v88h390v-88h-62c-25 0 -39 -15 -39 -40v-353c0 -64 35 -109 116 -109c116 0 136 51 136 175v287c0 25 -14 40 -39 40h-59v88h305v-88h-59c-25 0 -39 -15 -39 -40v-321c0 -148 -79 -234 -265 -234c-176 0 -284 56 -284 224v331c0 25 -14 40 -39 40h-62zM381 716
h-72l85 114c29 39 53 83 108 83c30 0 58 -22 58 -53c0 -40 -29 -56 -61 -75z" />
    <glyph glyph-name="Ucircumflex" unicode="&#xdb;" horiz-adv-x="778" 
d="M15 575v88h390v-88h-62c-25 0 -39 -15 -39 -40v-353c0 -64 35 -109 116 -109c116 0 136 51 136 175v287c0 25 -14 40 -39 40h-59v88h305v-88h-59c-25 0 -39 -15 -39 -40v-321c0 -148 -79 -234 -265 -234c-176 0 -284 56 -284 224v331c0 25 -14 40 -39 40h-62zM395 808
l-107 -92h-78l122 180h125l123 -180h-79z" />
    <glyph glyph-name="Udieresis" unicode="&#xdc;" horiz-adv-x="778" 
d="M15 575v88h390v-88h-62c-25 0 -39 -15 -39 -40v-353c0 -64 35 -109 116 -109c116 0 136 51 136 175v287c0 25 -14 40 -39 40h-59v88h305v-88h-59c-25 0 -39 -15 -39 -40v-321c0 -148 -79 -234 -265 -234c-176 0 -284 56 -284 224v331c0 25 -14 40 -39 40h-62zM285 878
c44 0 79 -36 79 -79c0 -44 -35 -79 -79 -79s-79 35 -79 79c0 43 35 79 79 79zM505 878c44 0 79 -36 79 -79c0 -44 -35 -79 -79 -79s-79 35 -79 79c0 43 35 79 79 79z" />
    <glyph glyph-name="Ugrave" unicode="&#xd9;" horiz-adv-x="778" 
d="M15 575v88h390v-88h-62c-25 0 -39 -15 -39 -40v-353c0 -64 35 -109 116 -109c116 0 136 51 136 175v287c0 25 -14 40 -39 40h-59v88h305v-88h-59c-25 0 -39 -15 -39 -40v-321c0 -148 -79 -234 -265 -234c-176 0 -284 56 -284 224v331c0 25 -14 40 -39 40h-62zM479 716
h-72l-118 69c-32 19 -61 35 -61 75c0 31 28 53 58 53c55 0 79 -44 108 -83z" />
    <glyph glyph-name="Yacute" unicode="&#xdd;" horiz-adv-x="778" 
d="M23 663h381v-88h-41c-19 0 -31 -4 -31 -16c0 -11 10 -26 15 -34l88 -137l89 137c5 8 15 23 15 34c0 12 -11 16 -31 16h-41v88h288v-88h-21c-36 0 -56 -7 -69 -27l-178 -281v-139c0 -25 14 -40 39 -40h68v-88h-400v88h66c25 0 39 15 39 40v139l-158 252
c-27 42 -43 56 -97 56h-21v88zM399 716h-72l85 114c29 39 53 83 108 83c30 0 58 -22 58 -53c0 -40 -29 -56 -61 -75z" />
    <glyph glyph-name="Ydieresis" unicode="&#x178;" horiz-adv-x="778" 
d="M23 663h381v-88h-41c-19 0 -31 -4 -31 -16c0 -11 10 -26 15 -34l88 -137l89 137c5 8 15 23 15 34c0 12 -11 16 -31 16h-41v88h288v-88h-21c-36 0 -56 -7 -69 -27l-178 -281v-139c0 -25 14 -40 39 -40h68v-88h-400v88h66c25 0 39 15 39 40v139l-158 252
c-27 42 -43 56 -97 56h-21v88zM303 878c44 0 79 -36 79 -79c0 -44 -35 -79 -79 -79s-79 35 -79 79c0 43 35 79 79 79zM523 878c44 0 79 -36 79 -79c0 -44 -35 -79 -79 -79s-79 35 -79 79c0 43 35 79 79 79z" />
    <glyph glyph-name="Zcaron" unicode="&#x17d;" horiz-adv-x="667" 
d="M29 0v91l385 484h-107c-137 0 -174 -45 -174 -165h-93v253h591v-90l-385 -485h116c138 0 174 49 174 183h93v-271h-600zM250 896l107 -92l106 92h79l-123 -180h-125l-122 180h78z" />
    <glyph glyph-name="aacute" unicode="&#xe1;" 
d="M324 163v68c-48 -28 -129 -34 -129 -96c0 -41 26 -56 57 -56c57 0 72 42 72 84zM542 171h55v-55c0 -100 -38 -131 -149 -131c-48 0 -95 23 -111 71c-41 -49 -89 -71 -154 -71c-95 0 -154 37 -154 139c0 189 297 78 297 209c0 66 -42 88 -97 88c-27 0 -55 -4 -79 -19v-2
c30 -4 63 -20 63 -55c0 -44 -39 -63 -79 -63c-47 0 -87 27 -87 74c0 111 151 127 232 127c137 0 211 -32 211 -178v-186c0 -29 3 -40 19 -40c22 0 33 13 33 69v23zM264 543h-72l85 114c29 39 53 83 108 83c30 0 58 -22 58 -53c0 -40 -29 -56 -61 -75z" />
    <glyph glyph-name="acircumflex" unicode="&#xe2;" 
d="M324 163v68c-48 -28 -129 -34 -129 -96c0 -41 26 -56 57 -56c57 0 72 42 72 84zM542 171h55v-55c0 -100 -38 -131 -149 -131c-48 0 -95 23 -111 71c-41 -49 -89 -71 -154 -71c-95 0 -154 37 -154 139c0 189 297 78 297 209c0 66 -42 88 -97 88c-27 0 -55 -4 -79 -19v-2
c30 -4 63 -20 63 -55c0 -44 -39 -63 -79 -63c-47 0 -87 27 -87 74c0 111 151 127 232 127c137 0 211 -32 211 -178v-186c0 -29 3 -40 19 -40c22 0 33 13 33 69v23zM278 635l-107 -92h-78l122 180h125l123 -180h-79z" />
    <glyph glyph-name="adieresis" unicode="&#xe4;" 
d="M324 163v68c-48 -28 -129 -34 -129 -96c0 -41 26 -56 57 -56c57 0 72 42 72 84zM542 171h55v-55c0 -100 -38 -131 -149 -131c-48 0 -95 23 -111 71c-41 -49 -89 -71 -154 -71c-95 0 -154 37 -154 139c0 189 297 78 297 209c0 66 -42 88 -97 88c-27 0 -55 -4 -79 -19v-2
c30 -4 63 -20 63 -55c0 -44 -39 -63 -79 -63c-47 0 -87 27 -87 74c0 111 151 127 232 127c137 0 211 -32 211 -178v-186c0 -29 3 -40 19 -40c22 0 33 13 33 69v23zM168 705c44 0 79 -36 79 -79c0 -44 -35 -79 -79 -79s-79 35 -79 79c0 43 35 79 79 79zM388 705
c44 0 79 -36 79 -79c0 -44 -35 -79 -79 -79s-79 35 -79 79c0 43 35 79 79 79z" />
    <glyph glyph-name="agrave" unicode="&#xe0;" 
d="M324 163v68c-48 -28 -129 -34 -129 -96c0 -41 26 -56 57 -56c57 0 72 42 72 84zM542 171h55v-55c0 -100 -38 -131 -149 -131c-48 0 -95 23 -111 71c-41 -49 -89 -71 -154 -71c-95 0 -154 37 -154 139c0 189 297 78 297 209c0 66 -42 88 -97 88c-27 0 -55 -4 -79 -19v-2
c30 -4 63 -20 63 -55c0 -44 -39 -63 -79 -63c-47 0 -87 27 -87 74c0 111 151 127 232 127c137 0 211 -32 211 -178v-186c0 -29 3 -40 19 -40c22 0 33 13 33 69v23zM362 543h-72l-118 69c-32 19 -61 35 -61 75c0 31 28 53 58 53c55 0 79 -44 108 -83z" />
    <glyph glyph-name="aring" unicode="&#xe5;" 
d="M324 163v68c-48 -28 -129 -34 -129 -96c0 -41 26 -56 57 -56c57 0 72 42 72 84zM542 171h55v-55c0 -100 -38 -131 -149 -131c-48 0 -95 23 -111 71c-41 -49 -89 -71 -154 -71c-95 0 -154 37 -154 139c0 189 297 78 297 209c0 66 -42 88 -97 88c-27 0 -55 -4 -79 -19v-2
c30 -4 63 -20 63 -55c0 -44 -39 -63 -79 -63c-47 0 -87 27 -87 74c0 111 151 127 232 127c137 0 211 -32 211 -178v-186c0 -29 3 -40 19 -40c22 0 33 13 33 69v23zM277 767c62 0 113 -50 113 -112s-51 -112 -113 -112s-113 50 -113 112s51 112 113 112zM277 707
c-29 0 -53 -24 -53 -52c0 -29 24 -52 53 -52c28 0 53 23 53 52c0 28 -25 52 -53 52z" />
    <glyph glyph-name="atilde" unicode="&#xe3;" 
d="M324 163v68c-48 -28 -129 -34 -129 -96c0 -41 26 -56 57 -56c57 0 72 42 72 84zM542 171h55v-55c0 -100 -38 -131 -149 -131c-48 0 -95 23 -111 71c-41 -49 -89 -71 -154 -71c-95 0 -154 37 -154 139c0 189 297 78 297 209c0 66 -42 88 -97 88c-27 0 -55 -4 -79 -19v-2
c30 -4 63 -20 63 -55c0 -44 -39 -63 -79 -63c-47 0 -87 27 -87 74c0 111 151 127 232 127c137 0 211 -32 211 -178v-186c0 -29 3 -40 19 -40c22 0 33 13 33 69v23zM422 704h55c-13 -64 -48 -146 -126 -146c-36 0 -70 13 -99 27c-30 13 -55 26 -73 26c-27 0 -42 -23 -47 -48
h-52c7 79 51 145 133 145c27 0 57 -13 86 -26s56 -26 75 -26c27 0 42 23 48 48z" />
    <glyph glyph-name="ccedilla" unicode="&#xe7;" horiz-adv-x="500" 
d="M378 162h99c-4 -122 -87 -173 -192 -176l-21 -48c14 4 28 5 42 5c43 0 87 -23 87 -72c0 -78 -93 -94 -153 -94c-25 0 -68 9 -91 18l17 44c15 -5 46 -13 71 -13c23 0 42 10 42 36c0 20 -14 36 -34 36c-10 0 -20 -3 -29 -6l-16 9l40 86c-132 10 -218 92 -218 247
c0 167 120 249 248 249c107 0 207 -52 207 -162c0 -53 -33 -98 -89 -98c-48 0 -88 20 -88 73c0 46 32 73 77 73c-18 22 -49 34 -80 34c-51 0 -98 -51 -98 -166s29 -166 98 -166c52 0 76 45 81 91z" />
    <glyph glyph-name="eacute" unicode="&#xe9;" horiz-adv-x="556" 
d="M531 211h-330c0 -70 16 -140 100 -140c35 0 92 27 101 86h116c-16 -120 -133 -172 -241 -172c-171 0 -253 95 -253 249c0 155 110 249 253 249c163 0 254 -116 254 -272zM203 291h151v26c0 51 -27 86 -75 86c-49 0 -76 -35 -76 -86v-26zM272 543h-72l85 114
c29 39 53 83 108 83c30 0 58 -22 58 -53c0 -40 -29 -56 -61 -75z" />
    <glyph glyph-name="ecircumflex" unicode="&#xea;" horiz-adv-x="556" 
d="M531 211h-330c0 -70 16 -140 100 -140c35 0 92 27 101 86h116c-16 -120 -133 -172 -241 -172c-171 0 -253 95 -253 249c0 155 110 249 253 249c163 0 254 -116 254 -272zM203 291h151v26c0 51 -27 86 -75 86c-49 0 -76 -35 -76 -86v-26zM286 635l-107 -92h-78l122 180
h125l123 -180h-79z" />
    <glyph glyph-name="edieresis" unicode="&#xeb;" horiz-adv-x="556" 
d="M531 211h-330c0 -70 16 -140 100 -140c35 0 92 27 101 86h116c-16 -120 -133 -172 -241 -172c-171 0 -253 95 -253 249c0 155 110 249 253 249c163 0 254 -116 254 -272zM203 291h151v26c0 51 -27 86 -75 86c-49 0 -76 -35 -76 -86v-26zM176 705c44 0 79 -36 79 -79
c0 -44 -35 -79 -79 -79s-79 35 -79 79c0 43 35 79 79 79zM396 705c44 0 79 -36 79 -79c0 -44 -35 -79 -79 -79s-79 35 -79 79c0 43 35 79 79 79z" />
    <glyph glyph-name="egrave" unicode="&#xe8;" horiz-adv-x="556" 
d="M531 211h-330c0 -70 16 -140 100 -140c35 0 92 27 101 86h116c-16 -120 -133 -172 -241 -172c-171 0 -253 95 -253 249c0 155 110 249 253 249c163 0 254 -116 254 -272zM203 291h151v26c0 51 -27 86 -75 86c-49 0 -76 -35 -76 -86v-26zM370 543h-72l-118 69
c-32 19 -61 35 -61 75c0 31 28 53 58 53c55 0 79 -44 108 -83z" />
    <glyph glyph-name="iacute" unicode="&#xed;" horiz-adv-x="389" 
d="M278 468v-345c0 -28 7 -43 36 -43h41v-80h-322v80h43c29 0 36 15 36 43v222c0 28 -7 43 -36 43h-46v80h248zM181 543h-72l85 114c29 39 53 83 108 83c30 0 58 -22 58 -53c0 -40 -29 -56 -61 -75z" />
    <glyph glyph-name="icircumflex" unicode="&#xee;" horiz-adv-x="389" 
d="M278 468v-345c0 -28 7 -43 36 -43h41v-80h-322v80h43c29 0 36 15 36 43v222c0 28 -7 43 -36 43h-46v80h248zM195 635l-107 -92h-78l122 180h125l123 -180h-79z" />
    <glyph glyph-name="idieresis" unicode="&#xef;" horiz-adv-x="389" 
d="M278 468v-345c0 -28 7 -43 36 -43h41v-80h-322v80h43c29 0 36 15 36 43v222c0 28 -7 43 -36 43h-46v80h248zM85 705c44 0 79 -36 79 -79c0 -44 -35 -79 -79 -79s-79 35 -79 79c0 43 35 79 79 79zM305 705c44 0 79 -36 79 -79c0 -44 -35 -79 -79 -79s-79 35 -79 79
c0 43 35 79 79 79z" />
    <glyph glyph-name="igrave" unicode="&#xec;" horiz-adv-x="389" 
d="M278 468v-345c0 -28 7 -43 36 -43h41v-80h-322v80h43c29 0 36 15 36 43v222c0 28 -7 43 -36 43h-46v80h248zM279 543h-72l-118 69c-32 19 -61 35 -61 75c0 31 28 53 58 53c55 0 79 -44 108 -83z" />
    <glyph glyph-name="ntilde" unicode="&#xf1;" horiz-adv-x="667" 
d="M16 468h235v-77h2c44 64 91 92 172 92c114 0 152 -66 152 -170v-190c0 -28 7 -43 36 -43h38v-80h-297v80h21c29 0 36 15 36 43v172c0 58 -9 98 -77 98c-46 0 -75 -43 -75 -85v-185c0 -28 7 -43 36 -43h24v-80h-302v80h40c29 0 36 15 36 43v222c0 28 -7 43 -36 43h-41v80z
M464 704h55c-13 -64 -48 -146 -126 -146c-36 0 -70 13 -99 27c-30 13 -55 26 -73 26c-27 0 -42 -23 -47 -48h-52c7 79 51 145 133 145c27 0 57 -13 86 -26s56 -26 75 -26c27 0 42 23 48 48z" />
    <glyph glyph-name="oacute" unicode="&#xf3;" horiz-adv-x="556" 
d="M278 483c149 0 258 -89 258 -249s-109 -249 -258 -249s-258 89 -258 249s109 249 258 249zM278 403c-60 0 -81 -51 -81 -169s21 -169 81 -169s81 51 81 169s-21 169 -81 169zM265 543h-72l85 114c29 39 53 83 108 83c30 0 58 -22 58 -53c0 -40 -29 -56 -61 -75z" />
    <glyph glyph-name="ocircumflex" unicode="&#xf4;" horiz-adv-x="556" 
d="M278 483c149 0 258 -89 258 -249s-109 -249 -258 -249s-258 89 -258 249s109 249 258 249zM278 403c-60 0 -81 -51 -81 -169s21 -169 81 -169s81 51 81 169s-21 169 -81 169zM279 635l-107 -92h-78l122 180h125l123 -180h-79z" />
    <glyph glyph-name="odieresis" unicode="&#xf6;" horiz-adv-x="556" 
d="M278 483c149 0 258 -89 258 -249s-109 -249 -258 -249s-258 89 -258 249s109 249 258 249zM278 403c-60 0 -81 -51 -81 -169s21 -169 81 -169s81 51 81 169s-21 169 -81 169zM169 705c44 0 79 -36 79 -79c0 -44 -35 -79 -79 -79s-79 35 -79 79c0 43 35 79 79 79zM389 705
c44 0 79 -36 79 -79c0 -44 -35 -79 -79 -79s-79 35 -79 79c0 43 35 79 79 79z" />
    <glyph glyph-name="ograve" unicode="&#xf2;" horiz-adv-x="556" 
d="M278 483c149 0 258 -89 258 -249s-109 -249 -258 -249s-258 89 -258 249s109 249 258 249zM278 403c-60 0 -81 -51 -81 -169s21 -169 81 -169s81 51 81 169s-21 169 -81 169zM363 543h-72l-118 69c-32 19 -61 35 -61 75c0 31 28 53 58 53c55 0 79 -44 108 -83z" />
    <glyph glyph-name="otilde" unicode="&#xf5;" horiz-adv-x="556" 
d="M278 483c149 0 258 -89 258 -249s-109 -249 -258 -249s-258 89 -258 249s109 249 258 249zM278 403c-60 0 -81 -51 -81 -169s21 -169 81 -169s81 51 81 169s-21 169 -81 169zM423 704h55c-13 -64 -48 -146 -126 -146c-36 0 -70 13 -99 27c-30 13 -55 26 -73 26
c-27 0 -42 -23 -47 -48h-52c7 79 51 145 133 145c27 0 57 -13 86 -26s56 -26 75 -26c27 0 42 23 48 48z" />
    <glyph glyph-name="scaron" unicode="&#x161;" horiz-adv-x="556" 
d="M41 168h82c4 -29 24 -55 50 -74c26 -18 58 -29 86 -29c29 0 85 0 85 44c0 84 -310 33 -310 216c0 120 124 158 224 158c53 0 109 -16 155 -42l12 30h69v-150h-76c-10 29 -28 48 -51 62s-50 20 -79 20c-23 0 -77 -5 -77 -39c0 -86 310 -21 310 -216
c0 -121 -111 -163 -214 -163c-62 0 -124 9 -176 45l-15 -34h-75v172zM172 723l107 -92l106 92h79l-123 -180h-125l-122 180h78z" />
    <glyph glyph-name="uacute" unicode="&#xfa;" horiz-adv-x="667" 
d="M641 0h-230v77h-2c-44 -64 -91 -92 -172 -92c-114 0 -152 49 -152 157v203c0 28 -7 43 -36 43h-33v80h235v-295c0 -71 0 -98 77 -98c46 0 75 43 75 85v185c0 28 -7 43 -36 43h-44v80h246v-345c0 -28 7 -43 36 -43h36v-80zM292 543h-72l85 114c29 39 53 83 108 83
c30 0 58 -22 58 -53c0 -40 -29 -56 -61 -75z" />
    <glyph glyph-name="ucircumflex" unicode="&#xfb;" horiz-adv-x="667" 
d="M641 0h-230v77h-2c-44 -64 -91 -92 -172 -92c-114 0 -152 49 -152 157v203c0 28 -7 43 -36 43h-33v80h235v-295c0 -71 0 -98 77 -98c46 0 75 43 75 85v185c0 28 -7 43 -36 43h-44v80h246v-345c0 -28 7 -43 36 -43h36v-80zM306 635l-107 -92h-78l122 180h125l123 -180h-79
z" />
    <glyph glyph-name="udieresis" unicode="&#xfc;" horiz-adv-x="667" 
d="M641 0h-230v77h-2c-44 -64 -91 -92 -172 -92c-114 0 -152 49 -152 157v203c0 28 -7 43 -36 43h-33v80h235v-295c0 -71 0 -98 77 -98c46 0 75 43 75 85v185c0 28 -7 43 -36 43h-44v80h246v-345c0 -28 7 -43 36 -43h36v-80zM196 705c44 0 79 -36 79 -79
c0 -44 -35 -79 -79 -79s-79 35 -79 79c0 43 35 79 79 79zM416 705c44 0 79 -36 79 -79c0 -44 -35 -79 -79 -79s-79 35 -79 79c0 43 35 79 79 79z" />
    <glyph glyph-name="ugrave" unicode="&#xf9;" horiz-adv-x="667" 
d="M641 0h-230v77h-2c-44 -64 -91 -92 -172 -92c-114 0 -152 49 -152 157v203c0 28 -7 43 -36 43h-33v80h235v-295c0 -71 0 -98 77 -98c46 0 75 43 75 85v185c0 28 -7 43 -36 43h-44v80h246v-345c0 -28 7 -43 36 -43h36v-80zM390 543h-72l-118 69c-32 19 -61 35 -61 75
c0 31 28 53 58 53c55 0 79 -44 108 -83z" />
    <glyph glyph-name="yacute" unicode="&#xfd;" 
d="M364 468h223v-80h-19c-39 0 -48 -23 -59 -50l-133 -324c-52 -126 -104 -226 -211 -226c-84 0 -150 37 -150 129c0 53 34 85 86 85c39 0 75 -24 75 -66s-18 -64 -53 -64c-9 0 -20 1 -28 4c3 -24 38 -26 57 -26c61 0 86 64 108 120l-158 356c-15 37 -25 62 -51 62h-32v80
h303v-80h-33c-22 0 -33 -3 -33 -19c0 -6 2 -12 6 -21l82 -185h2l71 182c4 10 6 20 6 27c0 9 -8 16 -30 16h-29v80zM292 543h-72l85 114c29 39 53 83 108 83c30 0 58 -22 58 -53c0 -40 -29 -56 -61 -75z" />
    <glyph glyph-name="ydieresis" unicode="&#xff;" 
d="M364 468h223v-80h-19c-39 0 -48 -23 -59 -50l-133 -324c-52 -126 -104 -226 -211 -226c-84 0 -150 37 -150 129c0 53 34 85 86 85c39 0 75 -24 75 -66s-18 -64 -53 -64c-9 0 -20 1 -28 4c3 -24 38 -26 57 -26c61 0 86 64 108 120l-158 356c-15 37 -25 62 -51 62h-32v80
h303v-80h-33c-22 0 -33 -3 -33 -19c0 -6 2 -12 6 -21l82 -185h2l71 182c4 10 6 20 6 27c0 9 -8 16 -30 16h-29v80zM196 705c44 0 79 -36 79 -79c0 -44 -35 -79 -79 -79s-79 35 -79 79c0 43 35 79 79 79zM416 705c44 0 79 -36 79 -79c0 -44 -35 -79 -79 -79s-79 35 -79 79
c0 43 35 79 79 79z" />
    <glyph glyph-name="zcaron" unicode="&#x17e;" horiz-adv-x="500" 
d="M472 380l-258 -300h90c56 0 86 26 86 84v53h80v-217h-442v97l252 291h-93c-53 0 -68 -22 -68 -71v-45h-80v196h433v-88zM144 723l107 -92l106 92h79l-123 -180h-125l-122 180h78z" />
    <glyph glyph-name="Omega" unicode="&#x2126;" horiz-adv-x="798" 
d="M761 173l-32 -173h-291l-11 27c39 62 114 183 114 316c-1 160 -55 234 -145 234c-91 0 -140 -68 -140 -236c0 -125 68 -244 110 -313l-8 -28h-295l-27 173l39 1c24 -52 38 -65 87 -65h90c-76 43 -180 113 -180 239c0 167 133 273 327 273c196 0 325 -104 325 -267
c0 -112 -101 -190 -188 -245h105c44 0 58 12 80 65z" />
    <glyph glyph-name="uni03BC" unicode="&#x3bc;" horiz-adv-x="667" 
d="M641 80v-80h-230v77h-2c-41 -60 -86 -89 -158 -91v-198h-235v80h32c26 0 37 18 37 48v429c0 28 -7 43 -36 43h-33v80h235v-295c0 -71 0 -98 77 -98c46 0 75 43 75 85v185c0 28 -7 43 -36 43h-44v80h246v-345c0 -28 7 -43 36 -43h36z" />
    <glyph glyph-name="pi" unicode="&#x3c0;" horiz-adv-x="639" 
d="M581 456l33 -10c-3 -43 -27 -117 -45 -133c-17 -5 -42 -7 -67 -7c-5 -57 -5 -90 -4 -157c0 -59 23 -75 42 -75c17 0 28 6 42 12l13 -32c-27 -36 -86 -66 -139 -66c-64 0 -120 28 -120 127c0 80 6 140 10 193c-67 1 -79 2 -113 2v-7c0 -205 -51 -282 -66 -298
c-31 -10 -55 -15 -76 -17l-10 25c69 90 96 221 96 298c-58 1 -87 -6 -133 -32l-20 35c41 55 74 112 195 111c84 -1 200 -3 296 -3c31 0 50 7 66 34z" />
    <glyph glyph-name="Euro" unicode="&#x20ac;" 
d="M585 0h-81l-15 39c-28 -26 -62 -54 -138 -54c-146 0 -236 76 -260 228h-86l28 74h51v16c0 9 0 19 1 28h-80l28 74h61c28 133 115 215 247 215c79 0 111 -18 148 -54l15 44h81v-177h-84c-4 31 -14 57 -31 76c-18 20 -42 31 -76 31c-71 0 -108 -43 -120 -135h214l-27 -74
h-193c-1 -9 -1 -18 -1 -28v-16h179l-27 -74h-149c7 -94 43 -148 126 -148c67 0 97 53 105 107h84v-172z" />
    <glyph glyph-name="afii61289" unicode="&#x2113;" horiz-adv-x="495" 
d="M448 150l26 -27c-51 -87 -117 -137 -212 -137c-63 0 -100 14 -128 39c-24 25 -45 58 -45 150v29l-61 -32l-15 37l76 46v115c0 121 12 181 56 233c46 56 95 71 141 71c89 0 124 -69 124 -137c0 -103 -58 -173 -172 -256v-63c0 -99 25 -148 89 -148c50 0 92 41 121 80z
M238 426v-85c45 52 80 97 80 196c0 39 -8 95 -41 95c-37 0 -39 -55 -39 -206z" />
    <glyph glyph-name="estimated" unicode="&#x212e;" horiz-adv-x="764" 
d="M734 293h-570c-3 0 -5 -1 -5 -4v-172c0 -8 3 -14 7 -20c56 -57 132 -94 216 -94c91 0 172 42 227 105h51c-63 -74 -165 -122 -279 -122c-194 0 -351 141 -351 316s157 317 351 317c195 0 353 -142 353 -317v-9zM604 316v173c0 8 -2 15 -8 21c-55 54 -130 90 -214 90
c-83 0 -159 -37 -215 -93c-5 -6 -8 -13 -8 -22v-169c0 -2 2 -6 5 -6h437c3 0 3 4 3 6z" />
    <glyph glyph-name="partialdiff" unicode="&#x2202;" horiz-adv-x="592" 
d="M275 390h1c49 0 99 -20 121 -52c5 26 10 71 11 100c1 46 0 88 -24 131c-21 34 -51 49 -83 49c-62 0 -123 -47 -161 -78c-23 0 -71 70 -55 104c36 16 74 35 159 35c114 0 190 -53 242 -131c46 -70 59 -149 59 -203c0 -75 -14 -151 -56 -221c-48 -82 -123 -138 -241 -138
c-126 0 -207 78 -207 192c0 68 27 117 64 151c45 42 103 61 170 61zM320 335h-1c-25 0 -58 -9 -82 -49c-29 -47 -39 -105 -39 -165c0 -55 17 -93 59 -93c37 0 64 42 82 83c23 54 36 103 48 177c-14 24 -36 47 -67 47z" />
    <glyph glyph-name="product" unicode="&#x220f;" horiz-adv-x="767" 
d="M738 632v-38c-85 -6 -91 -17 -91 -95v-435c0 -81 8 -90 92 -97v-38h-332v38c72 6 75 12 75 98v485c0 30 -5 33 -36 33h-127c-31 0 -34 -4 -34 -34v-484c0 -86 2 -92 69 -98v-38h-325v38c82 7 90 17 90 98v434c0 79 -8 89 -94 95v38h713z" />
    <glyph glyph-name="summation" unicode="&#x2211;" horiz-adv-x="604" 
d="M580 148l-52 -227h-504v41l213 274l-206 354v42h495c1 -17 7 -110 13 -182l-39 -11c-13 41 -29 83 -44 107c-18 29 -30 42 -104 42h-127l147 -261l-219 -281h236c90 0 97 2 152 113z" />
    <glyph glyph-name="uni2219" unicode="&#x2219;" horiz-adv-x="305" 
d="M231 234c0 -44 -36 -79 -79 -79c-44 0 -78 35 -78 79c0 43 34 78 78 78c43 0 79 -35 79 -78z" />
    <glyph glyph-name="radical" unicode="&#x221a;" horiz-adv-x="569" 
d="M567 776l-176 -913l-39 -15l-215 473l-86 -39l-15 46l206 93l137 -323h2l129 689z" />
    <glyph glyph-name="infinity" unicode="&#x221e;" horiz-adv-x="727" 
d="M686 254v-1c0 -109 -78 -171 -158 -171c-46 0 -106 13 -166 100c-47 -59 -94 -100 -167 -100c-81 0 -155 64 -155 165c0 100 71 168 164 168c70 0 119 -33 165 -95c32 35 77 96 163 95c83 -1 154 -62 154 -161zM204 165h1c46 0 83 41 112 78c-34 50 -60 90 -115 90
c-42 0 -77 -31 -77 -86c0 -44 35 -82 79 -82zM524 333h-1c-49 0 -85 -49 -112 -83c51 -70 79 -85 118 -85c46 0 71 46 71 81c0 49 -29 87 -76 87z" />
    <glyph glyph-name="integral" unicode="&#x222b;" horiz-adv-x="423" 
d="M162 -28l-21 350c-21 364 121 418 191 418c39 0 84 -23 84 -60c0 -45 -32 -67 -64 -67c-40 0 -42 73 -62 73c-16 0 -23 -23 -18 -127l19 -330c17 -311 -86 -428 -196 -428c-44 0 -83 27 -84 63c0 40 46 70 79 70c36 0 34 -79 54 -79s23 43 18 117z" />
    <glyph glyph-name="approxequal" unicode="&#x2248;" horiz-adv-x="550" 
d="M460 423l59 -61c-44 -65 -99 -95 -146 -95c-43 0 -71 12 -110 35c-25 14 -49 28 -81 28c-42 0 -71 -29 -100 -63l-58 60c31 49 97 95 160 95c45 0 74 -13 101 -29c39 -25 54 -34 82 -34c35 0 64 24 93 64zM460 239l59 -61c-43 -63 -97 -96 -148 -96c-42 0 -72 15 -108 35
c-28 16 -50 29 -80 29c-44 0 -72 -29 -101 -63l-58 60c31 49 97 95 161 95c44 0 73 -14 99 -29c27 -16 48 -34 82 -34c37 0 62 23 94 64z" />
    <glyph glyph-name="notequal" unicode="&#x2260;" horiz-adv-x="550" 
d="M414 462l-31 -70h121v-90h-160l-50 -109h210v-90h-249l-48 -104l-73 33l33 71h-122v90h161l49 109h-210v90h249l47 103z" />
    <glyph glyph-name="lessequal" unicode="&#x2264;" horiz-adv-x="550" 
d="M503 116l-456 198v96l456 197v-99l-359 -145v-2l359 -146v-99zM504 -6h-459v92h459v-92z" />
    <glyph glyph-name="greaterequal" unicode="&#x2265;" horiz-adv-x="550" 
d="M47 607l457 -198v-96l-456 -197v99l359 146v2l-360 145v99zM499 -6h-453v92h453v-92z" />
    <glyph glyph-name="lozenge" unicode="&#x25ca;" horiz-adv-x="605" 
d="M565 297l-207 -366h-112l-207 366l209 368h110zM459 297l-154 282h-5l-154 -282l155 -285h3z" />
    <glyph glyph-name="uni00A0" unicode="&#xa0;" horiz-adv-x="305" 
 />
    <glyph glyph-name="uni00AD" unicode="&#xad;" horiz-adv-x="333" 
d="M297 164h-262v140h262v-140z" />
    <glyph glyph-name="uni02C9" unicode="&#x2c9;" horiz-adv-x="333" 
d="M344 581h-353v88h353v-88z" />
    <glyph glyph-name="uni03A9" unicode="&#x3a9;" horiz-adv-x="798" 
d="M761 173l-32 -173h-291l-11 27c39 62 114 183 114 316c-1 160 -55 234 -145 234c-91 0 -140 -68 -140 -236c0 -125 68 -244 110 -313l-8 -28h-295l-27 173l39 1c24 -52 38 -65 87 -65h90c-76 43 -180 113 -180 239c0 167 133 273 327 273c196 0 325 -104 325 -267
c0 -112 -101 -190 -188 -245h105c44 0 58 12 80 65z" />
    <glyph glyph-name="uni2215" unicode="&#x2215;" horiz-adv-x="167" 
d="M-167 -15l439 635h62l-437 -635h-64z" />
    <glyph glyph-name="a.superior" horiz-adv-x="367" 
d="M192 428v41c-32 -17 -84 -21 -84 -58c0 -25 17 -34 37 -34c37 0 47 26 47 51zM333 433h36v-33c0 -60 -25 -79 -97 -79c-31 0 -62 14 -72 43c-27 -30 -58 -43 -100 -43c-62 0 -100 22 -100 83c0 114 193 47 193 126c0 39 -27 53 -63 53c-18 0 -36 -3 -51 -12v-2
c19 -1 40 -11 40 -32c0 -26 -25 -38 -51 -38c-30 0 -56 16 -56 45c0 66 98 76 150 76c89 0 138 -19 138 -107v-112c0 -17 1 -24 12 -24c14 0 21 8 21 42v14z" />
    <glyph glyph-name="o.superior" horiz-adv-x="334" 
d="M168 620c97 0 167 -54 167 -150s-70 -149 -167 -149s-168 53 -168 149s71 150 168 150zM168 572c-39 0 -53 -31 -53 -102c0 -70 14 -101 53 -101s52 31 52 101c0 71 -13 102 -52 102z" />
    <glyph glyph-name="one.superior" horiz-adv-x="366" 
d="M155 611h84v-284c0 -17 9 -29 29 -29h40v-50h-253v50h43c20 0 29 12 29 29v186h-70v50h16c38 0 65 11 82 48z" />
    <glyph glyph-name="two.superior" horiz-adv-x="366" 
d="M64 248h-57v25c0 150 219 136 219 235c0 42 -37 64 -80 64c-32 0 -71 -16 -79 -48c8 4 18 5 25 5c25 0 43 -22 43 -43c0 -19 -9 -48 -61 -48c-39 0 -67 26 -67 63c0 86 94 119 174 119s164 -33 164 -119c0 -144 -205 -98 -264 -183l1 -2c27 18 50 23 83 23
c22 0 38 -3 54 -6s32 -8 52 -8c30 0 33 29 33 49h55v-29c0 -69 -38 -106 -114 -106c-30 0 -55 8 -79 17c-23 8 -44 17 -65 17s-35 -8 -37 -25z" />
    <glyph glyph-name="three.superior" horiz-adv-x="366" 
d="M158 414v48c41 0 77 8 77 52c0 42 -37 58 -78 58c-26 0 -47 -4 -66 -23c30 0 54 -9 54 -40c0 -29 -30 -43 -59 -43c-33 0 -57 23 -57 54c0 77 89 100 157 100c66 0 169 -17 169 -96c0 -50 -38 -71 -87 -79v-2c56 -13 99 -32 99 -93c0 -90 -80 -111 -177 -111
c-82 0 -170 14 -170 99c0 39 23 61 65 61c29 0 54 -18 54 -47c0 -30 -24 -43 -54 -43c11 -13 48 -22 65 -22c47 0 97 13 97 67c0 53 -40 60 -89 60z" />
    <glyph glyph-name="uni2206" unicode="&#x2206;" horiz-adv-x="697" 
d="M660 0h-624v41l269 563l77 16l278 -579v-41zM462 69l-172 380l-171 -380h343z" />
    <glyph glyph-name="uni2010" unicode="&#x2010;" horiz-adv-x="333" 
d="M297 164h-262v140h262v-140z" />
    </font>
</defs>
</svg>
