<?xml version="1.0" standalone="no"?>
<!DOCTYPE svg PUBLIC "-//W3C//DTD SVG 1.1//EN" "http://www.w3.org/Graphics/SVG/1.1/DTD/svg11.dtd" >
<svg>
<metadata>
Created by FontForge 20120731 at Mon Jul  1 18:09:15 2019
 By www
 The digitally encoded machine readable software for producing the
 Typefaces licensed to you is copyrighted (c) 1988, 1995, 1998, 2002 Adobe Systems.
 All Rights Reserved. This software is the property of Adobe Systems
 Incorporated and its licensors, and may not be reproduced, used, 
 displayed, modified, disclosed or transferred without the express 
 written approval of Adobe.
 
 The digitally encoded machine readable outline data for producing the Typefaces 
 provided as part of your laser printer is copyrighted (c) 1981, 1998, 2002 Heidelberger Druckmaschinen AG. 
 All rights reserved. This data is the property of Heidelberger Druckmaschinen AG, 
 and may not be reproduced, used, displayed, modified, disclosed or transferred 
 without the express written approval of Heidelberger Druckmaschinen AG. 
</metadata>
<defs>
<font id="ClarendonLTStd-Light" horiz-adv-x="611" >
  <font-face 
    font-family="Clarendon LT Std"
    font-weight="300"
    font-stretch="normal"
    units-per-em="1000"
    panose-1="2 4 6 4 4 5 5 2 2 4"
    ascent="663"
    descent="-337"
    x-height="468"
    cap-height="663"
    bbox="-167 -250 1000 911"
    underline-thickness="50"
    underline-position="-50"
    stemh="47"
    stemv="85"
    unicode-range="U+0020-FB02"
  />
<missing-glyph horiz-adv-x="500" 
d="M0 0v700h500v-700h-500zM250 395l170 255h-340zM280 350l170 -255v510zM80 50h340l-170 255zM50 605v-510l170 255z" />
    <glyph glyph-name="f_i" unicode="fi" horiz-adv-x="667" 
d="M211 421v-328c0 -31 15 -46 41 -46h63v-47h-296v47h55c34 0 52 15 52 55v319h-107v47h107v49c0 123 117 166 222 166c72 0 180 -23 180 -113c0 -32 -24 -54 -58 -54c-31 0 -54 17 -54 47c0 36 30 40 30 42c0 10 -38 31 -108 31c-86 0 -127 -44 -127 -110v-58h334v-375
c0 -31 13 -46 40 -46h63v-47h-282v47h54c33 0 40 15 40 46v282c0 31 -18 46 -46 46h-203z" />
    <glyph glyph-name="f_l" unicode="fl" horiz-adv-x="667" 
d="M211 421v-328c0 -31 7 -46 40 -46h64v-47h-296v47h67c33 0 40 15 40 46v328h-107v47h107v37c0 114 96 178 204 178h215v-590c0 -31 7 -46 40 -46h63v-47h-282v47h54c33 0 40 15 40 46v429c-25 2 -41 23 -41 44c0 28 15 42 45 53v2c-23 12 -65 15 -97 15
c-120 0 -156 -31 -156 -144v-24h120v-47h-120z" />
    <glyph glyph-name=".notdef" horiz-adv-x="500" 
d="M0 0v700h500v-700h-500zM250 395l170 255h-340zM280 350l170 -255v510zM80 50h340l-170 255zM50 605v-510l170 255z" />
    <glyph glyph-name="space" unicode=" " horiz-adv-x="305" 
 />
    <glyph glyph-name="exclam" unicode="!" horiz-adv-x="333" 
d="M186 178h-42c-1 16 -1 32 -2 48c-8 127 -31 366 -31 383c0 35 13 74 54 74s54 -39 54 -74c0 -17 -23 -256 -31 -383c-1 -16 -1 -32 -2 -48zM166 97c33 0 56 -24 56 -56s-23 -56 -56 -56s-56 24 -56 56s23 56 56 56z" />
    <glyph glyph-name="quotedbl" unicode="&#x22;" horiz-adv-x="333" 
d="M266 602l-16 -204c0 -8 0 -31 -15 -31s-14 23 -15 31l-16 204c0 8 -1 21 -1 33c0 24 8 48 32 48s32 -24 32 -48c0 -12 0 -25 -1 -33zM129 602l-16 -204c0 -8 0 -31 -15 -31s-14 23 -15 31l-16 204c0 8 -1 21 -1 33c0 24 8 48 32 48s32 -24 32 -48c0 -12 0 -25 -1 -33z
" />
    <glyph glyph-name="numbersign" unicode="#" 
d="M496 235l-3 -47h-88l-28 -188h-52l28 188h-116l-28 -188h-52l27 188h-92l3 47h95l19 135h-93l3 47h95l27 188h53l-28 -188h116l28 188h52l-28 -188h85l-3 -47h-87l-19 -135h86zM377 370h-116l-19 -135h116z" />
    <glyph glyph-name="dollar" unicode="$" 
d="M272 362v208c-78 -6 -133 -42 -133 -104c0 -68 53 -94 133 -104zM332 254v-219c67 4 155 26 155 110c0 55 -45 85 -155 109zM272 35v234c-100 22 -218 44 -218 176c0 122 113 168 218 175v78h60v-78c83 0 215 -62 215 -147c0 -41 -24 -67 -61 -67c-35 0 -59 23 -59 58
c0 30 24 49 43 49c-9 29 -93 55 -138 57v-222c116 -23 240 -72 240 -183c0 -136 -125 -177 -240 -180v-109h-60v109c-93 0 -233 29 -233 154c0 45 22 76 69 76c26 0 61 -19 61 -55c0 -20 -17 -55 -68 -55c47 -66 120 -66 171 -70z" />
    <glyph glyph-name="percent" unicode="%" horiz-adv-x="833" 
d="M649 620l-416 -635h-49l416 635h49zM545 174c0 -60 8 -153 86 -153s86 93 86 153s-8 154 -86 154s-86 -94 -86 -154zM116 430c0 -60 8 -153 86 -153s86 93 86 153s-8 154 -86 154s-86 -94 -86 -154zM471 174c0 102 52 190 160 190s160 -88 160 -190s-52 -189 -160 -189
s-160 87 -160 189zM42 430c0 102 52 190 160 190s160 -88 160 -190s-52 -189 -160 -189s-160 87 -160 189z" />
    <glyph glyph-name="ampersand" unicode="&#x26;" horiz-adv-x="833" 
d="M143 194c0 -94 64 -150 156 -150c41 0 93 17 127 40c-68 75 -124 160 -175 247c-56 -30 -108 -67 -108 -137zM410 553c0 41 -27 76 -68 76c-50 0 -75 -45 -75 -96c0 -34 23 -80 42 -108c49 30 101 65 101 128zM493 398h292v-52h-29c-42 0 -56 -10 -86 -52l-134 -186
c26 -37 54 -64 105 -64c76 0 93 89 93 152h52c0 -119 -35 -216 -172 -216c-54 0 -104 24 -144 59c-54 -43 -126 -59 -194 -59c-128 0 -230 65 -230 203c0 119 98 157 180 206c-27 39 -44 87 -44 134c0 96 66 160 161 160c79 0 141 -55 141 -135c0 -78 -74 -136 -145 -179
c49 -77 96 -158 160 -223l35 44c18 23 60 75 60 105c0 44 -31 51 -67 51h-34v52z" />
    <glyph glyph-name="quoteright" unicode="&#x2019;" horiz-adv-x="222" 
d="M41 442v37c41 3 92 43 96 84c1 10 1 19 0 29c-14 -8 -24 -13 -40 -13c-37 0 -53 21 -53 50c0 34 25 54 61 54c51 0 76 -42 76 -93c0 -58 -41 -132 -140 -148z" />
    <glyph glyph-name="parenleft" unicode="(" horiz-adv-x="333" 
d="M309 683v-36c-156 -85 -201 -238 -201 -404c0 -165 48 -320 201 -399v-36c-190 68 -275 246 -275 438c0 191 85 369 275 437z" />
    <glyph glyph-name="parenright" unicode=")" horiz-adv-x="333" 
d="M24 -192v36c156 85 201 238 201 404c0 165 -48 320 -201 399v36c190 -68 275 -246 275 -438c0 -191 -85 -369 -275 -437z" />
    <glyph glyph-name="asterisk" unicode="*" horiz-adv-x="500" 
d="M249 311c-30 0 -34 21 -34 43c0 27 18 60 20 75c3 20 7 44 7 55c-13 -7 -31 -18 -38 -25c-23 -21 -54 -71 -83 -71c-28 0 -40 17 -40 35c0 15 10 28 32 38c20 9 51 10 80 17c19 4 34 12 40 20c-10 6 -20 12 -31 16c-32 11 -69 9 -98 22c-15 7 -22 17 -22 29
c0 23 13 41 38 41c33 0 69 -60 94 -80c7 -5 16 -10 26 -13c0 11 3 25 -1 40c-11 39 -26 73 -26 90c0 19 7 40 36 40s36 -21 36 -40c0 -17 -15 -51 -25 -90c-4 -15 -2 -29 -2 -40c10 3 19 8 26 13c25 20 62 80 94 80c26 0 39 -18 39 -41c0 -12 -8 -22 -23 -29
c-28 -13 -66 -11 -98 -22c-11 -4 -21 -10 -31 -16c6 -8 22 -16 40 -20c30 -7 60 -8 81 -17c21 -10 32 -23 32 -38c0 -18 -12 -35 -40 -35c-29 0 -61 50 -83 71c-8 7 -26 18 -39 25c0 -11 4 -35 7 -55c3 -15 20 -48 20 -75c0 -22 -4 -43 -34 -43z" />
    <glyph glyph-name="plus" unicode="+" horiz-adv-x="600" 
d="M273 261v207h54v-207h207v-54h-207v-207h-54v207h-207v54h207z" />
    <glyph glyph-name="comma" unicode="," horiz-adv-x="305" 
d="M82 -144v37c41 3 92 43 96 84c1 10 1 19 0 29c-14 -8 -24 -13 -40 -13c-37 0 -53 21 -53 50c0 34 25 54 61 54c51 0 76 -42 76 -93c0 -58 -41 -132 -140 -148z" />
    <glyph glyph-name="hyphen" unicode="-" horiz-adv-x="305" 
d="M282 198h-259v72h259v-72z" />
    <glyph glyph-name="period" unicode="." horiz-adv-x="305" 
d="M152 97c33 0 56 -24 56 -56s-23 -56 -56 -56s-56 24 -56 56s23 56 56 56z" />
    <glyph glyph-name="slash" unicode="/" horiz-adv-x="278" 
d="M1 -20l221 703h55l-221 -703h-55z" />
    <glyph glyph-name="zero" unicode="0" 
d="M305 570c-119 0 -171 -101 -171 -268s52 -267 171 -267s171 100 171 267s-52 268 -171 268zM305 620c190 0 271 -150 271 -318s-81 -317 -271 -317s-271 149 -271 317s81 318 271 318z" />
    <glyph glyph-name="one" unicode="1" 
d="M493 0h-375v50h105c33 0 40 15 40 46v370h-143v50c75 0 157 21 182 104h52v-524c0 -31 7 -46 40 -46h99v-50z" />
    <glyph glyph-name="two" unicode="2" 
d="M500 197h47c0 -110 -26 -212 -158 -212c-41 0 -87 20 -129 41c-42 20 -81 40 -110 40c-37 0 -54 -37 -54 -71h-49c0 361 383 215 383 445c0 84 -72 130 -149 130c-64 0 -139 -19 -158 -90c44 0 69 -16 69 -60c0 -35 -27 -56 -61 -56c-49 0 -69 38 -69 83
c0 132 138 173 245 173c118 0 223 -65 223 -193c0 -243 -358 -154 -410 -325c18 11 36 20 57 20c24 0 66 -13 111 -26c46 -13 94 -26 129 -26c71 0 83 70 83 127z" />
    <glyph glyph-name="three" unicode="3" 
d="M238 296v50h31c73 0 165 13 165 105c0 82 -58 119 -133 119c-61 0 -109 -10 -159 -49c33 -4 50 -24 50 -57s-25 -59 -58 -59c-45 0 -62 33 -62 74c0 104 156 141 235 141c103 0 227 -41 227 -163c0 -86 -90 -133 -142 -132v-2c90 -17 158 -59 158 -157
c0 -155 -159 -181 -281 -181c-94 0 -223 43 -223 155c0 43 27 73 71 73c36 0 59 -22 59 -58c0 -35 -33 -52 -65 -52c15 -49 102 -68 147 -68c96 0 192 17 192 133c0 106 -82 128 -175 128h-37z" />
    <glyph glyph-name="four" unicode="4" 
d="M349 179h-326v48l351 393h66v-391h125v-50h-125v-83c0 -31 7 -46 40 -46h85v-50h-347v50h91c33 0 40 15 40 46v83zM349 512l-252 -283h252v283z" />
    <glyph glyph-name="five" unicode="5" 
d="M79 301l25 319c32 -9 63 -17 94 -22c32 -4 64 -7 97 -7c76 0 152 5 225 29c-6 -47 -47 -75 -96 -92s-105 -22 -141 -22c-43 0 -86 3 -128 14l-13 -144c59 31 108 37 174 37c136 0 232 -74 232 -215c0 -156 -136 -213 -273 -213c-91 0 -226 40 -226 151c0 41 23 76 68 76
c37 0 62 -19 62 -57c0 -36 -32 -56 -66 -55c31 -46 90 -65 144 -65c113 0 191 47 191 168c0 102 -67 160 -167 160c-60 0 -133 -27 -156 -62h-46z" />
    <glyph glyph-name="six" unicode="6" 
d="M310 336c-97 0 -149 -62 -149 -151s52 -150 149 -150s149 61 149 150s-52 151 -149 151zM345 570c-156 0 -192 -123 -194 -256c57 54 116 72 173 72c130 0 235 -63 235 -201s-105 -200 -235 -200c-204 0 -273 131 -273 290c0 189 83 345 291 345c75 0 191 -38 191 -129
c0 -40 -25 -64 -65 -64c-31 0 -55 24 -55 55c0 27 14 51 41 55c-26 23 -76 33 -109 33z" />
    <glyph glyph-name="seven" unicode="7" 
d="M117 605v-75h2c43 51 80 75 148 75c38 0 72 -11 105 -22c32 -12 62 -23 89 -23c28 0 58 13 63 45h47c0 -142 -225 -283 -225 -496v-109h-100v96c0 180 157 318 237 417v2c-29 -15 -64 -19 -98 -19c-30 0 -58 6 -83 12s-48 12 -71 12c-107 0 -114 -83 -114 -169h-50v254
h50z" />
    <glyph glyph-name="eight" unicode="8" 
d="M482 146c0 38 -19 56 -51 75c-35 21 -146 59 -165 59c-20 0 -137 -25 -137 -122c0 -105 93 -123 173 -123c76 0 180 14 180 111zM350 350c35 4 109 56 109 112c0 79 -66 108 -148 108c-101 0 -157 -42 -157 -104c0 -54 33 -71 79 -86c27 -9 91 -30 117 -30zM544 468
c0 -81 -66 -117 -131 -138v-1c99 -37 154 -71 154 -171c0 -146 -159 -173 -262 -173s-261 30 -261 160c0 89 68 135 146 157v2c-68 25 -121 60 -121 151c0 86 75 165 237 165s238 -79 238 -152z" />
    <glyph glyph-name="nine" unicode="9" 
d="M300 269c97 0 149 62 149 151s-52 150 -149 150s-149 -61 -149 -150s52 -151 149 -151zM265 35c156 0 192 123 194 256c-57 -54 -116 -72 -173 -72c-130 0 -235 63 -235 201s105 200 235 200c204 0 273 -131 273 -290c0 -189 -83 -345 -291 -345c-75 0 -191 38 -191 129
c0 40 25 64 65 64c31 0 55 -24 55 -55c0 -27 -14 -51 -41 -55c26 -23 76 -33 109 -33z" />
    <glyph glyph-name="colon" unicode=":" horiz-adv-x="305" 
d="M152 442c33 0 56 -24 56 -56s-23 -56 -56 -56s-56 24 -56 56s23 56 56 56zM152 97c33 0 56 -24 56 -56s-23 -56 -56 -56s-56 24 -56 56s23 56 56 56z" />
    <glyph glyph-name="semicolon" unicode=";" horiz-adv-x="305" 
d="M82 -144v37c41 3 92 43 96 84c1 10 1 19 0 29c-14 -8 -24 -13 -40 -13c-37 0 -53 21 -53 50c0 34 25 54 61 54c51 0 76 -42 76 -93c0 -58 -41 -132 -140 -148zM153 442c33 0 56 -24 56 -56s-23 -56 -56 -56s-56 24 -56 56s23 56 56 56z" />
    <glyph glyph-name="less" unicode="&#x3c;" horiz-adv-x="600" 
d="M554 35v-62l-508 232v58l508 232v-62l-436 -199z" />
    <glyph glyph-name="equal" unicode="=" horiz-adv-x="600" 
d="M534 352v-54h-468v54h468zM534 170v-54h-468v54h468z" />
    <glyph glyph-name="greater" unicode="&#x3e;" horiz-adv-x="600" 
d="M46 35l436 199l-436 199v62l508 -232v-58l-508 -232v62z" />
    <glyph glyph-name="question" unicode="?" horiz-adv-x="500" 
d="M254 177h-51v40c0 144 171 174 171 298c0 77 -65 114 -135 114c-69 0 -157 -37 -157 -102c0 -8 1 -16 3 -24c11 7 23 14 43 14c27 0 48 -20 48 -53s-19 -56 -59 -56c-59 0 -84 51 -84 103c0 124 118 172 224 172c105 0 210 -56 210 -173c0 -168 -213 -170 -213 -302v-31z
M230 97c33 0 56 -24 56 -56s-23 -56 -56 -56s-56 24 -56 56s23 56 56 56z" />
    <glyph glyph-name="at" unicode="@" horiz-adv-x="800" 
d="M515 417c0 32 -15 55 -45 55c-52 0 -148 -74 -148 -206c0 -64 30 -85 70 -85c48 0 123 114 123 236zM530 458l11 41h71l-69 -264c-4 -12 -11 -63 39 -63c92 0 143 121 143 210c0 117 -112 275 -309 275c-168 0 -301 -125 -301 -352c0 -145 120 -289 311 -289
c93 0 148 21 208 48l14 -27c-68 -29 -139 -57 -221 -57c-274 0 -394 199 -394 336c0 219 176 367 383 367c194 0 345 -128 345 -300c0 -104 -70 -243 -195 -243c-70 0 -95 59 -94 72h-2c-12 -17 -42 -68 -121 -71c-27 -1 -101 8 -101 126c0 70 66 244 207 244
c49 0 61 -28 75 -53z" />
    <glyph glyph-name="A" unicode="A" horiz-adv-x="778" 
d="M309 0h-290v52h41c45 0 59 22 74 60l214 556h82l219 -566c13 -34 36 -50 71 -50h38v-52h-317v52h61c40 0 52 7 52 23s-16 51 -22 66l-30 81h-258l-31 -91c-9 -27 -17 -43 -17 -56c0 -19 10 -23 58 -23h55v-52zM481 274l-110 285l-108 -285h218z" />
    <glyph glyph-name="B" unicode="B" horiz-adv-x="722" 
d="M233 611v-240h132c111 0 179 41 179 119c0 76 -42 121 -179 121h-132zM16 0v52h68c32 0 52 18 52 52v455c0 33 -13 52 -46 52h-74v52h398c128 0 227 -53 227 -163c0 -97 -78 -137 -163 -151v-2c102 -13 187 -56 187 -171c0 -111 -88 -176 -306 -176h-343zM233 319v-267
h143c102 0 182 24 182 133s-80 134 -182 134h-143z" />
    <glyph glyph-name="C" unicode="C" horiz-adv-x="667" 
d="M629 668v-263h-52c-15 141 -101 224 -211 224c-168 0 -229 -127 -229 -298c0 -153 61 -297 229 -297c129 0 196 86 207 206h64c-11 -182 -125 -260 -291 -260c-222 0 -316 162 -316 351c0 201 106 352 326 352c74 0 145 -31 200 -79l26 64h47z" />
    <glyph glyph-name="D" unicode="D" horiz-adv-x="778" 
d="M16 611v52h370c206 0 361 -87 361 -332c0 -235 -159 -331 -343 -331h-390v52h74c31 0 45 19 45 51v456c0 33 -13 52 -46 52h-71zM230 611v-559h146c178 0 264 85 264 279s-86 280 -280 280h-130z" />
    <glyph glyph-name="E" unicode="E" horiz-adv-x="722" 
d="M657 0h-641v52h74c31 0 45 19 45 51v456c0 33 -13 52 -46 52h-70v52h638v-250h-52c-5 124 -15 198 -162 198h-211v-240h83c79 0 89 23 93 131h52v-326h-52c-4 120 -14 143 -93 143h-83v-267h211c147 0 157 74 162 217h52v-269z" />
    <glyph glyph-name="F" unicode="F" horiz-adv-x="667" 
d="M236 611v-240h66c79 0 91 23 95 130h52v-324h-52c-4 119 -16 142 -95 142h-66v-216c0 -32 14 -51 45 -51h77v-52h-340v52h76c31 0 45 19 45 51v456c0 33 -13 52 -46 52h-74v52h620v-261h-52c0 169 -48 209 -166 209h-185z" />
    <glyph glyph-name="G" unicode="G" horiz-adv-x="778" 
d="M629 668v-249h-52c-30 108 -91 210 -223 210c-180 0 -228 -137 -228 -325c0 -160 92 -270 220 -270c114 0 203 66 203 124v78c0 33 -13 52 -46 52h-82v52h338v-52h-67c-33 0 -46 -19 -46 -52v-241h-52l-36 61c-58 -52 -154 -76 -212 -76c-186 0 -327 116 -327 351
c0 213 139 352 315 352c80 0 161 -26 217 -86l32 71h46z" />
    <glyph glyph-name="H" unicode="H" horiz-adv-x="833" 
d="M237 362h358v197c0 33 -13 52 -46 52h-76v52h340v-52h-75c-33 0 -46 -19 -46 -52v-456c0 -32 14 -51 45 -51h76v-52h-340v52h77c31 0 45 19 45 51v207h-358v-207c0 -32 14 -51 45 -51h77v-52h-340v52h76c31 0 45 19 45 51v456c0 33 -13 52 -46 52h-75v52h340v-52h-76
c-33 0 -46 -19 -46 -52v-197z" />
    <glyph glyph-name="I" unicode="I" horiz-adv-x="389" 
d="M365 0h-340v52h76c31 0 45 19 45 51v456c0 33 -13 52 -46 52h-75v52h340v-52h-76c-33 0 -46 -19 -46 -52v-456c0 -32 14 -51 45 -51h77v-52z" />
    <glyph glyph-name="J" unicode="J" horiz-adv-x="556" 
d="M192 663h343v-52h-73c-33 0 -46 -19 -46 -52v-368c0 -152 -75 -211 -210 -211c-126 0 -191 79 -191 144c0 45 25 84 72 84c42 0 68 -23 68 -66c0 -41 -29 -59 -68 -59c19 -41 75 -51 105 -51c60 0 127 23 127 122v405c0 33 -13 52 -46 52h-81v52z" />
    <glyph glyph-name="K" unicode="K" horiz-adv-x="833" 
d="M357 0h-335v52h75c31 0 45 19 45 51v456c0 33 -13 52 -46 52h-74v52h333v-52h-70c-33 0 -46 -19 -46 -52v-248l284 257c6 5 15 15 15 24c0 17 -16 19 -38 19h-64v52h338v-52h-44c-64 0 -109 -37 -153 -77l-170 -154l275 -288c21 -22 47 -40 85 -40h44v-52h-364v52h74
c20 0 43 5 43 22c0 12 -15 22 -35 44l-189 204l-101 -91v-128c0 -32 14 -51 45 -51h73v-52z" />
    <glyph glyph-name="L" unicode="L" horiz-adv-x="667" 
d="M637 0h-621v52h78c31 0 45 19 45 51v456c0 33 -13 52 -46 52h-75v52h340v-52h-76c-33 0 -46 -19 -46 -52v-507h189c118 0 160 40 160 221h52v-273z" />
    <glyph glyph-name="M" unicode="M" horiz-adv-x="944" 
d="M711 576l-225 -576h-59l-225 598h-2v-482c0 -46 13 -64 48 -64h70v-52h-301v52h71c35 0 48 18 48 64v438c0 40 -12 57 -48 57h-69v52h254l200 -524l210 524h244v-52h-36c-59 0 -81 -8 -81 -58v-437c0 -46 13 -64 48 -64h69v-52h-331v52h69c35 0 48 16 48 48v476h-2z" />
    <glyph glyph-name="N" unicode="N" horiz-adv-x="833" 
d="M616 -5l-411 584h-2v-476c0 -32 14 -51 45 -51h79v-52h-310v52h77c31 0 45 19 45 51v456c0 33 -13 52 -46 52h-76v52h242l373 -535h2v431c0 33 -13 52 -46 52h-78v52h306v-52h-72c-33 0 -46 -19 -46 -52v-564h-82z" />
    <glyph glyph-name="O" unicode="O" horiz-adv-x="778" 
d="M389 683c244 0 361 -176 361 -352s-117 -351 -361 -351s-361 175 -361 351s117 352 361 352zM389 629c-181 0 -254 -146 -254 -298s73 -297 254 -297s254 145 254 297s-73 298 -254 298z" />
    <glyph glyph-name="P" unicode="P" horiz-adv-x="667" 
d="M361 0h-343v52h78c31 0 45 19 45 51v456c0 33 -13 52 -46 52h-77v52h356c155 0 274 -39 274 -182c0 -131 -108 -182 -232 -182h-178v-185c0 -36 16 -62 64 -62h59v-52zM238 611v-260h145c90 0 158 30 158 130s-68 130 -158 130h-145z" />
    <glyph glyph-name="Q" unicode="Q" horiz-adv-x="833" 
d="M787 111h52c-3 -86 -46 -180 -145 -180c-67 0 -97 28 -140 72c-40 -15 -86 -23 -138 -23c-244 0 -361 175 -361 351s117 352 361 352s361 -176 361 -352c0 -106 -44 -218 -142 -286c22 -24 42 -43 72 -43c54 0 78 65 80 109zM670 333c0 152 -73 298 -254 298
s-254 -146 -254 -298c0 -108 35 -211 115 -263l2 2c-10 16 -18 32 -18 54c0 67 61 109 124 109c99 0 156 -65 206 -137c54 54 79 136 79 235zM380 175c-41 0 -67 -26 -67 -66c0 -49 38 -75 99 -75c41 0 77 7 108 19c-30 51 -77 122 -140 122z" />
    <glyph glyph-name="R" unicode="R" horiz-adv-x="778" 
d="M23 0v52h78c31 0 45 19 45 51v456c0 33 -13 52 -46 52h-77v52h415c122 0 235 -47 235 -168c0 -108 -91 -147 -184 -156v-2c119 -11 146 -93 146 -245c0 -44 7 -52 32 -52c31 0 35 51 35 74v51h52c0 -145 -37 -185 -113 -185c-71 0 -103 39 -103 94
c0 174 -30 245 -165 245h-130v-216c0 -32 14 -51 45 -51h78v-52h-343zM243 611v-240h161c102 0 162 29 162 120c0 89 -40 120 -182 120h-141z" />
    <glyph glyph-name="S" unicode="S" 
d="M551 668v-254h-52c-13 144 -119 215 -225 215c-118 0 -155 -57 -155 -122c0 -190 467 -44 467 -325c0 -140 -116 -202 -264 -202c-83 0 -152 30 -209 88l-29 -73h-52v275h52c13 -126 109 -236 242 -236c81 0 173 30 173 126c0 208 -467 49 -467 336c0 88 64 187 234 187
c96 0 159 -27 210 -75l29 60h46z" />
    <glyph glyph-name="T" unicode="T" horiz-adv-x="667" 
d="M77 402h-52v261h617v-261h-52c0 146 -25 209 -171 209h-37v-508c0 -32 14 -51 45 -51h85v-52h-359v52h87c31 0 45 19 45 51v508h-44c-139 0 -164 -72 -164 -209z" />
    <glyph glyph-name="U" unicode="U" horiz-adv-x="778" 
d="M456 611v52h303v-52h-72c-33 0 -46 -19 -46 -52v-304c0 -199 -71 -275 -270 -275c-139 0 -236 69 -236 214v365c0 33 -13 52 -46 52h-71v52h334v-52h-74c-33 0 -46 -19 -46 -52v-343c0 -117 50 -176 168 -176c141 0 177 75 177 205v314c0 33 -13 52 -46 52h-75z" />
    <glyph glyph-name="V" unicode="V" horiz-adv-x="778" 
d="M24 611v52h324v-52h-70c-17 0 -41 -6 -41 -26c0 -14 7 -27 11 -40l152 -434h2l162 441c3 7 8 24 8 31c0 20 -26 28 -42 28h-68v52h291v-52h-51c-30 0 -54 -14 -65 -44l-214 -572h-78l-207 560c-13 36 -30 56 -70 56h-44z" />
    <glyph glyph-name="W" unicode="W" horiz-adv-x="1000" 
d="M355 -5h-80l-163 557c-14 46 -22 59 -72 59h-22v52h280v-52h-50c-23 0 -39 -7 -39 -28c0 -12 2 -22 7 -41l116 -426h2l138 419c3 10 -24 76 -60 76h-49v52h289v-52h-49c-21 0 -45 -3 -45 -31c0 -16 13 -53 18 -71l115 -391h2l119 399c5 16 13 44 13 62
c0 30 -21 32 -46 32h-52v52h254v-52h-29c-38 0 -55 -22 -61 -42l-175 -574h-80l-134 441h-2z" />
    <glyph glyph-name="X" unicode="X" horiz-adv-x="778" 
d="M312 0h-294v52h27c40 0 75 21 106 58l181 216l-163 215c-31 41 -54 70 -107 70h-32v52h319v-52h-69c-13 0 -25 -5 -25 -19c0 -10 8 -22 16 -32l121 -158l131 158c8 10 16 22 16 32c0 14 -13 19 -26 19h-67v52h287v-52h-42c-53 0 -75 -30 -107 -70l-153 -191l186 -244
c25 -32 55 -54 103 -54h39v-52h-345v52h64c24 0 36 9 36 25c0 14 -18 35 -26 46l-119 152l-123 -152c-9 -11 -35 -35 -35 -49c0 -16 21 -22 45 -22h56v-52z" />
    <glyph glyph-name="Y" unicode="Y" horiz-adv-x="722" 
d="M16 611v52h308v-52h-42c-40 0 -60 -6 -60 -22c0 -12 13 -26 21 -40l132 -224l138 220c9 14 19 31 19 42c0 19 -20 24 -45 24h-56v52h270v-52h-25c-32 0 -68 -26 -89 -60l-180 -292v-145c0 -50 29 -62 76 -62h56v-52h-361v52h56c47 0 76 12 76 62v145l-194 311
c-17 27 -42 41 -74 41h-26z" />
    <glyph glyph-name="Z" unicode="Z" 
d="M103 402h-52v261h526v-52l-428 -559h203c118 0 172 28 173 233h52v-285h-544v52l430 559h-211c-112 0 -139 -25 -149 -209z" />
    <glyph glyph-name="bracketleft" unicode="[" horiz-adv-x="333" 
d="M303 -174h-221v837h221v-44h-147v-749h147v-44z" />
    <glyph glyph-name="backslash" unicode="\" horiz-adv-x="278" 
d="M56 683l221 -703h-55l-221 703h55z" />
    <glyph glyph-name="bracketright" unicode="]" horiz-adv-x="333" 
d="M251 -174h-221v44h147v749h-147v44h221v-837z" />
    <glyph glyph-name="asciicircum" unicode="^" horiz-adv-x="600" 
d="M153 240h-62l183 365h52l183 -365h-62l-147 295z" />
    <glyph glyph-name="underscore" unicode="_" horiz-adv-x="500" 
d="M0 -75h500v-50h-500v50z" />
    <glyph glyph-name="quoteleft" unicode="&#x2018;" horiz-adv-x="222" 
d="M181 683v-37c-41 -3 -92 -43 -96 -84c-1 -10 -1 -19 0 -29c14 8 24 13 40 13c37 0 53 -21 53 -50c0 -34 -25 -54 -61 -54c-51 0 -76 42 -76 93c0 58 41 132 140 148z" />
    <glyph glyph-name="a" unicode="a" horiz-adv-x="556" 
d="M341 163v92c-43 -25 -89 -35 -148 -60c-54 -23 -76 -45 -76 -80c0 -52 28 -83 79 -83c66 0 145 62 145 131zM426 319v-234c0 -30 8 -53 26 -53c43 0 47 56 47 85v42h47v-29c0 -106 -36 -145 -112 -145c-50 0 -80 30 -88 78c-49 -54 -105 -78 -177 -78
c-81 0 -147 36 -147 125c0 130 180 128 281 176c31 15 38 34 38 64c0 57 -25 86 -112 86c-39 0 -88 -6 -117 -39c30 -5 46 -21 46 -51c0 -39 -32 -53 -60 -53c-35 0 -52 31 -52 71c0 85 114 119 190 119c115 0 190 -34 190 -164z" />
    <glyph glyph-name="b" unicode="b" horiz-adv-x="556" 
d="M143 234c0 -89 28 -193 134 -193s134 104 134 193s-28 193 -134 193s-134 -104 -134 -193zM58 -5v575c0 30 -13 46 -46 46h-37v47h168v-272h2c31 58 83 92 151 92c140 0 210 -113 210 -249s-70 -249 -210 -249c-72 0 -126 31 -161 95l-33 -85h-44z" />
    <glyph glyph-name="c" unicode="c" horiz-adv-x="500" 
d="M408 172h58c-14 -135 -97 -187 -228 -187c-124 0 -220 83 -220 249c0 148 106 249 248 249c89 0 203 -46 203 -150c0 -41 -24 -69 -63 -69c-25 0 -49 21 -49 47c0 34 17 52 51 57c-16 49 -82 68 -127 68c-127 0 -168 -110 -168 -202s41 -202 149 -202
c80 0 130 55 146 140z" />
    <glyph glyph-name="d" unicode="d" 
d="M413 0v90h-2c-36 -67 -78 -105 -166 -105c-150 0 -216 127 -216 249s66 249 216 249c64 0 132 -36 166 -99h2v175c0 33 -13 57 -46 57h-52v47h183v-580c0 -24 14 -36 37 -36h58v-47h-180zM267 427c-102 0 -143 -93 -143 -193c0 -114 40 -193 132 -193
c113 0 154 93 154 193s-41 193 -143 193z" />
    <glyph glyph-name="e" unicode="e" horiz-adv-x="500" 
d="M478 228h-361c0 -102 22 -196 140 -196c80 0 129 42 150 120h58c-22 -108 -91 -167 -209 -167c-148 0 -234 85 -234 249s86 249 234 249c161 0 213 -113 222 -255zM117 275h266c0 87 -39 161 -130 161c-93 0 -136 -74 -136 -161z" />
    <glyph glyph-name="f" unicode="f" horiz-adv-x="389" 
d="M322 421h-111v-328c0 -31 25 -46 57 -46h50v-47h-299v47h67c33 0 40 15 40 46v328h-107v47h107v68c0 107 79 147 155 147c57 0 147 -20 147 -105c0 -37 -26 -57 -60 -57c-41 0 -52 23 -52 49c0 24 19 37 40 39c-15 21 -49 27 -72 27c-40 0 -73 -36 -73 -88v-80h111v-47z
" />
    <glyph glyph-name="g" unicode="g" horiz-adv-x="667" 
d="M388 -18h-153c-59 0 -119 -26 -119 -70c0 -66 89 -77 190 -77c99 0 182 26 182 74c0 52 -35 73 -100 73zM293 436c-85 0 -121 -54 -121 -131s36 -130 121 -130s121 53 121 130s-36 131 -121 131zM191 56h165c149 0 206 -43 206 -125c0 -94 -94 -143 -267 -143
c-160 0 -253 36 -253 116c0 63 55 86 105 88v2c-46 0 -87 32 -87 81s42 88 88 97c-51 29 -71 84 -71 139c0 123 111 172 218 172c59 0 116 -21 162 -57c25 31 60 57 102 57c55 0 96 -32 96 -89c0 -39 -18 -64 -59 -64c-29 0 -46 21 -46 48c0 29 20 42 48 42
c-8 13 -25 16 -43 16c-27 0 -58 -20 -74 -40c16 -30 28 -65 28 -107c0 -79 -81 -161 -212 -161c-81 0 -94 19 -111 19c-27 0 -52 -24 -52 -50c0 -29 27 -41 57 -41z" />
    <glyph glyph-name="h" unicode="h" horiz-adv-x="667" 
d="M209 663v-275h2c39 58 99 95 176 95c105 0 161 -69 161 -173v-217c0 -31 7 -46 40 -46h60v-47h-280v47h55c33 0 40 15 40 46v224c0 69 -26 110 -103 110c-95 0 -151 -76 -151 -156v-178c0 -31 7 -46 40 -46h61v-47h-291v47h65c33 0 40 15 40 46v477c0 31 -7 46 -40 46
h-65v47h190z" />
    <glyph glyph-name="i" unicode="i" horiz-adv-x="333" 
d="M209 468v-375c0 -31 7 -46 40 -46h64v-47h-294v47h65c33 0 40 15 40 46v282c0 31 -7 46 -40 46h-65v47h190zM207 618c0 -30 -25 -54 -54 -54c-30 0 -54 24 -54 54c0 29 24 54 54 54c29 0 54 -25 54 -54z" />
    <glyph glyph-name="j" unicode="j" horiz-adv-x="333" 
d="M43 468h190v-518c0 -144 -105 -162 -165 -162c-52 0 -122 30 -122 97c0 40 17 71 52 71c28 0 60 -14 60 -53c0 -30 -16 -46 -46 -51c9 -13 40 -17 59 -17c65 0 77 35 77 121v419c0 31 -7 46 -40 46h-65v47zM231 618c0 -30 -25 -54 -54 -54c-30 0 -54 24 -54 54
c0 29 24 54 54 54c29 0 54 -25 54 -54z" />
    <glyph glyph-name="k" unicode="k" horiz-adv-x="667" 
d="M21 663h186v-436l183 146c15 12 20 20 20 30c0 13 -12 18 -37 18h-60v47h303v-47h-27c-29 0 -68 -14 -93 -34l-139 -112l163 -175c27 -29 56 -53 105 -53h21v-47h-294v47h55c18 0 29 4 29 18c0 15 -22 32 -28 39l-113 124l-88 -68v-67c0 -31 7 -46 40 -46h52v-47h-278v47
h51c43 0 50 15 50 46v477c0 30 -18 46 -54 46h-47v47z" />
    <glyph glyph-name="l" unicode="l" horiz-adv-x="333" 
d="M209 663v-570c0 -31 7 -46 40 -46h64v-47h-294v47h65c33 0 40 15 40 46v477c0 31 -24 46 -40 46h-65v47h190z" />
    <glyph glyph-name="m" unicode="m" horiz-adv-x="944" 
d="M209 468v-86h2c42 63 81 101 163 101c68 0 116 -41 133 -101c45 64 93 101 168 101c135 0 152 -91 152 -217v-173c0 -31 7 -46 40 -46h58v-47h-270v47h47c33 0 40 15 40 46v244c0 60 -36 90 -89 90c-74 0 -135 -79 -135 -144v-190c0 -31 7 -46 40 -46h46v-47h-257v47h46
c33 0 40 15 40 46v232c0 61 -32 102 -90 102c-75 0 -134 -83 -134 -144v-190c0 -31 7 -46 40 -46h45v-47h-275v47h65c33 0 40 15 40 46v282c0 31 -7 46 -40 46h-65v47h190z" />
    <glyph glyph-name="n" unicode="n" horiz-adv-x="667" 
d="M208 468v-85h2c40 63 100 100 177 100c105 0 161 -69 161 -173v-217c0 -31 7 -46 40 -46h60v-47h-280v47h55c33 0 40 15 40 46v224c0 69 -26 110 -103 110c-95 0 -151 -76 -151 -156v-178c0 -31 7 -46 40 -46h61v-47h-291v47h65c33 0 40 15 40 46v282c0 31 -7 46 -40 46
h-65v47h189z" />
    <glyph glyph-name="o" unicode="o" horiz-adv-x="556" 
d="M278 483c161 0 258 -105 258 -249s-97 -249 -258 -249s-258 105 -258 249s97 249 258 249zM278 436c-124 0 -163 -94 -163 -202s39 -202 163 -202s163 94 163 202s-39 202 -163 202z" />
    <glyph glyph-name="p" unicode="p" 
d="M319 41c102 0 143 93 143 193c0 122 -45 193 -133 193c-106 0 -153 -93 -153 -193s41 -193 143 -193zM176 468v-88h2c35 66 87 103 166 103c147 0 213 -119 213 -247c0 -132 -66 -251 -213 -251c-85 0 -133 37 -166 94h-2v-193c0 -32 14 -51 45 -51h55v-47h-280v47h50
c31 0 45 19 45 51v483c0 33 -13 52 -46 52h-49v47h180z" />
    <glyph glyph-name="q" unicode="q" 
d="M283 427c-102 0 -143 -93 -143 -193s41 -193 143 -193s143 93 143 193s-41 193 -143 193zM426 380v88h180v-47h-49c-33 0 -46 -19 -46 -52v-483c0 -32 14 -51 45 -51h50v-47h-280v47h55c31 0 45 19 45 51v193h-2c-33 -57 -81 -94 -166 -94c-147 0 -213 119 -213 251
c0 128 66 247 213 247c79 0 131 -37 166 -103h2z" />
    <glyph glyph-name="r" unicode="r" horiz-adv-x="500" 
d="M216 468v-101h2c25 69 84 116 142 116c68 0 113 -37 113 -106c0 -38 -16 -67 -56 -67c-27 0 -56 17 -56 46c0 36 24 52 60 52c-5 23 -36 28 -58 28c-94 0 -143 -109 -143 -208v-135c0 -31 18 -46 50 -46h54v-47h-294v47h65c33 0 40 15 40 46v282c0 31 -7 46 -40 46h-69
v47h190z" />
    <glyph glyph-name="s" unicode="s" horiz-adv-x="500" 
d="M36 189h52c15 -95 91 -157 186 -157c60 0 104 30 104 78c0 129 -336 30 -336 235c0 100 91 138 178 138c56 0 113 -20 155 -57l18 47h45v-184h-47c-11 88 -87 147 -169 147c-44 0 -95 -15 -95 -80c0 -119 336 -30 336 -226c0 -105 -94 -145 -186 -145
c-62 0 -124 19 -170 62l-19 -52h-52v194z" />
    <glyph glyph-name="t" unicode="t" horiz-adv-x="389" 
d="M26 421v47c94 13 112 113 118 195h52v-195h142v-47h-142v-330c0 -41 16 -59 50 -59c42 0 70 40 70 98v58h47v-43c0 -97 -29 -160 -136 -160c-88 0 -116 58 -116 114v322h-85z" />
    <glyph glyph-name="u" unicode="u" horiz-adv-x="667" 
d="M459 0v85h-2c-40 -63 -100 -100 -177 -100c-105 0 -161 47 -161 157v233c0 31 -7 46 -40 46h-60v47h185v-317c0 -69 26 -110 103 -110c95 0 151 76 151 156v178c0 31 -7 46 -40 46h-61v47h186v-375c0 -31 7 -46 40 -46h65v-47h-189z" />
    <glyph glyph-name="v" unicode="v" horiz-adv-x="556" 
d="M13 421v47h238v-47h-38c-31 0 -43 -6 -43 -17s9 -26 22 -59l96 -245h2l105 256c8 20 13 34 13 45c0 12 -19 20 -56 20h-27v47h218v-47h-15c-33 0 -48 -14 -59 -40l-166 -386h-55l-162 389c-10 23 -25 37 -58 37h-15z" />
    <glyph glyph-name="w" unicode="w" horiz-adv-x="833" 
d="M16 421v47h227v-47h-37c-24 0 -32 -5 -32 -19c0 -11 4 -20 9 -32l99 -267h2l107 262c-14 31 -34 56 -62 56h-26v47h236v-47h-41c-28 0 -36 -6 -36 -18c0 -11 7 -21 12 -36l98 -271h2l102 273c5 13 8 21 8 32c0 13 -27 20 -56 20h-20v47h209v-47h-15
c-33 0 -52 -20 -62 -47l-151 -379h-58l-117 291l-115 -291h-56l-158 393c-9 22 -24 33 -57 33h-12z" />
    <glyph glyph-name="x" unicode="x" 
d="M265 0h-248v47h15c31 0 56 15 90 50l135 138l-126 135c-33 36 -59 51 -102 51h-12v47h266v-47h-29c-24 0 -38 -1 -38 -16c0 -7 7 -16 13 -22l81 -89l79 86c12 13 17 21 17 28c0 11 -15 13 -38 13h-31v47h238v-47h-11c-43 0 -68 -16 -102 -51l-115 -119l141 -154
c33 -36 59 -50 90 -50h16v-47h-274v47h41c28 0 41 4 41 15c0 9 -12 24 -24 38l-85 93l-90 -98c-12 -13 -24 -27 -24 -36s10 -12 49 -12h37v-47z" />
    <glyph glyph-name="y" unicode="y" 
d="M277 468v-47h-22c-48 0 -61 -4 -61 -20c0 -12 11 -36 26 -72l99 -234l117 270c3 8 7 18 7 32c0 15 -21 24 -61 24h-28v47h238v-47h-28c-29 0 -52 -27 -68 -63l-209 -468c-26 -59 -84 -102 -155 -102c-58 0 -114 39 -114 102c0 61 35 79 62 79c28 0 54 -18 54 -52
c0 -37 -31 -46 -60 -46c4 -18 29 -36 59 -36c49 0 80 28 99 66l48 97l-169 370c-17 37 -35 53 -72 53h-21v47h259z" />
    <glyph glyph-name="z" unicode="z" horiz-adv-x="500" 
d="M468 0h-436v47l325 374h-165c-73 0 -92 -45 -96 -148h-47v195h412v-47l-328 -374h170c98 0 112 35 118 164h47v-211z" />
    <glyph glyph-name="braceleft" unicode="{" horiz-adv-x="333" 
d="M318 -172v-20c-112 0 -194 21 -194 145v175c0 67 -21 99 -110 118c89 19 110 52 110 119v174c0 123 82 144 194 144v-20c-92 -18 -120 -57 -120 -128v-155c0 -73 -18 -115 -120 -133v-2c102 -18 120 -58 120 -133v-156c0 -71 28 -112 120 -128z" />
    <glyph glyph-name="bar" unicode="|" horiz-adv-x="222" 
d="M84 750h54v-1000h-54v1000z" />
    <glyph glyph-name="braceright" unicode="}" horiz-adv-x="333" 
d="M135 -44v156c0 75 18 115 120 133v2c-102 18 -120 60 -120 133v155c0 71 -28 110 -120 128v20c112 0 194 -21 194 -144v-174c0 -67 21 -100 110 -119c-89 -19 -110 -51 -110 -118v-175c0 -124 -82 -145 -194 -145v20c92 16 120 57 120 128z" />
    <glyph glyph-name="asciitilde" unicode="~" horiz-adv-x="600" 
d="M495 300l36 -42c-30 -42 -63 -86 -125 -86c-37 0 -69 15 -102 33c-32 18 -69 35 -115 35c-44 0 -68 -37 -84 -72l-36 42c22 42 58 86 125 86c34 0 73 -15 111 -32c37 -16 75 -36 102 -36c40 0 65 37 88 72z" />
    <glyph glyph-name="exclamdown" unicode="&#xa1;" horiz-adv-x="333" 
d="M167 482c33 0 56 -24 56 -56s-23 -56 -56 -56s-56 24 -56 56s23 56 56 56zM148 293h42c1 -16 1 -32 2 -48c8 -127 31 -366 31 -383c0 -35 -13 -74 -54 -74s-54 39 -54 74c0 17 23 256 31 383c1 16 1 32 2 48z" />
    <glyph glyph-name="cent" unicode="&#xa2;" 
d="M470 172h58c-16 -127 -87 -187 -215 -187c-40 0 -75 7 -103 20l-55 -107h-52l66 128c-59 43 -89 117 -89 209c0 146 102 248 248 248c23 0 48 -3 71 -10l49 95h52l-57 -111c50 -23 88 -64 88 -124c0 -41 -24 -69 -63 -69c-25 0 -49 21 -49 47c0 34 17 52 51 57
c-5 22 -23 39 -47 51l-184 -357c21 -19 49 -30 83 -30c89 0 132 55 148 140zM208 101l170 332c-13 2 -24 3 -35 3c-121 0 -168 -92 -168 -203c0 -44 10 -93 33 -132z" />
    <glyph glyph-name="sterling" unicode="&#xa3;" 
d="M72 -11l-28 49c57 45 118 115 118 191c0 15 -1 30 -6 45h-112v50h100c-24 34 -58 81 -58 134c0 113 130 162 224 162c97 0 241 -28 241 -152c0 -38 -29 -63 -66 -63c-35 0 -60 17 -60 56c0 37 20 51 40 51c0 33 -87 58 -126 58c-102 0 -153 -37 -153 -109
c0 -29 17 -49 33 -81c13 -24 18 -42 26 -56h140v-50h-129c0 -88 -38 -130 -89 -174v-2c28 13 56 24 87 24c37 0 69 -15 100 -30c31 -16 60 -31 88 -31c68 0 78 79 78 131h47c0 -92 -20 -207 -138 -207c-36 0 -74 15 -113 31c-39 15 -78 30 -117 30c-50 0 -92 -25 -127 -57z
" />
    <glyph glyph-name="fraction" unicode="&#x2044;" horiz-adv-x="167" 
d="M-167 -15l441 635h60l-441 -635h-60z" />
    <glyph glyph-name="yen" unicode="&#xa5;" 
d="M484 246h-133v-150c0 -31 7 -46 40 -46h79v-50h-329v50h79c33 0 40 15 40 46v150h-135v50h100l-43 69h-102v50h70l-68 101c-16 24 -36 39 -65 39h-24v50h281v-50h-57c-24 0 -35 -3 -35 -16c0 -9 9 -22 19 -39l120 -203l132 210c6 9 11 19 11 27c0 17 -15 21 -56 21h-36
v50h246v-50h-27c-34 0 -57 -25 -74 -52l-56 -88h69v-50h-101l-42 -69h97v-50z" />
    <glyph glyph-name="florin" unicode="&#x192;" 
d="M519 424v-50h-156l-47 -357c-20 -154 -87 -229 -190 -229c-52 0 -113 31 -113 90c0 39 20 59 58 59c30 0 48 -22 48 -51c0 -14 -5 -29 -15 -39c8 -9 26 -9 37 -9c49 0 81 48 88 106l49 430h-136v50h143l7 44c18 110 60 215 189 215c54 0 117 -24 117 -88
c0 -35 -20 -60 -57 -60c-30 0 -51 17 -51 49c0 18 13 37 32 39v2c-14 4 -27 8 -42 8c-70 0 -89 -49 -97 -111l-13 -98h149z" />
    <glyph glyph-name="section" unicode="&#xa7;" 
d="M188 199l119 -44c11 -4 65 -28 74 -28c23 0 98 42 98 97c0 30 -10 51 -41 65l-155 68c-25 11 -43 17 -50 17c-26 0 -101 -43 -101 -107c0 -39 24 -56 56 -68zM162 -12c36 0 64 -30 64 -65c0 -31 -20 -55 -51 -57c24 -20 72 -28 104 -28c74 0 160 23 160 113
c0 164 -374 108 -374 304c0 76 44 120 113 143c-49 25 -71 62 -71 117c0 118 106 168 210 168c76 0 181 -33 181 -125c0 -42 -28 -67 -70 -67c-34 0 -57 21 -57 55c0 32 17 50 48 55c-19 23 -69 32 -98 32c-58 0 -140 -18 -140 -92c0 -158 365 -103 365 -301
c0 -70 -53 -115 -114 -138c52 -29 81 -68 81 -129c0 -140 -120 -185 -239 -185c-75 0 -185 35 -185 126c0 46 27 74 73 74z" />
    <glyph glyph-name="currency" unicode="&#xa4;" 
d="M553 560l-56 -57c41 -43 56 -99 56 -153s-15 -110 -56 -153l56 -57l-38 -38l-56 55c-44 -37 -101 -55 -154 -55s-110 18 -154 55l-56 -55l-38 38l56 57c-41 43 -56 99 -56 153s15 110 56 153l-56 57l38 38l56 -55c44 37 101 55 154 55s110 -18 154 -55l56 55zM305 548
c-106 0 -194 -88 -194 -198s88 -198 194 -198s194 88 194 198s-88 198 -194 198z" />
    <glyph glyph-name="quotesingle" unicode="'" horiz-adv-x="222" 
d="M142 602l-16 -204c0 -8 0 -31 -15 -31s-14 23 -15 31l-16 204c0 8 -1 21 -1 33c0 24 8 48 32 48s32 -24 32 -48c0 -12 0 -25 -1 -33z" />
    <glyph glyph-name="quotedblleft" unicode="&#x201c;" horiz-adv-x="444" 
d="M403 683v-37c-41 -3 -92 -43 -96 -84c-1 -10 -1 -19 0 -29c14 8 24 13 40 13c37 0 53 -21 53 -50c0 -34 -25 -54 -61 -54c-51 0 -76 42 -76 93c0 58 41 132 140 148zM181 683v-37c-41 -3 -92 -43 -96 -84c-1 -10 -1 -19 0 -29c14 8 24 13 40 13c37 0 53 -21 53 -50
c0 -34 -25 -54 -61 -54c-51 0 -76 42 -76 93c0 58 41 132 140 148z" />
    <glyph glyph-name="guillemotleft" unicode="&#xab;" horiz-adv-x="500" 
d="M359 400h55c-8 -19 -78 -158 -78 -166c0 -3 71 -149 78 -165h-55c-13 20 -98 142 -98 164c0 29 82 135 98 167zM184 400h55c-8 -19 -78 -158 -78 -166c0 -3 71 -149 78 -165h-55c-13 20 -98 142 -98 164c0 29 82 135 98 167z" />
    <glyph glyph-name="guilsinglleft" unicode="&#x2039;" horiz-adv-x="333" 
d="M188 400h55c-8 -19 -78 -158 -78 -166c0 -3 71 -149 78 -165h-55c-13 20 -98 142 -98 164c0 29 82 135 98 167z" />
    <glyph glyph-name="guilsinglright" unicode="&#x203a;" horiz-adv-x="333" 
d="M90 400h55c16 -32 98 -138 98 -167c0 -22 -85 -144 -98 -164h-55c7 16 78 162 78 165c0 8 -70 147 -78 166z" />
    <glyph glyph-name="fi" unicode="&#xfb01;" horiz-adv-x="667" 
d="M211 421v-328c0 -31 15 -46 41 -46h63v-47h-296v47h55c34 0 52 15 52 55v319h-107v47h107v49c0 123 117 166 222 166c72 0 180 -23 180 -113c0 -32 -24 -54 -58 -54c-31 0 -54 17 -54 47c0 36 30 40 30 42c0 10 -38 31 -108 31c-86 0 -127 -44 -127 -110v-58h334v-375
c0 -31 13 -46 40 -46h63v-47h-282v47h54c33 0 40 15 40 46v282c0 31 -18 46 -46 46h-203z" />
    <glyph glyph-name="fl" unicode="&#xfb02;" horiz-adv-x="667" 
d="M211 421v-328c0 -31 7 -46 40 -46h64v-47h-296v47h67c33 0 40 15 40 46v328h-107v47h107v37c0 114 96 178 204 178h215v-590c0 -31 7 -46 40 -46h63v-47h-282v47h54c33 0 40 15 40 46v429c-25 2 -41 23 -41 44c0 28 15 42 45 53v2c-23 12 -65 15 -97 15
c-120 0 -156 -31 -156 -144v-24h120v-47h-120z" />
    <glyph glyph-name="endash" unicode="&#x2013;" horiz-adv-x="500" 
d="M500 206h-500v56h500v-56z" />
    <glyph glyph-name="dagger" unicode="&#x2020;" 
d="M325 361v-104c0 -215 25 -291 25 -392c0 -48 -3 -77 -45 -77s-45 29 -45 77c0 101 25 177 25 392v104c-72 0 -118 -21 -175 -21c-28 0 -47 12 -47 39s19 39 47 39c57 0 103 -21 175 -21c0 109 -25 183 -25 226c0 33 10 60 45 60s45 -27 45 -60c0 -43 -25 -117 -25 -226
c72 0 118 21 175 21c28 0 47 -12 47 -39s-19 -39 -47 -39c-57 0 -103 21 -175 21z" />
    <glyph glyph-name="daggerdbl" unicode="&#x2021;" 
d="M63 407c0 27 19 39 47 39c57 0 103 -21 175 -21c-1 33 -9 67 -14 99c-5 33 -11 66 -11 96c0 31 13 63 43 63c35 0 48 -32 47 -63c0 -61 -22 -129 -25 -195c72 0 118 21 175 21c28 0 47 -12 47 -39s-19 -39 -47 -39c-57 0 -103 21 -175 21c-3 -35 9 -120 33 -149
c-27 -42 -36 -112 -33 -158c72 0 118 21 175 21c28 0 47 -12 47 -39s-19 -39 -47 -39c-57 0 -103 21 -175 21c2 -33 8 -66 14 -99s11 -65 11 -96c1 -31 -12 -63 -47 -63c-30 0 -43 32 -43 63c0 61 22 129 25 195c-72 0 -118 -21 -175 -21c-28 0 -47 12 -47 39s19 39 47 39
c57 0 103 -21 175 -21c-1 46 -10 116 -37 158c24 29 36 114 37 149c-72 0 -118 -21 -175 -21c-28 0 -47 12 -47 39z" />
    <glyph glyph-name="periodcentered" unicode="&#xb7;" horiz-adv-x="305" 
d="M152 290c33 0 56 -24 56 -56s-23 -56 -56 -56s-56 24 -56 56s23 56 56 56z" />
    <glyph glyph-name="paragraph" unicode="&#xb6;" horiz-adv-x="600" 
d="M529 663v-22c-25 0 -85 -13 -85 -38v-802h-50v832h-59v-832h-50v451c-144 0 -205 87 -205 205s61 206 205 206h244z" />
    <glyph glyph-name="bullet" unicode="&#x2022;" horiz-adv-x="500" 
d="M416 332c0 -94 -74 -166 -166 -166s-166 72 -166 166c-1 92 74 166 166 166s166 -74 166 -166z" />
    <glyph glyph-name="quotesinglbase" unicode="&#x201a;" horiz-adv-x="222" 
d="M41 -144v37c41 3 92 43 96 84c1 10 1 19 0 29c-14 -8 -24 -13 -40 -13c-37 0 -53 21 -53 50c0 34 25 54 61 54c51 0 76 -42 76 -93c0 -58 -41 -132 -140 -148z" />
    <glyph glyph-name="quotedblbase" unicode="&#x201e;" horiz-adv-x="444" 
d="M263 -144v37c41 3 92 43 96 84c1 10 1 19 0 29c-14 -8 -24 -13 -40 -13c-37 0 -53 21 -53 50c0 34 25 54 61 54c51 0 76 -42 76 -93c0 -58 -41 -132 -140 -148zM41 -144v37c41 3 92 43 96 84c1 10 1 19 0 29c-14 -8 -24 -13 -40 -13c-37 0 -53 21 -53 50
c0 34 25 54 61 54c51 0 76 -42 76 -93c0 -58 -41 -132 -140 -148z" />
    <glyph glyph-name="quotedblright" unicode="&#x201d;" horiz-adv-x="444" 
d="M263 442v37c41 3 92 43 96 84c1 10 1 19 0 29c-14 -8 -24 -13 -40 -13c-37 0 -53 21 -53 50c0 34 25 54 61 54c51 0 76 -42 76 -93c0 -58 -41 -132 -140 -148zM41 442v37c41 3 92 43 96 84c1 10 1 19 0 29c-14 -8 -24 -13 -40 -13c-37 0 -53 21 -53 50c0 34 25 54 61 54
c51 0 76 -42 76 -93c0 -58 -41 -132 -140 -148z" />
    <glyph glyph-name="guillemotright" unicode="&#xbb;" horiz-adv-x="500" 
d="M261 400h55c16 -32 98 -138 98 -167c0 -22 -85 -144 -98 -164h-55c7 16 78 162 78 165c0 8 -70 147 -78 166zM86 400h55c16 -32 98 -138 98 -167c0 -22 -85 -144 -98 -164h-55c7 16 78 162 78 165c0 8 -70 147 -78 166z" />
    <glyph glyph-name="ellipsis" unicode="&#x2026;" horiz-adv-x="1000" 
d="M167 97c33 0 56 -24 56 -56s-23 -56 -56 -56s-56 24 -56 56s23 56 56 56zM500 97c33 0 56 -24 56 -56s-23 -56 -56 -56s-56 24 -56 56s23 56 56 56zM833 97c33 0 56 -24 56 -56s-23 -56 -56 -56s-56 24 -56 56s23 56 56 56z" />
    <glyph glyph-name="perthousand" unicode="&#x2030;" horiz-adv-x="1000" 
d="M772 159c0 -68 13 -142 79 -142s79 74 79 142s-13 142 -79 142s-79 -74 -79 -142zM573 620l-410 -635h-50l411 635h49zM95 446c0 -68 13 -142 79 -142s79 74 79 142s-13 142 -79 142s-79 -74 -79 -142zM706 159c0 95 44 174 145 174s145 -79 145 -174s-44 -174 -145 -174
s-145 79 -145 174zM29 446c0 95 44 174 145 174s145 -79 145 -174s-44 -174 -145 -174s-145 79 -145 174zM369 159c0 95 44 174 145 174s145 -79 145 -174s-44 -174 -145 -174s-145 79 -145 174zM435 159c0 -68 13 -142 79 -142s79 74 79 142s-13 142 -79 142
s-79 -74 -79 -142z" />
    <glyph glyph-name="questiondown" unicode="&#xbf;" horiz-adv-x="500" 
d="M246 294h51v-40c-3 -144 -171 -174 -171 -298c0 -77 65 -114 135 -114c69 0 157 37 157 102c0 8 -1 16 -3 24c-11 -7 -23 -14 -43 -14c-27 0 -48 20 -48 53s19 56 59 56c59 0 84 -51 84 -103c0 -124 -118 -172 -224 -172c-105 0 -210 56 -210 173c0 168 213 170 213 302
v31zM270 482c33 0 56 -24 56 -56s-23 -56 -56 -56s-56 24 -56 56s23 56 56 56z" />
    <glyph glyph-name="grave" unicode="`" horiz-adv-x="333" 
d="M235 536h-46l-139 87c-35 22 -44 30 -44 50c0 18 18 38 37 38c27 0 38 -17 67 -47z" />
    <glyph glyph-name="acute" unicode="&#xb4;" horiz-adv-x="333" 
d="M128 536h-46l125 128c29 30 40 47 67 47c19 0 37 -20 37 -38c0 -20 -9 -28 -44 -50z" />
    <glyph glyph-name="circumflex" unicode="&#x2c6;" horiz-adv-x="333" 
d="M193 704l124 -169h-43l-115 103l-116 -103h-43l124 169h69z" />
    <glyph glyph-name="tilde" unicode="&#x2dc;" horiz-adv-x="333" 
d="M296 672h34c-7 -29 -18 -57 -36 -78s-42 -34 -76 -34c-29 0 -55 12 -79 24c-23 12 -44 24 -64 24c-23 0 -52 -27 -54 -49h-33c11 59 47 110 112 110c25 0 51 -12 76 -24s49 -24 69 -24c28 0 44 28 51 51z" />
    <glyph glyph-name="macron" unicode="&#xaf;" horiz-adv-x="333" 
d="M317 574h-317v59h317v-59z" />
    <glyph glyph-name="breve" unicode="&#x2d8;" horiz-adv-x="333" 
d="M12 692h36c2 -57 46 -93 108 -93s106 36 111 93h36c-8 -93 -48 -157 -146 -157c-97 0 -137 64 -145 157z" />
    <glyph glyph-name="dotaccent" unicode="&#x2d9;" horiz-adv-x="333" 
d="M167 655c30 0 54 -23 54 -53s-24 -53 -54 -53s-54 23 -54 53s24 53 54 53z" />
    <glyph glyph-name="dieresis" unicode="&#xa8;" horiz-adv-x="333" 
d="M65 655c30 0 54 -23 54 -53s-24 -53 -54 -53s-54 23 -54 53s24 53 54 53zM268 655c30 0 54 -23 54 -53s-24 -53 -54 -53s-54 23 -54 53s24 53 54 53z" />
    <glyph glyph-name="ring" unicode="&#x2da;" horiz-adv-x="333" 
d="M167 738c57 0 102 -46 102 -102s-45 -101 -102 -101s-102 45 -102 101s45 102 102 102zM167 698c-35 0 -61 -28 -61 -62s26 -61 61 -61s61 27 61 61s-26 62 -61 62z" />
    <glyph glyph-name="cedilla" unicode="&#xb8;" horiz-adv-x="333" 
d="M135 0h37l-27 -64c10 4 21 5 31 5c42 0 83 -23 83 -65c0 -64 -61 -88 -117 -88c-31 0 -64 5 -93 18l14 32c17 -7 34 -11 53 -11c26 0 66 4 66 39c0 22 -22 36 -46 36c-12 0 -24 -2 -32 -5l-11 6z" />
    <glyph glyph-name="hungarumlaut" unicode="&#x2dd;" horiz-adv-x="333" 
d="M73 536h-46l91 133c16 23 34 54 62 54c27 0 41 -15 41 -34c0 -18 -19 -36 -39 -54zM248 536h-46l91 133c16 23 34 54 62 54c27 0 41 -15 41 -34c0 -18 -19 -36 -39 -54z" />
    <glyph glyph-name="ogonek" unicode="&#x2db;" horiz-adv-x="333" 
d="M240 18h57c-35 -18 -178 -84 -178 -138c0 -47 46 -53 72 -53c19 0 36 4 53 11l14 -32c-29 -13 -62 -18 -93 -18c-56 0 -117 16 -117 82c0 85 122 130 192 148z" />
    <glyph glyph-name="caron" unicode="&#x2c7;" horiz-adv-x="333" 
d="M124 535l-124 169h43l116 -103l115 103h43l-124 -169h-69z" />
    <glyph glyph-name="emdash" unicode="&#x2014;" horiz-adv-x="1000" 
d="M0 262h1000v-56h-1000v56z" />
    <glyph glyph-name="AE" unicode="&#xc6;" horiz-adv-x="944" 
d="M264 322h160v294h-2zM889 0h-560v52h50c31 0 45 19 45 51v167h-186l-83 -164c-5 -10 -12 -20 -12 -32s15 -22 39 -22h43v-52h-218v52c31 0 62 29 80 62l244 452c3 6 8 17 8 24c0 17 -12 21 -28 21h-77v52h655v-251h-52c-5 125 -15 199 -162 199h-154v-240h49
c79 0 89 23 93 131h52v-326h-52c-4 120 -14 143 -93 143h-49v-267h154c147 0 157 74 162 212h52v-264z" />
    <glyph glyph-name="ordfeminine" unicode="&#xaa;" horiz-adv-x="334" 
d="M201 428v55c-24 -15 -54 -21 -93 -36c-35 -14 -45 -27 -45 -48c0 -31 14 -46 47 -46c43 0 91 33 91 75zM260 521v-140c0 -18 5 -28 17 -28c28 0 29 30 29 47v25h32v-17c0 -64 -23 -87 -73 -87c-32 0 -52 18 -61 47c-28 -33 -64 -47 -111 -47c-53 0 -96 22 -96 75
c0 78 117 77 183 106c16 9 21 20 21 38c0 34 -13 48 -69 48c-25 0 -57 0 -76 -20c19 -3 32 -12 32 -30c0 -24 -23 -32 -41 -32c-23 0 -34 18 -34 42c0 51 74 72 123 72c75 0 124 -21 124 -99z" />
    <glyph glyph-name="Lslash" unicode="&#x141;" horiz-adv-x="667" 
d="M364 436v-58l-128 -48v-278h189c118 0 160 40 160 221h52v-273h-621v52h78c31 0 45 19 45 51v190l-103 -39v58l103 39v208c0 33 -13 52 -46 52h-75v52h340v-52h-76c-33 0 -46 -19 -46 -52v-171z" />
    <glyph glyph-name="Oslash" unicode="&#xd8;" horiz-adv-x="778" 
d="M179 149l383 413c-40 41 -97 67 -173 67c-181 0 -254 -146 -254 -298c0 -66 14 -130 44 -182zM592 524l-384 -415c41 -46 100 -75 181 -75c181 0 254 145 254 297c0 70 -15 139 -51 193zM46 5l75 81c-63 66 -93 155 -93 245c0 176 117 352 361 352c93 0 168 -26 223 -67
l74 81l35 -34l-72 -78c68 -67 101 -160 101 -254c0 -176 -117 -351 -361 -351c-97 0 -174 28 -232 74l-76 -82z" />
    <glyph glyph-name="OE" unicode="&#x152;" horiz-adv-x="944" 
d="M889 264v-264h-226c-76 0 -151 -1 -227 -4c-44 -2 -104 -6 -145 -6c-167 0 -272 137 -272 341c0 253 181 342 283 342c46 0 90 -4 134 -6c76 -3 151 -4 227 -4h226v-251h-52c-5 125 -15 199 -162 199h-148v-240h43c79 0 89 23 93 131h52v-326h-52c-4 120 -14 143 -93 143
h-43v-267h148c147 0 157 74 162 212h52zM430 110v443c0 55 -43 66 -106 66c-153 0 -208 -128 -208 -288s55 -287 208 -287c63 0 106 11 106 66z" />
    <glyph glyph-name="ordmasculine" unicode="&#xba;" horiz-adv-x="334" 
d="M168 620c104 0 167 -63 167 -150c0 -86 -63 -149 -167 -149c-105 0 -168 63 -168 149c0 87 63 150 168 150zM168 353c78 0 103 53 101 117c0 65 -23 118 -101 118c-79 0 -102 -53 -102 -118c0 -64 23 -117 102 -117z" />
    <glyph glyph-name="ae" unicode="&#xe6;" horiz-adv-x="778" 
d="M755 228h-349c0 -120 35 -196 125 -196c83 0 132 42 153 120h58c-22 -108 -91 -167 -202 -167c-90 -1 -144 33 -189 106c-41 -73 -104 -106 -182 -106c-81 0 -147 36 -147 125c0 143 199 126 286 183c10 7 19 32 19 53c0 59 -38 90 -94 90c-43 0 -92 -6 -121 -39
c30 -5 46 -21 46 -51c0 -39 -32 -53 -60 -53c-35 0 -52 33 -52 60c0 91 94 130 184 130c60 0 116 -21 154 -62c48 48 94 62 149 62c161 0 213 -113 222 -255zM196 32c66 0 131 56 131 180v39c-29 -21 -74 -33 -120 -50c-33 -14 -90 -24 -90 -86c0 -52 28 -83 79 -83z
M406 275h254c0 87 -39 161 -130 161c-81 0 -124 -74 -124 -161z" />
    <glyph glyph-name="dotlessi" unicode="&#x131;" horiz-adv-x="333" 
d="M209 468v-375c0 -31 7 -46 40 -46h64v-47h-294v47h65c33 0 40 15 40 46v282c0 31 -7 46 -40 46h-65v47h190z" />
    <glyph glyph-name="lslash" unicode="&#x142;" horiz-adv-x="333" 
d="M209 342v-249c0 -31 7 -46 40 -46h64v-47h-294v47h65c33 0 40 15 40 46v185l-89 -67v60l89 67v232c0 34 -22 46 -40 46h-65v47h190v-261l98 74v-60z" />
    <glyph glyph-name="oslash" unicode="&#xf8;" horiz-adv-x="556" 
d="M131 132l265 256c-25 30 -64 48 -118 48c-124 0 -163 -94 -163 -202c0 -37 4 -71 16 -102zM421 348l-267 -260c25 -35 65 -56 124 -56c124 0 163 94 163 202c0 41 -6 81 -20 114zM2 7l70 68c-34 42 -52 97 -52 159c0 144 97 249 258 249c67 0 123 -19 165 -50l72 70
l34 -32l-72 -69c38 -44 59 -102 59 -168c0 -144 -97 -249 -258 -249c-72 0 -130 21 -173 56l-69 -67z" />
    <glyph glyph-name="oe" unicode="&#x153;" horiz-adv-x="889" 
d="M115 234c0 -108 39 -202 163 -202c112 0 154 94 154 202s-42 202 -154 202c-124 0 -163 -94 -163 -202zM511 275h262c0 87 -39 161 -130 161c-89 0 -132 -74 -132 -161zM797 152h58c-22 -108 -91 -167 -202 -167c-84 0 -143 34 -183 89c-52 -71 -129 -89 -192 -89
c-161 0 -258 105 -258 249s97 249 258 249c74 0 147 -24 194 -87c46 59 98 87 174 87c154 0 213 -113 222 -255h-357c0 -102 22 -196 136 -196c80 0 129 42 150 120z" />
    <glyph glyph-name="germandbls" unicode="&#xdf;" 
d="M208 0h-185v47h60c33 0 40 15 40 46v358c0 144 61 232 224 232c92 0 191 -43 191 -147c0 -78 -54 -116 -127 -126v-2c107 -17 176 -84 176 -197s-55 -226 -182 -226c-105 0 -130 83 -130 154v29h56v-25c0 -56 14 -111 78 -111c83 0 83 120 83 172c0 100 -45 174 -175 174
h-35v47h38c56 0 123 27 123 107c0 41 -19 104 -106 104c-73 0 -129 -40 -129 -148v-488z" />
    <glyph glyph-name="onesuperior" unicode="&#xb9;" horiz-adv-x="366" 
d="M305 248h-244v36h41c35 0 49 4 49 28v210h-90v36c50 0 103 12 120 62h38v-302c0 -31 14 -34 41 -34h45v-36z" />
    <glyph glyph-name="logicalnot" unicode="&#xac;" horiz-adv-x="600" 
d="M480 106v192h-414v54h468v-246h-54z" />
    <glyph glyph-name="mu" unicode="&#xb5;" horiz-adv-x="667" 
d="M648 47v-47h-189v85h-2c-40 -63 -100 -100 -177 -100c-29 0 -54 5 -76 16v-213h-185v47h60c33 0 40 15 40 46v494c0 31 -7 46 -40 46h-60v47h185v-317c0 -69 26 -110 103 -110c95 0 151 76 151 156v178c0 31 -7 46 -40 46h-61v47h186v-375c0 -31 7 -46 40 -46h65z" />
    <glyph glyph-name="trademark" unicode="&#x2122;" horiz-adv-x="990" 
d="M237 644v-310c0 -25 0 -38 6 -45s18 -8 44 -11v-19h-163v19c26 3 38 4 44 11s6 20 6 45v310h-51c-42 0 -59 -32 -68 -69h-19v88h339v-88h-19c-9 37 -27 69 -68 69h-51zM668 256l-152 311h-2v-225c0 -43 9 -59 52 -64v-19h-130v19c44 5 53 21 53 64v252
c-12 30 -41 50 -69 50v19h115l157 -315l164 315h98v-19c-43 -2 -57 -22 -57 -57v-253c0 -25 0 -38 6 -45s18 -8 44 -11v-19h-163v19c26 3 39 4 45 11s5 20 5 45v236h-2l-155 -314h-9z" />
    <glyph glyph-name="Eth" unicode="&#xd0;" horiz-adv-x="778" 
d="M16 310v52h117v197c0 33 -13 52 -46 52h-71v52h370c206 0 361 -87 361 -332c0 -235 -159 -331 -343 -331h-390v52h74c31 0 45 19 45 51v207h-117zM394 362v-52h-164v-258h146c178 0 264 85 264 279s-86 280 -280 280h-130v-249h164z" />
    <glyph glyph-name="onehalf" unicode="&#xbd;" horiz-adv-x="916" 
d="M214 -15l439 635h60l-439 -635h-60zM341 248h-244v36h41c35 0 49 4 49 28v210h-90v36c50 0 103 12 120 62h38v-302c0 -31 14 -34 41 -34h45v-36zM834 112h36c0 -75 -17 -136 -103 -136c-35 0 -62 22 -87 34s-49 24 -75 24c-24 0 -35 -23 -35 -43h-36
c0 218 249 136 249 261c0 50 -47 78 -97 78c-36 0 -85 -11 -97 -54c29 0 45 -10 45 -36c0 -21 -18 -34 -40 -34c-32 0 -45 23 -45 50c0 85 90 110 163 110c76 0 145 -39 145 -113c0 -147 -233 -91 -270 -195c12 7 24 12 37 12c14 0 42 -10 72 -18s63 -16 84 -16
c46 0 54 42 54 76z" />
    <glyph glyph-name="plusminus" unicode="&#xb1;" horiz-adv-x="600" 
d="M273 306v162h54v-162h207v-54h-207v-162h-54v162h-207v54h207zM66 0v54h468v-54h-468z" />
    <glyph glyph-name="Thorn" unicode="&#xde;" horiz-adv-x="667" 
d="M18 663h343v-52h-77c-33 0 -46 -19 -46 -52v-45h172c127 0 238 -39 238 -182s-111 -182 -238 -182h-172v-47c0 -32 14 -51 45 -51h78v-52h-343v52h78c31 0 45 19 45 51v456c0 33 -13 52 -46 52h-77v52zM238 462v-260h145c90 0 158 30 158 130s-68 130 -158 130h-145z" />
    <glyph glyph-name="onequarter" unicode="&#xbc;" horiz-adv-x="916" 
d="M239 -15l439 635h60l-439 -635h-60zM341 248h-244v36h41c35 0 49 4 49 28v210h-90v36c50 0 103 12 120 62h38v-302c0 -31 14 -34 41 -34h45v-36zM717 104h-208v32l228 236h48v-232h77v-36h-77v-43c0 -18 13 -25 46 -25h31v-36h-226v36h31c40 0 50 9 50 23v45zM717 303
l-158 -163h158v163z" />
    <glyph glyph-name="divide" unicode="&#xf7;" horiz-adv-x="600" 
d="M534 207h-468v54h468v-54zM244 425c0 31 26 56 55 56c30 0 56 -26 56 -56c0 -27 -26 -55 -55 -55c-30 0 -56 26 -56 55zM244 43c0 30 26 55 55 55c30 0 56 -26 56 -55c0 -28 -26 -56 -55 -56c-30 0 -56 26 -56 56z" />
    <glyph glyph-name="brokenbar" unicode="&#xa6;" horiz-adv-x="222" 
d="M84 675h54v-350h-54v350zM84 175h54v-350h-54v350z" />
    <glyph glyph-name="degree" unicode="&#xb0;" horiz-adv-x="400" 
d="M200 369c60 0 103 48 103 108s-43 108 -103 108s-103 -48 -103 -108s43 -108 103 -108zM200 334c-80 0 -143 63 -143 143s63 143 143 143s143 -63 143 -143s-63 -143 -143 -143z" />
    <glyph glyph-name="thorn" unicode="&#xfe;" 
d="M319 427c-102 0 -143 -93 -143 -193s41 -193 143 -193s143 93 143 193s-41 193 -143 193zM176 663v-283h2c35 66 87 103 166 103c147 0 213 -119 213 -247c0 -132 -66 -251 -213 -251c-85 0 -133 37 -166 94h-2v-193c0 -32 14 -51 45 -51h55v-47h-280v47h50
c31 0 45 19 45 51v678c0 33 -13 52 -46 52h-49v47h180z" />
    <glyph glyph-name="threequarters" unicode="&#xbe;" horiz-adv-x="916" 
d="M249 -15l439 635h60l-439 -635h-60zM179 423v36h20c47 0 107 7 107 57c0 46 -37 68 -86 68c-36 0 -67 -6 -100 -29c22 -3 33 -15 33 -35c0 -19 -16 -35 -38 -35c-29 0 -40 20 -40 44c0 69 101 91 158 91c67 0 147 -25 147 -98c0 -51 -42 -72 -92 -79v-1
c50 0 103 -40 103 -96c0 -91 -104 -107 -183 -107c-66 0 -150 26 -150 99c0 26 18 44 46 44c24 0 39 -13 39 -35c0 -21 -22 -31 -43 -31c10 -30 67 -41 92 -41c62 0 125 10 125 77c0 57 -54 71 -114 71h-24zM717 104h-208v32l228 236h48v-232h77v-36h-77v-43
c0 -18 13 -25 46 -25h31v-36h-226v36h31c40 0 50 9 50 23v45zM717 303l-158 -163h158v163z" />
    <glyph glyph-name="twosuperior" unicode="&#xb2;" horiz-adv-x="366" 
d="M315 366h36c0 -75 -17 -136 -103 -136c-35 0 -62 22 -87 34s-49 24 -75 24c-24 0 -35 -23 -35 -43h-36c0 218 249 136 249 261c0 50 -47 78 -97 78c-36 0 -85 -11 -97 -54c29 0 45 -10 45 -36c0 -21 -18 -34 -40 -34c-32 0 -45 23 -45 50c0 85 90 110 163 110
c76 0 145 -39 145 -113c0 -147 -233 -91 -270 -195c12 7 24 12 37 12c14 0 42 -10 72 -18s63 -16 84 -16c46 0 54 42 54 76z" />
    <glyph glyph-name="registered" unicode="&#xae;" horiz-adv-x="800" 
d="M236 511v13h176c61 0 119 -28 119 -92c0 -54 -35 -91 -82 -107l59 -82c27 -36 60 -73 81 -86v-9h-60c-35 0 -59 65 -129 167h-53v-101c0 -23 0 -34 6 -40s18 -7 44 -10v-16h-161v16c26 3 39 4 45 10s5 17 5 40v245c0 24 1 36 -5 42s-19 7 -45 10zM347 506v-173h48
c50 0 75 37 75 95s-37 78 -78 78h-45zM400 -20c-190 0 -344 157 -344 351s154 352 344 352c191 0 344 -157 344 -352c0 -194 -153 -351 -344 -351zM400 20c160 0 292 146 292 311s-131 312 -292 312c-160 0 -292 -147 -292 -312s133 -311 292 -311z" />
    <glyph glyph-name="minus" unicode="&#x2212;" horiz-adv-x="600" 
d="M534 207h-468v54h468v-54z" />
    <glyph glyph-name="eth" unicode="&#xf0;" horiz-adv-x="556" 
d="M278 436c-124 0 -163 -94 -163 -202s39 -202 163 -202s163 94 163 202s-39 202 -163 202zM125 540l107 48c-34 24 -70 44 -104 60l46 15c33 -10 69 -27 107 -53l116 53l31 -31l-108 -49c112 -85 216 -219 216 -349c0 -144 -97 -249 -258 -249s-258 105 -258 249
s97 249 258 249c25 0 48 -3 71 -8c-21 31 -48 60 -80 85l-107 -48z" />
    <glyph glyph-name="multiply" unicode="&#xd7;" horiz-adv-x="600" 
d="M262 234l-196 196l40 38l194 -195l194 195l40 -38l-196 -196l196 -196l-38 -38l-196 195l-196 -195l-38 38z" />
    <glyph glyph-name="threesuperior" unicode="&#xb3;" horiz-adv-x="366" 
d="M140 423v36h20c47 0 107 7 107 57c0 46 -37 68 -86 68c-36 0 -67 -6 -100 -29c22 -3 33 -15 33 -35c0 -19 -16 -35 -38 -35c-29 0 -40 20 -40 44c0 69 101 91 158 91c67 0 147 -25 147 -98c0 -51 -42 -72 -92 -79v-1c50 0 103 -40 103 -96c0 -91 -104 -107 -183 -107
c-66 0 -150 26 -150 99c0 26 18 44 46 44c24 0 39 -13 39 -35c0 -21 -22 -31 -43 -31c10 -30 67 -41 92 -41c62 0 125 10 125 77c0 57 -54 71 -114 71h-24z" />
    <glyph glyph-name="copyright" unicode="&#xa9;" horiz-adv-x="800" 
d="M400 -20c-190 0 -344 157 -344 351s154 352 344 352c191 0 344 -157 344 -352c0 -194 -153 -351 -344 -351zM400 20c160 0 292 146 292 311s-131 312 -292 312c-160 0 -292 -147 -292 -312s133 -311 292 -311zM555 244h16l-17 -70c0 -11 -10 -14 -26 -19
c-20 -7 -59 -18 -107 -18c-115 0 -214 58 -214 202c0 85 69 196 220 196c54 0 79 -9 105 -18c16 -5 22 -13 22 -21v-71h-15c-4 43 -32 92 -116 92c-99 0 -145 -74 -146 -173c-1 -108 46 -186 154 -186c71 0 106 41 124 86z" />
    <glyph glyph-name="Aacute" unicode="&#xc1;" horiz-adv-x="778" 
d="M309 0h-290v52h41c45 0 59 22 74 60l214 556h82l219 -566c13 -34 36 -50 71 -50h38v-52h-317v52h61c40 0 52 7 52 23s-16 51 -22 66l-30 81h-258l-31 -91c-9 -27 -17 -43 -17 -56c0 -19 10 -23 58 -23h55v-52zM481 274l-110 285l-108 -285h218zM351 709h-46l125 128
c29 30 40 47 67 47c19 0 37 -20 37 -38c0 -20 -9 -28 -44 -50z" />
    <glyph glyph-name="Acircumflex" unicode="&#xc2;" horiz-adv-x="778" 
d="M309 0h-290v52h41c45 0 59 22 74 60l214 556h82l219 -566c13 -34 36 -50 71 -50h38v-52h-317v52h61c40 0 52 7 52 23s-16 51 -22 66l-30 81h-258l-31 -91c-9 -27 -17 -43 -17 -56c0 -19 10 -23 58 -23h55v-52zM481 274l-110 285l-108 -285h218zM416 877l124 -169h-43
l-115 103l-116 -103h-43l124 169h69z" />
    <glyph glyph-name="Adieresis" unicode="&#xc4;" horiz-adv-x="778" 
d="M309 0h-290v52h41c45 0 59 22 74 60l214 556h82l219 -566c13 -34 36 -50 71 -50h38v-52h-317v52h61c40 0 52 7 52 23s-16 51 -22 66l-30 81h-258l-31 -91c-9 -27 -17 -43 -17 -56c0 -19 10 -23 58 -23h55v-52zM481 274l-110 285l-108 -285h218zM288 828
c30 0 54 -23 54 -53s-24 -53 -54 -53s-54 23 -54 53s24 53 54 53zM491 828c30 0 54 -23 54 -53s-24 -53 -54 -53s-54 23 -54 53s24 53 54 53z" />
    <glyph glyph-name="Agrave" unicode="&#xc0;" horiz-adv-x="778" 
d="M309 0h-290v52h41c45 0 59 22 74 60l214 556h82l219 -566c13 -34 36 -50 71 -50h38v-52h-317v52h61c40 0 52 7 52 23s-16 51 -22 66l-30 81h-258l-31 -91c-9 -27 -17 -43 -17 -56c0 -19 10 -23 58 -23h55v-52zM481 274l-110 285l-108 -285h218zM458 709h-46l-139 87
c-35 22 -44 30 -44 50c0 18 18 38 37 38c27 0 38 -17 67 -47z" />
    <glyph glyph-name="Aring" unicode="&#xc5;" horiz-adv-x="778" 
d="M309 0h-290v52h41c45 0 59 22 74 60l214 556h82l219 -566c13 -34 36 -50 71 -50h38v-52h-317v52h61c40 0 52 7 52 23s-16 51 -22 66l-30 81h-258l-31 -91c-9 -27 -17 -43 -17 -56c0 -19 10 -23 58 -23h55v-52zM481 274l-110 285l-108 -285h218zM390 911
c57 0 102 -46 102 -102s-45 -101 -102 -101s-102 45 -102 101s45 102 102 102zM390 871c-35 0 -61 -28 -61 -62s26 -61 61 -61s61 27 61 61s-26 62 -61 62z" />
    <glyph glyph-name="Atilde" unicode="&#xc3;" horiz-adv-x="778" 
d="M309 0h-290v52h41c45 0 59 22 74 60l214 556h82l219 -566c13 -34 36 -50 71 -50h38v-52h-317v52h61c40 0 52 7 52 23s-16 51 -22 66l-30 81h-258l-31 -91c-9 -27 -17 -43 -17 -56c0 -19 10 -23 58 -23h55v-52zM481 274l-110 285l-108 -285h218zM519 845h34
c-7 -29 -18 -57 -36 -78s-42 -34 -76 -34c-29 0 -55 12 -79 24c-23 12 -44 24 -64 24c-23 0 -52 -27 -54 -49h-33c11 59 47 110 112 110c25 0 51 -12 76 -24s49 -24 69 -24c28 0 44 28 51 51z" />
    <glyph glyph-name="Ccedilla" unicode="&#xc7;" horiz-adv-x="667" 
d="M629 668v-263h-52c-15 141 -101 224 -211 224c-168 0 -229 -127 -229 -298c0 -153 61 -297 229 -297c129 0 196 86 207 206h64c-11 -176 -118 -255 -274 -259l-19 -45c10 4 21 5 31 5c42 0 83 -23 83 -65c0 -64 -61 -88 -117 -88c-31 0 -64 5 -93 18l14 32
c17 -7 34 -11 53 -11c26 0 66 4 66 39c0 22 -22 36 -46 36c-12 0 -24 -2 -32 -5l-11 6l34 78c-208 9 -296 167 -296 350c0 201 106 352 326 352c74 0 145 -31 200 -79l26 64h47z" />
    <glyph glyph-name="Eacute" unicode="&#xc9;" horiz-adv-x="722" 
d="M657 0h-641v52h74c31 0 45 19 45 51v456c0 33 -13 52 -46 52h-70v52h638v-250h-52c-5 124 -15 198 -162 198h-211v-240h83c79 0 89 23 93 131h52v-326h-52c-4 120 -14 143 -93 143h-83v-267h211c147 0 157 74 162 217h52v-269zM346 709h-46l125 128c29 30 40 47 67 47
c19 0 37 -20 37 -38c0 -20 -9 -28 -44 -50z" />
    <glyph glyph-name="Ecircumflex" unicode="&#xca;" horiz-adv-x="722" 
d="M657 0h-641v52h74c31 0 45 19 45 51v456c0 33 -13 52 -46 52h-70v52h638v-250h-52c-5 124 -15 198 -162 198h-211v-240h83c79 0 89 23 93 131h52v-326h-52c-4 120 -14 143 -93 143h-83v-267h211c147 0 157 74 162 217h52v-269zM411 877l124 -169h-43l-115 103l-116 -103
h-43l124 169h69z" />
    <glyph glyph-name="Edieresis" unicode="&#xcb;" horiz-adv-x="722" 
d="M657 0h-641v52h74c31 0 45 19 45 51v456c0 33 -13 52 -46 52h-70v52h638v-250h-52c-5 124 -15 198 -162 198h-211v-240h83c79 0 89 23 93 131h52v-326h-52c-4 120 -14 143 -93 143h-83v-267h211c147 0 157 74 162 217h52v-269zM283 828c30 0 54 -23 54 -53
s-24 -53 -54 -53s-54 23 -54 53s24 53 54 53zM486 828c30 0 54 -23 54 -53s-24 -53 -54 -53s-54 23 -54 53s24 53 54 53z" />
    <glyph glyph-name="Egrave" unicode="&#xc8;" horiz-adv-x="722" 
d="M657 0h-641v52h74c31 0 45 19 45 51v456c0 33 -13 52 -46 52h-70v52h638v-250h-52c-5 124 -15 198 -162 198h-211v-240h83c79 0 89 23 93 131h52v-326h-52c-4 120 -14 143 -93 143h-83v-267h211c147 0 157 74 162 217h52v-269zM453 709h-46l-139 87c-35 22 -44 30 -44 50
c0 18 18 38 37 38c27 0 38 -17 67 -47z" />
    <glyph glyph-name="Iacute" unicode="&#xcd;" horiz-adv-x="389" 
d="M365 0h-340v52h76c31 0 45 19 45 51v456c0 33 -13 52 -46 52h-75v52h340v-52h-76c-33 0 -46 -19 -46 -52v-456c0 -32 14 -51 45 -51h77v-52zM156 709h-46l125 128c29 30 40 47 67 47c19 0 37 -20 37 -38c0 -20 -9 -28 -44 -50z" />
    <glyph glyph-name="Icircumflex" unicode="&#xce;" horiz-adv-x="389" 
d="M365 0h-340v52h76c31 0 45 19 45 51v456c0 33 -13 52 -46 52h-75v52h340v-52h-76c-33 0 -46 -19 -46 -52v-456c0 -32 14 -51 45 -51h77v-52zM221 877l124 -169h-43l-115 103l-116 -103h-43l124 169h69z" />
    <glyph glyph-name="Idieresis" unicode="&#xcf;" horiz-adv-x="389" 
d="M365 0h-340v52h76c31 0 45 19 45 51v456c0 33 -13 52 -46 52h-75v52h340v-52h-76c-33 0 -46 -19 -46 -52v-456c0 -32 14 -51 45 -51h77v-52zM93 828c30 0 54 -23 54 -53s-24 -53 -54 -53s-54 23 -54 53s24 53 54 53zM296 828c30 0 54 -23 54 -53s-24 -53 -54 -53
s-54 23 -54 53s24 53 54 53z" />
    <glyph glyph-name="Igrave" unicode="&#xcc;" horiz-adv-x="389" 
d="M365 0h-340v52h76c31 0 45 19 45 51v456c0 33 -13 52 -46 52h-75v52h340v-52h-76c-33 0 -46 -19 -46 -52v-456c0 -32 14 -51 45 -51h77v-52zM263 709h-46l-139 87c-35 22 -44 30 -44 50c0 18 18 38 37 38c27 0 38 -17 67 -47z" />
    <glyph glyph-name="Ntilde" unicode="&#xd1;" horiz-adv-x="833" 
d="M616 -5l-411 584h-2v-476c0 -32 14 -51 45 -51h79v-52h-310v52h77c31 0 45 19 45 51v456c0 33 -13 52 -46 52h-76v52h242l373 -535h2v431c0 33 -13 52 -46 52h-78v52h306v-52h-72c-33 0 -46 -19 -46 -52v-564h-82zM555 845h34c-7 -29 -18 -57 -36 -78s-42 -34 -76 -34
c-29 0 -55 12 -79 24c-23 12 -44 24 -64 24c-23 0 -52 -27 -54 -49h-33c11 59 47 110 112 110c25 0 51 -12 76 -24s49 -24 69 -24c28 0 44 28 51 51z" />
    <glyph glyph-name="Oacute" unicode="&#xd3;" horiz-adv-x="778" 
d="M389 683c244 0 361 -176 361 -352s-117 -351 -361 -351s-361 175 -361 351s117 352 361 352zM389 629c-181 0 -254 -146 -254 -298s73 -297 254 -297s254 145 254 297s-73 298 -254 298zM351 709h-46l125 128c29 30 40 47 67 47c19 0 37 -20 37 -38c0 -20 -9 -28 -44 -50
z" />
    <glyph glyph-name="Ocircumflex" unicode="&#xd4;" horiz-adv-x="778" 
d="M389 683c244 0 361 -176 361 -352s-117 -351 -361 -351s-361 175 -361 351s117 352 361 352zM389 629c-181 0 -254 -146 -254 -298s73 -297 254 -297s254 145 254 297s-73 298 -254 298zM416 877l124 -169h-43l-115 103l-116 -103h-43l124 169h69z" />
    <glyph glyph-name="Odieresis" unicode="&#xd6;" horiz-adv-x="778" 
d="M389 683c244 0 361 -176 361 -352s-117 -351 -361 -351s-361 175 -361 351s117 352 361 352zM389 629c-181 0 -254 -146 -254 -298s73 -297 254 -297s254 145 254 297s-73 298 -254 298zM288 828c30 0 54 -23 54 -53s-24 -53 -54 -53s-54 23 -54 53s24 53 54 53zM491 828
c30 0 54 -23 54 -53s-24 -53 -54 -53s-54 23 -54 53s24 53 54 53z" />
    <glyph glyph-name="Ograve" unicode="&#xd2;" horiz-adv-x="778" 
d="M389 683c244 0 361 -176 361 -352s-117 -351 -361 -351s-361 175 -361 351s117 352 361 352zM389 629c-181 0 -254 -146 -254 -298s73 -297 254 -297s254 145 254 297s-73 298 -254 298zM458 709h-46l-139 87c-35 22 -44 30 -44 50c0 18 18 38 37 38c27 0 38 -17 67 -47z
" />
    <glyph glyph-name="Otilde" unicode="&#xd5;" horiz-adv-x="778" 
d="M389 683c244 0 361 -176 361 -352s-117 -351 -361 -351s-361 175 -361 351s117 352 361 352zM389 629c-181 0 -254 -146 -254 -298s73 -297 254 -297s254 145 254 297s-73 298 -254 298zM519 845h34c-7 -29 -18 -57 -36 -78s-42 -34 -76 -34c-29 0 -55 12 -79 24
c-23 12 -44 24 -64 24c-23 0 -52 -27 -54 -49h-33c11 59 47 110 112 110c25 0 51 -12 76 -24s49 -24 69 -24c28 0 44 28 51 51z" />
    <glyph glyph-name="Scaron" unicode="&#x160;" 
d="M551 668v-254h-52c-13 144 -119 215 -225 215c-118 0 -155 -57 -155 -122c0 -190 467 -44 467 -325c0 -140 -116 -202 -264 -202c-83 0 -152 30 -209 88l-29 -73h-52v275h52c13 -126 109 -236 242 -236c81 0 173 30 173 126c0 208 -467 49 -467 336c0 88 64 187 234 187
c96 0 159 -27 210 -75l29 60h46zM279 708l-124 169h43l116 -103l115 103h43l-124 -169h-69z" />
    <glyph glyph-name="Uacute" unicode="&#xda;" horiz-adv-x="778" 
d="M456 611v52h303v-52h-72c-33 0 -46 -19 -46 -52v-304c0 -199 -71 -275 -270 -275c-139 0 -236 69 -236 214v365c0 33 -13 52 -46 52h-71v52h334v-52h-74c-33 0 -46 -19 -46 -52v-343c0 -117 50 -176 168 -176c141 0 177 75 177 205v314c0 33 -13 52 -46 52h-75zM370 709
h-46l125 128c29 30 40 47 67 47c19 0 37 -20 37 -38c0 -20 -9 -28 -44 -50z" />
    <glyph glyph-name="Ucircumflex" unicode="&#xdb;" horiz-adv-x="778" 
d="M456 611v52h303v-52h-72c-33 0 -46 -19 -46 -52v-304c0 -199 -71 -275 -270 -275c-139 0 -236 69 -236 214v365c0 33 -13 52 -46 52h-71v52h334v-52h-74c-33 0 -46 -19 -46 -52v-343c0 -117 50 -176 168 -176c141 0 177 75 177 205v314c0 33 -13 52 -46 52h-75zM435 877
l124 -169h-43l-115 103l-116 -103h-43l124 169h69z" />
    <glyph glyph-name="Udieresis" unicode="&#xdc;" horiz-adv-x="778" 
d="M456 611v52h303v-52h-72c-33 0 -46 -19 -46 -52v-304c0 -199 -71 -275 -270 -275c-139 0 -236 69 -236 214v365c0 33 -13 52 -46 52h-71v52h334v-52h-74c-33 0 -46 -19 -46 -52v-343c0 -117 50 -176 168 -176c141 0 177 75 177 205v314c0 33 -13 52 -46 52h-75zM307 828
c30 0 54 -23 54 -53s-24 -53 -54 -53s-54 23 -54 53s24 53 54 53zM510 828c30 0 54 -23 54 -53s-24 -53 -54 -53s-54 23 -54 53s24 53 54 53z" />
    <glyph glyph-name="Ugrave" unicode="&#xd9;" horiz-adv-x="778" 
d="M456 611v52h303v-52h-72c-33 0 -46 -19 -46 -52v-304c0 -199 -71 -275 -270 -275c-139 0 -236 69 -236 214v365c0 33 -13 52 -46 52h-71v52h334v-52h-74c-33 0 -46 -19 -46 -52v-343c0 -117 50 -176 168 -176c141 0 177 75 177 205v314c0 33 -13 52 -46 52h-75zM477 709
h-46l-139 87c-35 22 -44 30 -44 50c0 18 18 38 37 38c27 0 38 -17 67 -47z" />
    <glyph glyph-name="Yacute" unicode="&#xdd;" horiz-adv-x="722" 
d="M16 611v52h308v-52h-42c-40 0 -60 -6 -60 -22c0 -12 13 -26 21 -40l132 -224l138 220c9 14 19 31 19 42c0 19 -20 24 -45 24h-56v52h270v-52h-25c-32 0 -68 -26 -89 -60l-180 -292v-145c0 -50 29 -62 76 -62h56v-52h-361v52h56c47 0 76 12 76 62v145l-194 311
c-17 27 -42 41 -74 41h-26zM339 709h-46l125 128c29 30 40 47 67 47c19 0 37 -20 37 -38c0 -20 -9 -28 -44 -50z" />
    <glyph glyph-name="Ydieresis" unicode="&#x178;" horiz-adv-x="722" 
d="M16 611v52h308v-52h-42c-40 0 -60 -6 -60 -22c0 -12 13 -26 21 -40l132 -224l138 220c9 14 19 31 19 42c0 19 -20 24 -45 24h-56v52h270v-52h-25c-32 0 -68 -26 -89 -60l-180 -292v-145c0 -50 29 -62 76 -62h56v-52h-361v52h56c47 0 76 12 76 62v145l-194 311
c-17 27 -42 41 -74 41h-26zM276 828c30 0 54 -23 54 -53s-24 -53 -54 -53s-54 23 -54 53s24 53 54 53zM479 828c30 0 54 -23 54 -53s-24 -53 -54 -53s-54 23 -54 53s24 53 54 53z" />
    <glyph glyph-name="Zcaron" unicode="&#x17d;" 
d="M103 402h-52v261h526v-52l-428 -559h203c118 0 172 28 173 233h52v-285h-544v52l430 559h-211c-112 0 -139 -25 -149 -209zM279 708l-124 169h43l116 -103l115 103h43l-124 -169h-69z" />
    <glyph glyph-name="aacute" unicode="&#xe1;" horiz-adv-x="556" 
d="M341 163v92c-43 -25 -89 -35 -148 -60c-54 -23 -76 -45 -76 -80c0 -52 28 -83 79 -83c66 0 145 62 145 131zM426 319v-234c0 -30 8 -53 26 -53c43 0 47 56 47 85v42h47v-29c0 -106 -36 -145 -112 -145c-50 0 -80 30 -88 78c-49 -54 -105 -78 -177 -78
c-81 0 -147 36 -147 125c0 130 180 128 281 176c31 15 38 34 38 64c0 57 -25 86 -112 86c-39 0 -88 -6 -117 -39c30 -5 46 -21 46 -51c0 -39 -32 -53 -60 -53c-35 0 -52 31 -52 71c0 85 114 119 190 119c115 0 190 -34 190 -164zM221 536h-46l125 128c29 30 40 47 67 47
c19 0 37 -20 37 -38c0 -20 -9 -28 -44 -50z" />
    <glyph glyph-name="acircumflex" unicode="&#xe2;" horiz-adv-x="556" 
d="M341 163v92c-43 -25 -89 -35 -148 -60c-54 -23 -76 -45 -76 -80c0 -52 28 -83 79 -83c66 0 145 62 145 131zM426 319v-234c0 -30 8 -53 26 -53c43 0 47 56 47 85v42h47v-29c0 -106 -36 -145 -112 -145c-50 0 -80 30 -88 78c-49 -54 -105 -78 -177 -78
c-81 0 -147 36 -147 125c0 130 180 128 281 176c31 15 38 34 38 64c0 57 -25 86 -112 86c-39 0 -88 -6 -117 -39c30 -5 46 -21 46 -51c0 -39 -32 -53 -60 -53c-35 0 -52 31 -52 71c0 85 114 119 190 119c115 0 190 -34 190 -164zM286 704l124 -169h-43l-115 103l-116 -103
h-43l124 169h69z" />
    <glyph glyph-name="adieresis" unicode="&#xe4;" horiz-adv-x="556" 
d="M341 163v92c-43 -25 -89 -35 -148 -60c-54 -23 -76 -45 -76 -80c0 -52 28 -83 79 -83c66 0 145 62 145 131zM426 319v-234c0 -30 8 -53 26 -53c43 0 47 56 47 85v42h47v-29c0 -106 -36 -145 -112 -145c-50 0 -80 30 -88 78c-49 -54 -105 -78 -177 -78
c-81 0 -147 36 -147 125c0 130 180 128 281 176c31 15 38 34 38 64c0 57 -25 86 -112 86c-39 0 -88 -6 -117 -39c30 -5 46 -21 46 -51c0 -39 -32 -53 -60 -53c-35 0 -52 31 -52 71c0 85 114 119 190 119c115 0 190 -34 190 -164zM158 655c30 0 54 -23 54 -53
s-24 -53 -54 -53s-54 23 -54 53s24 53 54 53zM361 655c30 0 54 -23 54 -53s-24 -53 -54 -53s-54 23 -54 53s24 53 54 53z" />
    <glyph glyph-name="agrave" unicode="&#xe0;" horiz-adv-x="556" 
d="M341 163v92c-43 -25 -89 -35 -148 -60c-54 -23 -76 -45 -76 -80c0 -52 28 -83 79 -83c66 0 145 62 145 131zM426 319v-234c0 -30 8 -53 26 -53c43 0 47 56 47 85v42h47v-29c0 -106 -36 -145 -112 -145c-50 0 -80 30 -88 78c-49 -54 -105 -78 -177 -78
c-81 0 -147 36 -147 125c0 130 180 128 281 176c31 15 38 34 38 64c0 57 -25 86 -112 86c-39 0 -88 -6 -117 -39c30 -5 46 -21 46 -51c0 -39 -32 -53 -60 -53c-35 0 -52 31 -52 71c0 85 114 119 190 119c115 0 190 -34 190 -164zM328 536h-46l-139 87c-35 22 -44 30 -44 50
c0 18 18 38 37 38c27 0 38 -17 67 -47z" />
    <glyph glyph-name="aring" unicode="&#xe5;" horiz-adv-x="556" 
d="M341 163v92c-43 -25 -89 -35 -148 -60c-54 -23 -76 -45 -76 -80c0 -52 28 -83 79 -83c66 0 145 62 145 131zM426 319v-234c0 -30 8 -53 26 -53c43 0 47 56 47 85v42h47v-29c0 -106 -36 -145 -112 -145c-50 0 -80 30 -88 78c-49 -54 -105 -78 -177 -78
c-81 0 -147 36 -147 125c0 130 180 128 281 176c31 15 38 34 38 64c0 57 -25 86 -112 86c-39 0 -88 -6 -117 -39c30 -5 46 -21 46 -51c0 -39 -32 -53 -60 -53c-35 0 -52 31 -52 71c0 85 114 119 190 119c115 0 190 -34 190 -164zM260 738c57 0 102 -46 102 -102
s-45 -101 -102 -101s-102 45 -102 101s45 102 102 102zM260 698c-35 0 -61 -28 -61 -62s26 -61 61 -61s61 27 61 61s-26 62 -61 62z" />
    <glyph glyph-name="atilde" unicode="&#xe3;" horiz-adv-x="556" 
d="M341 163v92c-43 -25 -89 -35 -148 -60c-54 -23 -76 -45 -76 -80c0 -52 28 -83 79 -83c66 0 145 62 145 131zM426 319v-234c0 -30 8 -53 26 -53c43 0 47 56 47 85v42h47v-29c0 -106 -36 -145 -112 -145c-50 0 -80 30 -88 78c-49 -54 -105 -78 -177 -78
c-81 0 -147 36 -147 125c0 130 180 128 281 176c31 15 38 34 38 64c0 57 -25 86 -112 86c-39 0 -88 -6 -117 -39c30 -5 46 -21 46 -51c0 -39 -32 -53 -60 -53c-35 0 -52 31 -52 71c0 85 114 119 190 119c115 0 190 -34 190 -164zM389 672h34c-7 -29 -18 -57 -36 -78
s-42 -34 -76 -34c-29 0 -55 12 -79 24c-23 12 -44 24 -64 24c-23 0 -52 -27 -54 -49h-33c11 59 47 110 112 110c25 0 51 -12 76 -24s49 -24 69 -24c28 0 44 28 51 51z" />
    <glyph glyph-name="ccedilla" unicode="&#xe7;" horiz-adv-x="500" 
d="M408 172h58c-13 -125 -85 -179 -200 -185l-21 -51c10 4 21 5 31 5c42 0 83 -23 83 -65c0 -64 -61 -88 -117 -88c-31 0 -64 5 -93 18l14 32c17 -7 34 -11 53 -11c26 0 66 4 66 39c0 22 -22 36 -46 36c-12 0 -24 -2 -32 -5l-11 6l35 83c-119 4 -210 87 -210 248
c0 148 106 249 248 249c89 0 203 -46 203 -150c0 -41 -24 -69 -63 -69c-25 0 -49 21 -49 47c0 34 17 52 51 57c-16 49 -82 68 -127 68c-127 0 -168 -110 -168 -202s41 -202 149 -202c80 0 130 55 146 140z" />
    <glyph glyph-name="eacute" unicode="&#xe9;" horiz-adv-x="500" 
d="M478 228h-361c0 -102 22 -196 140 -196c80 0 129 42 150 120h58c-22 -108 -91 -167 -209 -167c-148 0 -234 85 -234 249s86 249 234 249c161 0 213 -113 222 -255zM117 275h266c0 87 -39 161 -130 161c-93 0 -136 -74 -136 -161zM221 536h-46l125 128c29 30 40 47 67 47
c19 0 37 -20 37 -38c0 -20 -9 -28 -44 -50z" />
    <glyph glyph-name="ecircumflex" unicode="&#xea;" horiz-adv-x="500" 
d="M478 228h-361c0 -102 22 -196 140 -196c80 0 129 42 150 120h58c-22 -108 -91 -167 -209 -167c-148 0 -234 85 -234 249s86 249 234 249c161 0 213 -113 222 -255zM117 275h266c0 87 -39 161 -130 161c-93 0 -136 -74 -136 -161zM286 704l124 -169h-43l-115 103
l-116 -103h-43l124 169h69z" />
    <glyph glyph-name="edieresis" unicode="&#xeb;" horiz-adv-x="500" 
d="M478 228h-361c0 -102 22 -196 140 -196c80 0 129 42 150 120h58c-22 -108 -91 -167 -209 -167c-148 0 -234 85 -234 249s86 249 234 249c161 0 213 -113 222 -255zM117 275h266c0 87 -39 161 -130 161c-93 0 -136 -74 -136 -161zM158 655c30 0 54 -23 54 -53
s-24 -53 -54 -53s-54 23 -54 53s24 53 54 53zM361 655c30 0 54 -23 54 -53s-24 -53 -54 -53s-54 23 -54 53s24 53 54 53z" />
    <glyph glyph-name="egrave" unicode="&#xe8;" horiz-adv-x="500" 
d="M478 228h-361c0 -102 22 -196 140 -196c80 0 129 42 150 120h58c-22 -108 -91 -167 -209 -167c-148 0 -234 85 -234 249s86 249 234 249c161 0 213 -113 222 -255zM117 275h266c0 87 -39 161 -130 161c-93 0 -136 -74 -136 -161zM328 536h-46l-139 87
c-35 22 -44 30 -44 50c0 18 18 38 37 38c27 0 38 -17 67 -47z" />
    <glyph glyph-name="iacute" unicode="&#xed;" horiz-adv-x="333" 
d="M209 468v-375c0 -31 7 -46 40 -46h64v-47h-294v47h65c33 0 40 15 40 46v282c0 31 -7 46 -40 46h-65v47h190zM119 536h-46l125 128c29 30 40 47 67 47c19 0 37 -20 37 -38c0 -20 -9 -28 -44 -50z" />
    <glyph glyph-name="icircumflex" unicode="&#xee;" horiz-adv-x="333" 
d="M209 468v-375c0 -31 7 -46 40 -46h64v-47h-294v47h65c33 0 40 15 40 46v282c0 31 -7 46 -40 46h-65v47h190zM184 704l124 -169h-43l-115 103l-116 -103h-43l124 169h69z" />
    <glyph glyph-name="idieresis" unicode="&#xef;" horiz-adv-x="333" 
d="M209 468v-375c0 -31 7 -46 40 -46h64v-47h-294v47h65c33 0 40 15 40 46v282c0 31 -7 46 -40 46h-65v47h190zM56 655c30 0 54 -23 54 -53s-24 -53 -54 -53s-54 23 -54 53s24 53 54 53zM259 655c30 0 54 -23 54 -53s-24 -53 -54 -53s-54 23 -54 53s24 53 54 53z" />
    <glyph glyph-name="igrave" unicode="&#xec;" horiz-adv-x="333" 
d="M209 468v-375c0 -31 7 -46 40 -46h64v-47h-294v47h65c33 0 40 15 40 46v282c0 31 -7 46 -40 46h-65v47h190zM226 536h-46l-139 87c-35 22 -44 30 -44 50c0 18 18 38 37 38c27 0 38 -17 67 -47z" />
    <glyph glyph-name="ntilde" unicode="&#xf1;" horiz-adv-x="667" 
d="M208 468v-85h2c40 63 100 100 177 100c105 0 161 -69 161 -173v-217c0 -31 7 -46 40 -46h60v-47h-280v47h55c33 0 40 15 40 46v224c0 69 -26 110 -103 110c-95 0 -151 -76 -151 -156v-178c0 -31 7 -46 40 -46h61v-47h-291v47h65c33 0 40 15 40 46v282c0 31 -7 46 -40 46
h-65v47h189zM463 672h34c-7 -29 -18 -57 -36 -78s-42 -34 -76 -34c-29 0 -55 12 -79 24c-23 12 -44 24 -64 24c-23 0 -52 -27 -54 -49h-33c11 59 47 110 112 110c25 0 51 -12 76 -24s49 -24 69 -24c28 0 44 28 51 51z" />
    <glyph glyph-name="oacute" unicode="&#xf3;" horiz-adv-x="556" 
d="M278 483c161 0 258 -105 258 -249s-97 -249 -258 -249s-258 105 -258 249s97 249 258 249zM278 436c-124 0 -163 -94 -163 -202s39 -202 163 -202s163 94 163 202s-39 202 -163 202zM240 536h-46l125 128c29 30 40 47 67 47c19 0 37 -20 37 -38c0 -20 -9 -28 -44 -50z
" />
    <glyph glyph-name="ocircumflex" unicode="&#xf4;" horiz-adv-x="556" 
d="M278 483c161 0 258 -105 258 -249s-97 -249 -258 -249s-258 105 -258 249s97 249 258 249zM278 436c-124 0 -163 -94 -163 -202s39 -202 163 -202s163 94 163 202s-39 202 -163 202zM305 704l124 -169h-43l-115 103l-116 -103h-43l124 169h69z" />
    <glyph glyph-name="odieresis" unicode="&#xf6;" horiz-adv-x="556" 
d="M278 483c161 0 258 -105 258 -249s-97 -249 -258 -249s-258 105 -258 249s97 249 258 249zM278 436c-124 0 -163 -94 -163 -202s39 -202 163 -202s163 94 163 202s-39 202 -163 202zM177 655c30 0 54 -23 54 -53s-24 -53 -54 -53s-54 23 -54 53s24 53 54 53zM380 655
c30 0 54 -23 54 -53s-24 -53 -54 -53s-54 23 -54 53s24 53 54 53z" />
    <glyph glyph-name="ograve" unicode="&#xf2;" horiz-adv-x="556" 
d="M278 483c161 0 258 -105 258 -249s-97 -249 -258 -249s-258 105 -258 249s97 249 258 249zM278 436c-124 0 -163 -94 -163 -202s39 -202 163 -202s163 94 163 202s-39 202 -163 202zM347 536h-46l-139 87c-35 22 -44 30 -44 50c0 18 18 38 37 38c27 0 38 -17 67 -47z" />
    <glyph glyph-name="otilde" unicode="&#xf5;" horiz-adv-x="556" 
d="M278 483c161 0 258 -105 258 -249s-97 -249 -258 -249s-258 105 -258 249s97 249 258 249zM278 436c-124 0 -163 -94 -163 -202s39 -202 163 -202s163 94 163 202s-39 202 -163 202zM408 672h34c-7 -29 -18 -57 -36 -78s-42 -34 -76 -34c-29 0 -55 12 -79 24
c-23 12 -44 24 -64 24c-23 0 -52 -27 -54 -49h-33c11 59 47 110 112 110c25 0 51 -12 76 -24s49 -24 69 -24c28 0 44 28 51 51z" />
    <glyph glyph-name="scaron" unicode="&#x161;" horiz-adv-x="500" 
d="M36 189h52c15 -95 91 -157 186 -157c60 0 104 30 104 78c0 129 -336 30 -336 235c0 100 91 138 178 138c56 0 113 -20 155 -57l18 47h45v-184h-47c-11 88 -87 147 -169 147c-44 0 -95 -15 -95 -80c0 -119 336 -30 336 -226c0 -105 -94 -145 -186 -145
c-62 0 -124 19 -170 62l-19 -52h-52v194zM208 535l-124 169h43l116 -103l115 103h43l-124 -169h-69z" />
    <glyph glyph-name="uacute" unicode="&#xfa;" horiz-adv-x="667" 
d="M459 0v85h-2c-40 -63 -100 -100 -177 -100c-105 0 -161 47 -161 157v233c0 31 -7 46 -40 46h-60v47h185v-317c0 -69 26 -110 103 -110c95 0 151 76 151 156v178c0 31 -7 46 -40 46h-61v47h186v-375c0 -31 7 -46 40 -46h65v-47h-189zM288 536h-46l125 128
c29 30 40 47 67 47c19 0 37 -20 37 -38c0 -20 -9 -28 -44 -50z" />
    <glyph glyph-name="ucircumflex" unicode="&#xfb;" horiz-adv-x="667" 
d="M459 0v85h-2c-40 -63 -100 -100 -177 -100c-105 0 -161 47 -161 157v233c0 31 -7 46 -40 46h-60v47h185v-317c0 -69 26 -110 103 -110c95 0 151 76 151 156v178c0 31 -7 46 -40 46h-61v47h186v-375c0 -31 7 -46 40 -46h65v-47h-189zM353 704l124 -169h-43l-115 103
l-116 -103h-43l124 169h69z" />
    <glyph glyph-name="udieresis" unicode="&#xfc;" horiz-adv-x="667" 
d="M459 0v85h-2c-40 -63 -100 -100 -177 -100c-105 0 -161 47 -161 157v233c0 31 -7 46 -40 46h-60v47h185v-317c0 -69 26 -110 103 -110c95 0 151 76 151 156v178c0 31 -7 46 -40 46h-61v47h186v-375c0 -31 7 -46 40 -46h65v-47h-189zM225 655c30 0 54 -23 54 -53
s-24 -53 -54 -53s-54 23 -54 53s24 53 54 53zM428 655c30 0 54 -23 54 -53s-24 -53 -54 -53s-54 23 -54 53s24 53 54 53z" />
    <glyph glyph-name="ugrave" unicode="&#xf9;" horiz-adv-x="667" 
d="M459 0v85h-2c-40 -63 -100 -100 -177 -100c-105 0 -161 47 -161 157v233c0 31 -7 46 -40 46h-60v47h185v-317c0 -69 26 -110 103 -110c95 0 151 76 151 156v178c0 31 -7 46 -40 46h-61v47h186v-375c0 -31 7 -46 40 -46h65v-47h-189zM395 536h-46l-139 87
c-35 22 -44 30 -44 50c0 18 18 38 37 38c27 0 38 -17 67 -47z" />
    <glyph glyph-name="yacute" unicode="&#xfd;" 
d="M277 468v-47h-22c-48 0 -61 -4 -61 -20c0 -12 11 -36 26 -72l99 -234l117 270c3 8 7 18 7 32c0 15 -21 24 -61 24h-28v47h238v-47h-28c-29 0 -52 -27 -68 -63l-209 -468c-26 -59 -84 -102 -155 -102c-58 0 -114 39 -114 102c0 61 35 79 62 79c28 0 54 -18 54 -52
c0 -37 -31 -46 -60 -46c4 -18 29 -36 59 -36c49 0 80 28 99 66l48 97l-169 370c-17 37 -35 53 -72 53h-21v47h259zM267 536h-46l125 128c29 30 40 47 67 47c19 0 37 -20 37 -38c0 -20 -9 -28 -44 -50z" />
    <glyph glyph-name="ydieresis" unicode="&#xff;" 
d="M277 468v-47h-22c-48 0 -61 -4 -61 -20c0 -12 11 -36 26 -72l99 -234l117 270c3 8 7 18 7 32c0 15 -21 24 -61 24h-28v47h238v-47h-28c-29 0 -52 -27 -68 -63l-209 -468c-26 -59 -84 -102 -155 -102c-58 0 -114 39 -114 102c0 61 35 79 62 79c28 0 54 -18 54 -52
c0 -37 -31 -46 -60 -46c4 -18 29 -36 59 -36c49 0 80 28 99 66l48 97l-169 370c-17 37 -35 53 -72 53h-21v47h259zM204 655c30 0 54 -23 54 -53s-24 -53 -54 -53s-54 23 -54 53s24 53 54 53zM407 655c30 0 54 -23 54 -53s-24 -53 -54 -53s-54 23 -54 53s24 53 54 53z" />
    <glyph glyph-name="zcaron" unicode="&#x17e;" horiz-adv-x="500" 
d="M468 0h-436v47l325 374h-165c-73 0 -92 -45 -96 -148h-47v195h412v-47l-328 -374h170c98 0 112 35 118 164h47v-211zM208 535l-124 169h43l116 -103l115 103h43l-124 -169h-69z" />
    <glyph glyph-name="Omega" unicode="&#x2126;" horiz-adv-x="799" 
d="M761 135l-28 -135h-258l-7 21c46 57 146 166 145 310c-1 193 -106 260 -215 260c-118 0 -213 -76 -213 -266c0 -134 85 -231 142 -304l-7 -21h-257l-26 135l24 1c24 -60 39 -72 83 -72h114c-69 48 -176 126 -176 268c0 176 138 289 318 289c186 0 314 -105 314 -279
c0 -122 -97 -211 -179 -278h120c46 0 57 8 81 72z" />
    <glyph glyph-name="uni03BC" unicode="&#x3bc;" horiz-adv-x="667" 
d="M648 47v-47h-189v85h-2c-40 -63 -100 -100 -177 -100c-29 0 -54 5 -76 16v-213h-185v47h60c33 0 40 15 40 46v494c0 31 -7 46 -40 46h-60v47h185v-317c0 -69 26 -110 103 -110c95 0 151 76 151 156v178c0 31 -7 46 -40 46h-61v47h186v-375c0 -31 7 -46 40 -46h65z" />
    <glyph glyph-name="pi" unicode="&#x3c0;" horiz-adv-x="595" 
d="M542 438l23 -10c-7 -35 -24 -72 -38 -87c-16 -3 -43 -4 -72 -4c-5 -53 -4 -147 -4 -213c1 -53 16 -81 47 -81c22 0 34 11 51 28l12 -21c-26 -42 -70 -61 -108 -61c-53 0 -91 25 -91 115c0 80 6 169 11 235c-68 1 -130 2 -170 2v-17c0 -203 -53 -306 -67 -319
c-18 -7 -41 -14 -57 -16l-7 16c74 82 95 248 95 337c-68 0 -97 -19 -134 -46l-15 22c35 41 69 90 173 90c75 -1 189 -3 288 -3c28 0 45 5 63 33z" />
    <glyph glyph-name="Euro" unicode="&#x20ac;" 
d="M52 288h46v14c0 12 0 24 1 36h-67l20 50h53c22 137 100 232 238 232c61 0 108 -13 153 -65l17 51h44v-173h-47c-20 89 -74 137 -149 137c-95 0 -143 -73 -158 -182h290l-20 -50h-275c-1 -12 -1 -24 -1 -36v-14h257l-20 -50h-234c13 -112 61 -203 160 -203
c75 0 130 40 150 137h47v-172h-44l-17 50c-45 -52 -95 -65 -156 -65c-146 0 -221 111 -238 253h-70z" />
    <glyph glyph-name="afii61289" unicode="&#x2113;" horiz-adv-x="426" 
d="M388 113l18 -18c-43 -71 -97 -108 -174 -108c-47 0 -79 13 -103 35c-23 25 -38 60 -38 136v62l-66 -44l-11 23l77 56v113c0 147 9 200 54 247c29 32 59 42 92 42c66 0 93 -63 93 -122c0 -104 -63 -186 -157 -268v-73c0 -120 37 -156 97 -156c49 0 90 36 118 75zM173 425
v-117c57 63 102 137 102 224c0 46 -15 95 -50 95c-41 0 -52 -62 -52 -202z" />
    <glyph glyph-name="estimated" unicode="&#x212e;" horiz-adv-x="764" 
d="M734 293h-570c-3 0 -5 -1 -5 -4v-172c0 -8 3 -14 7 -20c56 -57 132 -94 216 -94c91 0 172 42 227 105h51c-63 -74 -165 -122 -279 -122c-194 0 -351 141 -351 316s157 317 351 317c195 0 353 -142 353 -317v-9zM604 316v173c0 8 -2 15 -8 21c-55 54 -130 90 -214 90
c-83 0 -159 -37 -215 -93c-5 -6 -8 -13 -8 -22v-169c0 -2 2 -6 5 -6h437c3 0 3 4 3 6z" />
    <glyph glyph-name="partialdiff" unicode="&#x2202;" horiz-adv-x="559" 
d="M272 393h1c52 0 115 -25 149 -72c3 29 6 60 7 92c0 48 -7 98 -29 145c-21 44 -74 90 -132 90c-56 0 -111 -31 -149 -62c-17 -1 -45 38 -34 62c36 20 84 40 152 40c102 0 168 -48 217 -127c43 -68 52 -154 52 -205c0 -68 -11 -158 -51 -231c-45 -82 -113 -139 -215 -139
c-118 0 -195 77 -195 190c0 63 26 116 61 151c40 40 101 66 166 66zM298 353h-1c-43 0 -83 -11 -117 -52c-33 -41 -45 -94 -45 -154c-1 -73 39 -129 106 -129c59 0 97 43 122 90c30 55 40 101 52 174c-15 26 -60 71 -117 71z" />
    <glyph glyph-name="product" unicode="&#x220f;" horiz-adv-x="720" 
d="M690 619v-24c-89 -6 -93 -12 -93 -61v-513c0 -58 6 -65 92 -71v-24h-270v24c85 6 90 9 90 71v535c0 28 -6 30 -35 30h-231c-28 0 -32 -3 -32 -26v-539c0 -58 1 -64 81 -71v-24h-260v24c82 6 90 12 90 71v513c0 50 -5 55 -94 61v24h662z" />
    <glyph glyph-name="summation" unicode="&#x2211;" horiz-adv-x="584" 
d="M559 105l-45 -183h-487v24l231 311l-224 338v24h478c1 -15 8 -95 13 -158l-25 -6c-10 49 -25 88 -38 105c-13 20 -27 29 -104 29h-211l188 -285l-228 -311h281c90 0 98 3 144 120z" />
    <glyph glyph-name="uni2219" unicode="&#x2219;" horiz-adv-x="305" 
d="M152 290c33 0 56 -24 56 -56s-23 -56 -56 -56s-56 24 -56 56s23 56 56 56z" />
    <glyph glyph-name="radical" unicode="&#x221a;" horiz-adv-x="561" 
d="M545 793l-167 -916l-22 -12l-226 495l-88 -45l-12 31l158 78l179 -406h2l138 785z" />
    <glyph glyph-name="infinity" unicode="&#x221e;" horiz-adv-x="748" 
d="M699 254v-1c0 -96 -73 -156 -149 -156c-58 0 -110 35 -176 113c-51 -59 -103 -113 -180 -113c-79 0 -147 64 -147 152c0 90 66 155 154 155c73 0 127 -52 178 -112c46 52 95 112 177 112c84 -1 143 -61 143 -150zM200 149h2c58 0 106 58 143 98c-41 51 -83 107 -149 107
c-57 0 -94 -48 -94 -106c0 -54 40 -99 98 -99zM550 354h-1c-62 0 -111 -68 -144 -102c62 -71 99 -103 147 -103c59 0 92 52 92 100c0 65 -40 105 -94 105z" />
    <glyph glyph-name="integral" unicode="&#x222b;" horiz-adv-x="371" 
d="M161 16l-19 364c-16 306 64 381 147 381c24 0 59 -14 59 -43c0 -27 -19 -41 -40 -41c-31 0 -31 46 -52 46s-47 -29 -41 -157l17 -351c17 -328 -64 -400 -148 -400c-35 0 -59 21 -60 45c-1 23 24 43 49 43c26 0 26 -48 47 -48c31 0 46 65 41 161z" />
    <glyph glyph-name="approxequal" unicode="&#x2248;" horiz-adv-x="567" 
d="M488 395l35 -35c-33 -52 -76 -88 -133 -88c-43 0 -71 15 -118 39c-28 15 -58 31 -92 31c-46 0 -76 -32 -103 -69l-35 34c31 53 85 90 143 90c48 0 82 -22 111 -38c37 -20 57 -33 94 -33c40 0 68 23 98 69zM488 227l35 -35c-33 -51 -75 -88 -134 -88c-42 0 -71 16 -117 40
c-30 15 -58 30 -91 30c-48 0 -77 -32 -104 -69l-35 34c31 53 85 90 143 90c48 0 82 -22 110 -37c32 -17 56 -34 95 -34c41 0 67 23 98 69z" />
    <glyph glyph-name="notequal" unicode="&#x2260;" horiz-adv-x="567" 
d="M407 461l-44 -91h154v-54h-178l-64 -135h242v-54h-266l-54 -116l-45 22l44 94h-147v54h172l64 135h-236v54h260l53 112z" />
    <glyph glyph-name="lessequal" unicode="&#x2264;" horiz-adv-x="567" 
d="M515 86l-460 210v57l460 209v-61l-399 -175v-2l399 -176v-62zM517 -4h-467v54h467v-54z" />
    <glyph glyph-name="greaterequal" unicode="&#x2265;" horiz-adv-x="567" 
d="M55 562l461 -209v-57l-461 -210v62l399 176v2l-399 175v61zM515 -4h-465v54h465v-54z" />
    <glyph glyph-name="lozenge" unicode="&#x25ca;" horiz-adv-x="577" 
d="M530 294l-211 -364h-62l-211 364l213 367h60zM466 294l-175 310h-4l-176 -309l177 -310h2z" />
    <glyph glyph-name="uni00A0" unicode="&#xa0;" horiz-adv-x="305" 
 />
    <glyph glyph-name="uni00AD" unicode="&#xad;" horiz-adv-x="305" 
d="M282 198h-259v72h259v-72z" />
    <glyph glyph-name="uni02C9" unicode="&#x2c9;" horiz-adv-x="333" 
d="M317 574h-317v59h317v-59z" />
    <glyph glyph-name="uni03A9" unicode="&#x3a9;" horiz-adv-x="799" 
d="M761 135l-28 -135h-258l-7 21c46 57 146 166 145 310c-1 193 -106 260 -215 260c-118 0 -213 -76 -213 -266c0 -134 85 -231 142 -304l-7 -21h-257l-26 135l24 1c24 -60 39 -72 83 -72h114c-69 48 -176 126 -176 268c0 176 138 289 318 289c186 0 314 -105 314 -279
c0 -122 -97 -211 -179 -278h120c46 0 57 8 81 72z" />
    <glyph glyph-name="uni2215" unicode="&#x2215;" horiz-adv-x="167" 
d="M-167 -15l441 635h60l-441 -635h-60z" />
    <glyph glyph-name="a.superior" horiz-adv-x="334" 
d="M201 428v55c-24 -15 -54 -21 -93 -36c-35 -14 -45 -27 -45 -48c0 -31 14 -46 47 -46c43 0 91 33 91 75zM260 521v-140c0 -18 5 -28 17 -28c28 0 29 30 29 47v25h32v-17c0 -64 -23 -87 -73 -87c-32 0 -52 18 -61 47c-28 -33 -64 -47 -111 -47c-53 0 -96 22 -96 75
c0 78 117 77 183 106c16 9 21 20 21 38c0 34 -13 48 -69 48c-25 0 -57 0 -76 -20c19 -3 32 -12 32 -30c0 -24 -23 -32 -41 -32c-23 0 -34 18 -34 42c0 51 74 72 123 72c75 0 124 -21 124 -99z" />
    <glyph glyph-name="o.superior" horiz-adv-x="334" 
d="M168 620c104 0 167 -63 167 -150c0 -86 -63 -149 -167 -149c-105 0 -168 63 -168 149c0 87 63 150 168 150zM168 353c78 0 103 53 101 117c0 65 -23 118 -101 118c-79 0 -102 -53 -102 -118c0 -64 23 -117 102 -117z" />
    <glyph glyph-name="one.superior" horiz-adv-x="366" 
d="M305 248h-244v36h41c35 0 49 4 49 28v210h-90v36c50 0 103 12 120 62h38v-302c0 -31 14 -34 41 -34h45v-36z" />
    <glyph glyph-name="two.superior" horiz-adv-x="366" 
d="M315 366h36c0 -75 -17 -136 -103 -136c-35 0 -62 22 -87 34s-49 24 -75 24c-24 0 -35 -23 -35 -43h-36c0 218 249 136 249 261c0 50 -47 78 -97 78c-36 0 -85 -11 -97 -54c29 0 45 -10 45 -36c0 -21 -18 -34 -40 -34c-32 0 -45 23 -45 50c0 85 90 110 163 110
c76 0 145 -39 145 -113c0 -147 -233 -91 -270 -195c12 7 24 12 37 12c14 0 42 -10 72 -18s63 -16 84 -16c46 0 54 42 54 76z" />
    <glyph glyph-name="three.superior" horiz-adv-x="366" 
d="M140 423v36h20c47 0 107 7 107 57c0 46 -37 68 -86 68c-36 0 -67 -6 -100 -29c22 -3 33 -15 33 -35c0 -19 -16 -35 -38 -35c-29 0 -40 20 -40 44c0 69 101 91 158 91c67 0 147 -25 147 -98c0 -51 -42 -72 -92 -79v-1c50 0 103 -40 103 -96c0 -91 -104 -107 -183 -107
c-66 0 -150 26 -150 99c0 26 18 44 46 44c24 0 39 -13 39 -35c0 -21 -22 -31 -43 -31c10 -30 67 -41 92 -41c62 0 125 10 125 77c0 57 -54 71 -114 71h-24z" />
    <glyph glyph-name="uni2206" unicode="&#x2206;" horiz-adv-x="671" 
d="M633 0h-596v23l273 586l43 11l280 -597v-23zM522 44l-217 478l-212 -478h429z" />
    <glyph glyph-name="uni2010" unicode="&#x2010;" horiz-adv-x="305" 
d="M282 198h-259v72h259v-72z" />
    </font>
</defs>
</svg>
