<?xml version="1.0" encoding="UTF-8" standalone="no"?>
<svg
   xmlns:dc="http://purl.org/dc/elements/1.1/"
   xmlns:cc="http://creativecommons.org/ns#"
   xmlns:rdf="http://www.w3.org/1999/02/22-rdf-syntax-ns#"
   xmlns:svg="http://www.w3.org/2000/svg"
   xmlns="http://www.w3.org/2000/svg"
   xmlns:sodipodi="http://sodipodi.sourceforge.net/DTD/sodipodi-0.dtd"
   xmlns:inkscape="http://www.inkscape.org/namespaces/inkscape"
   enable-background="new 0 0 24 24"
   height="26.619507"
   viewBox="0 0 1.2475451 1.2477893"
   width="26.614296"
   version="1.1"
   id="svg13"
   sodipodi:docname="instagram.svg"
   inkscape:version="0.92.4 (5da689c313, 2019-01-14)">
  <metadata
     id="metadata19">
    <rdf:RDF>
      <cc:Work
         rdf:about="">
        <dc:format>image/svg+xml</dc:format>
        <dc:type
           rdf:resource="http://purl.org/dc/dcmitype/StillImage" />
      </cc:Work>
    </rdf:RDF>
  </metadata>
  <defs
     id="defs17" />
  <sodipodi:namedview
     pagecolor="#ffffff"
     bordercolor="#666666"
     borderopacity="1"
     objecttolerance="10"
     gridtolerance="10"
     guidetolerance="10"
     inkscape:pageopacity="0"
     inkscape:pageshadow="2"
     inkscape:window-width="1366"
     inkscape:window-height="705"
     id="namedview15"
     showgrid="false"
     inkscape:zoom="10.429825"
     inkscape:cx="22.774953"
     inkscape:cy="16.775789"
     inkscape:window-x="-8"
     inkscape:window-y="-8"
     inkscape:window-maximized="1"
     inkscape:current-layer="svg13" />
  <linearGradient
     id="SVGID_1_"
     gradientTransform="matrix(0,-0.10273024,-0.09557748,0,-6.8651984,-2.6454117)"
     gradientUnits="userSpaceOnUse"
     x1="-37.105999"
     x2="-26.555"
     y1="-72.705002"
     y2="-84.046997">
    <stop
       offset="0"
       stop-color="#fd5"
       id="stop2" />
    <stop
       offset=".5"
       stop-color="#ff543e"
       id="stop4" />
    <stop
       offset="1"
       stop-color="#c837ab"
       id="stop6" />
  </linearGradient>
  <path
     d="m 0.08137683,0.0866321 c -0.09775442,0.10153807 -0.0777474,0.20939946 -0.0777474,0.53707882 0,0.27211612 -0.04747776,0.54490568 0.20100294,0.60912508 0.0775919,0.019955 0.76508634,0.019955 0.84257453,-1.036e-4 0.103456,-0.026692 0.1876304,-0.1106086 0.1991371,-0.25692936 0.00161,-0.020421 0.00161,-0.6833997 -5.19e-5,-0.70423599 C 1.2340599,0.11570933 1.1381195,0.02588546 1.0117023,0.00769256 0.98272861,0.00349271 0.97692314,0.00225264 0.82827025,0.00198942 0.30098734,0.0022485 0.18540285,-0.0212326 0.08137683,0.08663051 Z"
     id="path9"
     style="fill:url(#SVGID_1_);stroke-width:0.0518316"
     inkscape:connector-curvature="0" />
  <path
     d="m 0.62550501,0.16469042 c -0.18820056,0 -0.36691594,-0.0167421 -0.43517815,0.15844913 -0.0281964,0.072357 -0.0241017,0.16632773 -0.0241017,0.30088234 0,0.11807241 -0.003785,0.22904406 0.0241017,0.30083067 0.0681067,0.17529454 0.2482734,0.15850114 0.43507449,0.15850114 0.18021848,0 0.36603475,0.018761 0.43512635,-0.15850114 0.028249,-0.0730828 0.024102,-0.16565387 0.024102,-0.30083067 0,-0.17944076 0.0099,-0.29528445 -0.077125,-0.38225788 C 0.9193908,0.15365031 0.80022988,0.16469041 0.62529825,0.16469041 Z m -0.0411542,0.0827752 C 0.97692333,0.24684712 1.026889,0.2032012 0.99931449,0.80947529 0.98951834,1.0239029 0.82624882,1.0003712 0.62555683,1.0003712 c -0.36593112,0 -0.37645294,-0.01047 -0.37645294,-0.37655668 0,-0.37033667 0.0290257,-0.37614194 0.33524683,-0.37645266 z m 0.28631779,0.076244 c -0.030425,0 -0.0550971,0.0246728 -0.0550971,0.0550972 0,0.0304253 0.0246721,0.0550972 0.0550971,0.0550972 0.0304249,0 0.0550971,-0.0246728 0.0550971,-0.0550972 0,-0.0304253 -0.0246719,-0.0550972 -0.0550971,-0.0550972 z m -0.2451635,0.0644272 c -0.13025282,0 -0.23583378,0.10563274 -0.23583378,0.23588535 0,0.13025305 0.10558096,0.2358337 0.23583378,0.2358337 0.13025281,0 0.23578198,-0.10558065 0.23578198,-0.2358337 0,-0.13025261 -0.10552917,-0.23588535 -0.23578198,-0.23588535 z m 0,0.0827752 c 0.2024024,0 0.20266152,0.3062212 0,0.3062212 -0.20235057,0 -0.20266155,-0.3062212 0,-0.3062212 z"
     id="path11"
     inkscape:connector-curvature="0"
     style="fill:#ffffff;stroke-width:0.0518316" />
</svg>
