<?xml version="1.0" encoding="UTF-8" standalone="no"?>
<!-- Generator: Adobe Illustrator 19.0.0, SVG Export Plug-In . SVG Version: 6.00 Build 0)  -->

<svg
   xmlns:dc="http://purl.org/dc/elements/1.1/"
   xmlns:cc="http://creativecommons.org/ns#"
   xmlns:rdf="http://www.w3.org/1999/02/22-rdf-syntax-ns#"
   xmlns:svg="http://www.w3.org/2000/svg"
   xmlns="http://www.w3.org/2000/svg"
   xmlns:sodipodi="http://sodipodi.sourceforge.net/DTD/sodipodi-0.dtd"
   xmlns:inkscape="http://www.inkscape.org/namespaces/inkscape"
   version="1.1"
   id="Capa_1"
   x="0px"
   y="0px"
   viewBox="0 0 20.359842 16.542374"
   xml:space="preserve"
   sodipodi:docname="twitter.svg"
   width="20.359842"
   height="16.542374"
   inkscape:version="0.92.4 (5da689c313, 2019-01-14)"><metadata
   id="metadata39"><rdf:RDF><cc:Work
       rdf:about=""><dc:format>image/svg+xml</dc:format><dc:type
         rdf:resource="http://purl.org/dc/dcmitype/StillImage" /></cc:Work></rdf:RDF></metadata><defs
   id="defs37" /><sodipodi:namedview
   pagecolor="#ffffff"
   bordercolor="#666666"
   borderopacity="1"
   objecttolerance="10"
   gridtolerance="10"
   guidetolerance="10"
   inkscape:pageopacity="0"
   inkscape:pageshadow="2"
   inkscape:window-width="1366"
   inkscape:window-height="705"
   id="namedview35"
   showgrid="false"
   inkscape:zoom="3.6875"
   inkscape:cx="45.816479"
   inkscape:cy="-10.394627"
   inkscape:window-x="-8"
   inkscape:window-y="-8"
   inkscape:window-maximized="1"
   inkscape:current-layer="Capa_1" />
<path
   style="fill:#03a9f4;stroke-width:0.03976532"
   d="M 20.35984,1.958359 C 19.602709,2.290482 18.79595,2.510623 17.954834,2.61751 18.820127,2.100881 19.48055,1.28903 19.791037,0.310486 18.984279,0.791489 18.093536,1.131241 17.144258,1.320841 16.378219,0.505176 15.286423,0 14.095372,0 11.78453,0 9.9241496,1.87565 9.9241496,4.17504 c 0,0.330848 0.027996,0.648967 0.09671,0.951823 C 6.5507793,4.95762 3.4802608,3.294478 1.4175544,0.760948 1.0574397,1.385743 0.84620629,2.100881 0.84620629,2.870737 c 0,1.44555 0.74440671,2.726946 1.85401811,3.468806 -0.6706023,-0.0127 -1.3284797,-0.207414 -1.88583034,-0.514084 0,0.01275 0,0.02927 0,0.04581 0,2.02835 1.44682124,3.713124 3.34410394,4.101234 -0.3397548,0.09289 -0.7100495,0.137432 -1.0943415,0.137432 -0.2672229,0 -0.5369908,-0.01525 -0.7902163,-0.07126 0.5408083,1.652963 2.0754313,2.868192 3.9001823,2.907637 -1.420099,1.110887 -3.2232176,1.780217 -5.17521739,1.780217 -0.34229982,0 -0.67060227,-0.01527 -0.99890471,-0.05726 1.8489281,1.192322 4.040156,1.873105 6.4031703,1.873105 7.6807493,0 11.8799673,-6.36245 11.8799673,-11.877423 0,-0.184511 -0.0064,-0.362658 -0.01527,-0.539535 0.828391,-0.58789 1.524443,-1.322116 2.091974,-2.167053 z"
   id="path2"
   inkscape:connector-curvature="0" />
<g
   id="g4"
   transform="translate(-8e-7,-447.45763)">
</g>
<g
   id="g6"
   transform="translate(-8e-7,-447.45763)">
</g>
<g
   id="g8"
   transform="translate(-8e-7,-447.45763)">
</g>
<g
   id="g10"
   transform="translate(-8e-7,-447.45763)">
</g>
<g
   id="g12"
   transform="translate(-8e-7,-447.45763)">
</g>
<g
   id="g14"
   transform="translate(-8e-7,-447.45763)">
</g>
<g
   id="g16"
   transform="translate(-8e-7,-447.45763)">
</g>
<g
   id="g18"
   transform="translate(-8e-7,-447.45763)">
</g>
<g
   id="g20"
   transform="translate(-8e-7,-447.45763)">
</g>
<g
   id="g22"
   transform="translate(-8e-7,-447.45763)">
</g>
<g
   id="g24"
   transform="translate(-8e-7,-447.45763)">
</g>
<g
   id="g26"
   transform="translate(-8e-7,-447.45763)">
</g>
<g
   id="g28"
   transform="translate(-8e-7,-447.45763)">
</g>
<g
   id="g30"
   transform="translate(-8e-7,-447.45763)">
</g>
<g
   id="g32"
   transform="translate(-8e-7,-447.45763)">
</g>
</svg>